<mxfile host="65bd71144e">
    <diagram id="3ft80U_rICtiHcn5PHq8" name="第 1 页">
        <mxGraphModel dx="1341" dy="627" grid="1" gridSize="10" guides="1" tooltips="1" connect="1" arrows="1" fold="1" page="1" pageScale="1" pageWidth="827" pageHeight="1169" background="#FFFFFF" math="0" shadow="0">
            <root>
                <mxCell id="0"/>
                <mxCell id="1" parent="0"/>
                <mxCell id="26" value="&lt;div&gt;交互细节完善：&lt;/div&gt;&lt;div&gt;&lt;br&gt;&lt;/div&gt;&lt;div&gt;主动检测：&lt;/div&gt;&lt;div&gt;检测到需要静默安装的应用，弹出“正在更新”Toast，安装后弹出“已安装 重启生效”Toast。&lt;/div&gt;&lt;div&gt;检测到需要用户干预的应用，弹出确认弹窗。用户确认后弹出全屏带遮罩的进度条提示下载进度，下载完成后仍然是全屏菜单展示正在安装。&lt;/div&gt;&lt;div&gt;&lt;br&gt;&lt;/div&gt;&lt;div&gt;被动检测：&lt;/div&gt;&lt;div&gt;检测到需要静默安装的应用，无提示直接下载安装，安装后弹出“已安装 重启生效”Toast。&lt;/div&gt;&lt;div&gt;检测到需要用户干预的应用，交互同主动检测。&lt;/div&gt;&lt;div&gt;&lt;br&gt;&lt;/div&gt;" style="text;html=1;align=center;verticalAlign=middle;resizable=0;points=[];autosize=1;strokeColor=none;fillColor=none;" parent="1" vertex="1">
                    <mxGeometry x="50" y="10" width="760" height="150" as="geometry"/>
                </mxCell>
                <mxCell id="42" value="&lt;font style=&quot;font-size: 24px&quot;&gt;1. 主动检测&lt;/font&gt;" style="text;html=1;strokeColor=none;fillColor=none;align=center;verticalAlign=middle;whiteSpace=wrap;rounded=0;" parent="1" vertex="1">
                    <mxGeometry x="10" y="670" width="150" height="30" as="geometry"/>
                </mxCell>
                <mxCell id="49" value="用户在Mindlinder&lt;br&gt;点击检测" style="rounded=1;whiteSpace=wrap;html=1;fontSize=12;glass=0;strokeWidth=1;shadow=0;" parent="1" vertex="1">
                    <mxGeometry x="40" y="730" width="120" height="40" as="geometry"/>
                </mxCell>
                <mxCell id="50" value="No" style="rounded=0;html=1;jettySize=auto;orthogonalLoop=1;fontSize=11;endArrow=block;endFill=0;endSize=8;strokeWidth=1;shadow=0;labelBackgroundColor=none;edgeStyle=orthogonalEdgeStyle;" parent="1" source="52" target="56" edge="1">
                    <mxGeometry y="20" relative="1" as="geometry">
                        <mxPoint as="offset"/>
                    </mxGeometry>
                </mxCell>
                <mxCell id="52" value="检测ML单应用" style="rhombus;whiteSpace=wrap;html=1;shadow=0;fontFamily=Helvetica;fontSize=12;align=center;strokeWidth=1;spacing=6;spacingTop=-4;" parent="1" vertex="1">
                    <mxGeometry x="50" y="908" width="100" height="80" as="geometry"/>
                </mxCell>
                <mxCell id="54" value="No" style="rounded=0;html=1;jettySize=auto;orthogonalLoop=1;fontSize=11;endArrow=block;endFill=0;endSize=8;strokeWidth=1;shadow=0;labelBackgroundColor=none;edgeStyle=orthogonalEdgeStyle;" parent="1" source="56" target="70" edge="1">
                    <mxGeometry x="0.3333" y="20" relative="1" as="geometry">
                        <mxPoint as="offset"/>
                        <mxPoint x="100" y="1168" as="targetPoint"/>
                    </mxGeometry>
                </mxCell>
                <mxCell id="55" value="Yes" style="edgeStyle=orthogonalEdgeStyle;rounded=0;html=1;jettySize=auto;orthogonalLoop=1;fontSize=11;endArrow=block;endFill=0;endSize=8;strokeWidth=1;shadow=0;labelBackgroundColor=none;" parent="1" source="56" edge="1">
                    <mxGeometry y="10" relative="1" as="geometry">
                        <mxPoint as="offset"/>
                        <mxPoint x="264" y="1068" as="targetPoint"/>
                    </mxGeometry>
                </mxCell>
                <mxCell id="56" value="检测全家桶" style="rhombus;whiteSpace=wrap;html=1;shadow=0;fontFamily=Helvetica;fontSize=12;align=center;strokeWidth=1;spacing=6;spacingTop=-4;" parent="1" vertex="1">
                    <mxGeometry x="50" y="1028" width="100" height="80" as="geometry"/>
                </mxCell>
                <mxCell id="59" value="用户" style="shape=umlActor;verticalLabelPosition=bottom;verticalAlign=top;html=1;" parent="1" vertex="1">
                    <mxGeometry y="750" width="30" height="60" as="geometry"/>
                </mxCell>
                <mxCell id="64" value="" style="group" parent="1" vertex="1" connectable="0">
                    <mxGeometry x="264" y="913" width="150" height="70" as="geometry"/>
                </mxCell>
                <mxCell id="60" value="" style="verticalLabelPosition=bottom;verticalAlign=top;html=1;shape=process;whiteSpace=wrap;rounded=1;size=0.14;arcSize=6;" parent="64" vertex="1">
                    <mxGeometry width="150" height="70" as="geometry"/>
                </mxCell>
                <mxCell id="63" value="静默&lt;br&gt;ML单升" style="text;html=1;strokeColor=none;fillColor=none;align=center;verticalAlign=middle;whiteSpace=wrap;rounded=0;" parent="64" vertex="1">
                    <mxGeometry x="45" y="20" width="60" height="30" as="geometry"/>
                </mxCell>
                <mxCell id="65" value="" style="group" parent="1" vertex="1" connectable="0">
                    <mxGeometry x="264" y="1033" width="150" height="70" as="geometry"/>
                </mxCell>
                <mxCell id="66" value="" style="verticalLabelPosition=bottom;verticalAlign=top;html=1;shape=process;whiteSpace=wrap;rounded=1;size=0.14;arcSize=6;" parent="65" vertex="1">
                    <mxGeometry width="150" height="70" as="geometry"/>
                </mxCell>
                <mxCell id="67" value="非静默&lt;br&gt;全家桶升级" style="text;html=1;strokeColor=none;fillColor=none;align=center;verticalAlign=middle;whiteSpace=wrap;rounded=0;" parent="65" vertex="1">
                    <mxGeometry x="45" y="20" width="65" height="30" as="geometry"/>
                </mxCell>
                <mxCell id="70" value="检测周边设备固件" style="rhombus;whiteSpace=wrap;html=1;shadow=0;fontFamily=Helvetica;fontSize=12;align=center;strokeWidth=1;spacing=6;spacingTop=-4;" parent="1" vertex="1">
                    <mxGeometry x="40" y="1168" width="120" height="110" as="geometry"/>
                </mxCell>
                <mxCell id="71" value="Yes" style="edgeStyle=orthogonalEdgeStyle;rounded=0;html=1;jettySize=auto;orthogonalLoop=1;fontSize=11;endArrow=block;endFill=0;endSize=8;strokeWidth=1;shadow=0;labelBackgroundColor=none;exitX=1;exitY=0.5;exitDx=0;exitDy=0;entryX=0;entryY=0.5;entryDx=0;entryDy=0;" parent="1" source="70" target="73" edge="1">
                    <mxGeometry y="10" relative="1" as="geometry">
                        <mxPoint as="offset"/>
                        <mxPoint x="160" y="1223" as="sourcePoint"/>
                        <mxPoint x="274" y="1223" as="targetPoint"/>
                    </mxGeometry>
                </mxCell>
                <mxCell id="72" value="" style="group" parent="1" vertex="1" connectable="0">
                    <mxGeometry x="264" y="1188" width="150" height="70" as="geometry"/>
                </mxCell>
                <mxCell id="73" value="" style="verticalLabelPosition=bottom;verticalAlign=top;html=1;shape=process;whiteSpace=wrap;rounded=1;size=0.14;arcSize=6;" parent="72" vertex="1">
                    <mxGeometry width="150" height="70" as="geometry"/>
                </mxCell>
                <mxCell id="74" value="周边设备固件升级" style="text;html=1;strokeColor=none;fillColor=none;align=center;verticalAlign=middle;whiteSpace=wrap;rounded=0;" parent="72" vertex="1">
                    <mxGeometry x="45" y="20" width="60" height="30" as="geometry"/>
                </mxCell>
                <mxCell id="75" value="Yes" style="edgeStyle=orthogonalEdgeStyle;rounded=0;html=1;jettySize=auto;orthogonalLoop=1;fontSize=11;endArrow=block;endFill=0;endSize=8;strokeWidth=1;shadow=0;labelBackgroundColor=none;" parent="1" source="76" edge="1">
                    <mxGeometry y="10" relative="1" as="geometry">
                        <mxPoint as="offset"/>
                        <mxPoint x="264" y="1378" as="targetPoint"/>
                    </mxGeometry>
                </mxCell>
                <mxCell id="83" style="edgeStyle=none;html=1;entryX=0.5;entryY=0;entryDx=0;entryDy=0;fontSize=24;" parent="1" source="76" target="82" edge="1">
                    <mxGeometry relative="1" as="geometry"/>
                </mxCell>
                <mxCell id="76" value="检测驱动补丁" style="rhombus;whiteSpace=wrap;html=1;shadow=0;fontFamily=Helvetica;fontSize=12;align=center;strokeWidth=1;spacing=6;spacingTop=-4;" parent="1" vertex="1">
                    <mxGeometry x="50" y="1340" width="100" height="78" as="geometry"/>
                </mxCell>
                <mxCell id="77" value="" style="group" parent="1" vertex="1" connectable="0">
                    <mxGeometry x="264" y="1343" width="150" height="70" as="geometry"/>
                </mxCell>
                <mxCell id="78" value="" style="verticalLabelPosition=bottom;verticalAlign=top;html=1;shape=process;whiteSpace=wrap;rounded=1;size=0.14;arcSize=6;" parent="77" vertex="1">
                    <mxGeometry width="150" height="70" as="geometry"/>
                </mxCell>
                <mxCell id="79" value="驱动补丁" style="text;html=1;strokeColor=none;fillColor=none;align=center;verticalAlign=middle;whiteSpace=wrap;rounded=0;" parent="77" vertex="1">
                    <mxGeometry x="45" y="20" width="65" height="30" as="geometry"/>
                </mxCell>
                <mxCell id="80" value="No" style="rounded=0;html=1;jettySize=auto;orthogonalLoop=1;fontSize=11;endArrow=block;endFill=0;endSize=8;strokeWidth=1;shadow=0;labelBackgroundColor=none;edgeStyle=orthogonalEdgeStyle;exitX=0.5;exitY=1;exitDx=0;exitDy=0;entryX=0.5;entryY=0;entryDx=0;entryDy=0;" parent="1" source="70" target="76" edge="1">
                    <mxGeometry x="0.3333" y="20" relative="1" as="geometry">
                        <mxPoint as="offset"/>
                        <mxPoint x="110" y="1118" as="sourcePoint"/>
                        <mxPoint x="110" y="1178" as="targetPoint"/>
                    </mxGeometry>
                </mxCell>
                <mxCell id="82" value="&lt;font style=&quot;font-size: 12px&quot;&gt;结束&lt;/font&gt;" style="ellipse;whiteSpace=wrap;html=1;aspect=fixed;fontSize=24;" parent="1" vertex="1">
                    <mxGeometry x="75" y="1468" width="50" height="50" as="geometry"/>
                </mxCell>
                <mxCell id="84" value="&lt;font style=&quot;font-size: 24px&quot;&gt;2. 被动检测（要与主动检测流程一致）&lt;/font&gt;" style="text;html=1;strokeColor=none;fillColor=none;align=center;verticalAlign=middle;whiteSpace=wrap;rounded=0;" parent="1" vertex="1">
                    <mxGeometry x="580" y="670" width="270" height="60" as="geometry"/>
                </mxCell>
                <mxCell id="86" value="Mindlinder&lt;br&gt;隔 x 小时发起检测" style="rounded=1;whiteSpace=wrap;html=1;fontSize=12;glass=0;strokeWidth=1;shadow=0;" parent="1" vertex="1">
                    <mxGeometry x="610" y="730" width="120" height="40" as="geometry"/>
                </mxCell>
                <mxCell id="87" value="No" style="rounded=0;html=1;jettySize=auto;orthogonalLoop=1;fontSize=11;endArrow=block;endFill=0;endSize=8;strokeWidth=1;shadow=0;labelBackgroundColor=none;edgeStyle=orthogonalEdgeStyle;" parent="1" source="88" target="91" edge="1">
                    <mxGeometry y="20" relative="1" as="geometry">
                        <mxPoint as="offset"/>
                    </mxGeometry>
                </mxCell>
                <mxCell id="88" value="检测ML单应用" style="rhombus;whiteSpace=wrap;html=1;shadow=0;fontFamily=Helvetica;fontSize=12;align=center;strokeWidth=1;spacing=6;spacingTop=-4;" parent="1" vertex="1">
                    <mxGeometry x="1074" y="1017" width="100" height="80" as="geometry"/>
                </mxCell>
                <mxCell id="89" value="No" style="rounded=0;html=1;jettySize=auto;orthogonalLoop=1;fontSize=11;endArrow=block;endFill=0;endSize=8;strokeWidth=1;shadow=0;labelBackgroundColor=none;edgeStyle=orthogonalEdgeStyle;" parent="1" source="91" edge="1">
                    <mxGeometry x="0.3333" y="20" relative="1" as="geometry">
                        <mxPoint as="offset"/>
                        <mxPoint x="1124" y="1277" as="targetPoint"/>
                    </mxGeometry>
                </mxCell>
                <mxCell id="90" value="Yes" style="edgeStyle=orthogonalEdgeStyle;rounded=0;html=1;jettySize=auto;orthogonalLoop=1;fontSize=11;endArrow=block;endFill=0;endSize=8;strokeWidth=1;shadow=0;labelBackgroundColor=none;" parent="1" source="91" edge="1">
                    <mxGeometry y="10" relative="1" as="geometry">
                        <mxPoint as="offset"/>
                        <mxPoint x="1288" y="1177" as="targetPoint"/>
                    </mxGeometry>
                </mxCell>
                <mxCell id="91" value="检测全家桶" style="rhombus;whiteSpace=wrap;html=1;shadow=0;fontFamily=Helvetica;fontSize=12;align=center;strokeWidth=1;spacing=6;spacingTop=-4;" parent="1" vertex="1">
                    <mxGeometry x="1074" y="1137" width="100" height="80" as="geometry"/>
                </mxCell>
                <mxCell id="95" value="" style="group" parent="1" vertex="1" connectable="0">
                    <mxGeometry x="1288" y="1022" width="150" height="70" as="geometry"/>
                </mxCell>
                <mxCell id="96" value="" style="verticalLabelPosition=bottom;verticalAlign=top;html=1;shape=process;whiteSpace=wrap;rounded=1;size=0.14;arcSize=6;" parent="95" vertex="1">
                    <mxGeometry width="150" height="70" as="geometry"/>
                </mxCell>
                <mxCell id="97" value="静默&lt;br&gt;ML单升" style="text;html=1;strokeColor=none;fillColor=none;align=center;verticalAlign=middle;whiteSpace=wrap;rounded=0;" parent="95" vertex="1">
                    <mxGeometry x="45" y="20" width="60" height="30" as="geometry"/>
                </mxCell>
                <mxCell id="98" value="" style="group" parent="1" vertex="1" connectable="0">
                    <mxGeometry x="1504" y="1142" width="150" height="70" as="geometry"/>
                </mxCell>
                <mxCell id="99" value="" style="verticalLabelPosition=bottom;verticalAlign=top;html=1;shape=process;whiteSpace=wrap;rounded=1;size=0.14;arcSize=6;" parent="98" vertex="1">
                    <mxGeometry width="150" height="70" as="geometry"/>
                </mxCell>
                <mxCell id="100" value="静默&lt;br&gt;全家桶升级" style="text;html=1;strokeColor=none;fillColor=none;align=center;verticalAlign=middle;whiteSpace=wrap;rounded=0;" parent="98" vertex="1">
                    <mxGeometry x="45" y="20" width="65" height="30" as="geometry"/>
                </mxCell>
                <mxCell id="113" value="&lt;font style=&quot;font-size: 12px&quot;&gt;结束&lt;/font&gt;" style="ellipse;whiteSpace=wrap;html=1;aspect=fixed;fontSize=24;" parent="1" vertex="1">
                    <mxGeometry x="1099" y="1277" width="50" height="50" as="geometry"/>
                </mxCell>
                <mxCell id="115" value="&lt;font style=&quot;font-size: 24px&quot;&gt;3. ML单升&lt;/font&gt;" style="text;html=1;strokeColor=none;fillColor=none;align=center;verticalAlign=middle;whiteSpace=wrap;rounded=0;" parent="1" vertex="1">
                    <mxGeometry x="10" y="1550" width="150" height="30" as="geometry"/>
                </mxCell>
                <mxCell id="117" value="Mindlinder" style="shape=umlLifeline;perimeter=lifelinePerimeter;container=1;collapsible=0;recursiveResize=0;rounded=0;shadow=0;strokeWidth=1;" parent="1" vertex="1">
                    <mxGeometry x="30" y="1630" width="100" height="370" as="geometry"/>
                </mxCell>
                <mxCell id="118" value="" style="points=[];perimeter=orthogonalPerimeter;rounded=0;shadow=0;strokeWidth=1;" parent="117" vertex="1">
                    <mxGeometry x="45" y="70" width="10" height="100" as="geometry"/>
                </mxCell>
                <mxCell id="128" value="判断是否会中" style="edgeStyle=orthogonalEdgeStyle;html=1;align=left;spacingLeft=2;endArrow=block;rounded=0;entryX=1;entryY=0;fontSize=12;" parent="117" edge="1">
                    <mxGeometry relative="1" as="geometry">
                        <mxPoint x="50" y="50" as="sourcePoint"/>
                        <Array as="points">
                            <mxPoint x="75" y="50"/>
                        </Array>
                        <mxPoint x="50" y="70" as="targetPoint"/>
                    </mxGeometry>
                </mxCell>
                <mxCell id="121" value="系统升级&#10;Server" style="shape=umlLifeline;perimeter=lifelinePerimeter;container=1;collapsible=0;recursiveResize=0;rounded=0;shadow=0;strokeWidth=1;" parent="1" vertex="1">
                    <mxGeometry x="210" y="1630" width="100" height="370" as="geometry"/>
                </mxCell>
                <mxCell id="122" value="" style="points=[];perimeter=orthogonalPerimeter;rounded=0;shadow=0;strokeWidth=1;" parent="121" vertex="1">
                    <mxGeometry x="45" y="80" width="10" height="90" as="geometry"/>
                </mxCell>
                <mxCell id="129" value="" style="html=1;points=[];perimeter=orthogonalPerimeter;fontSize=12;" parent="121" vertex="1">
                    <mxGeometry x="44" y="250" width="10" height="100" as="geometry"/>
                </mxCell>
                <mxCell id="133" value="请求更新信息" style="html=1;verticalAlign=bottom;startArrow=oval;startFill=1;endArrow=block;startSize=8;fontSize=12;" parent="121" edge="1">
                    <mxGeometry width="60" relative="1" as="geometry">
                        <mxPoint x="60" y="100" as="sourcePoint"/>
                        <mxPoint x="220" y="100" as="targetPoint"/>
                    </mxGeometry>
                </mxCell>
                <mxCell id="124" value="带otakey请求单应用检测" style="verticalAlign=bottom;endArrow=block;entryX=0;entryY=0;shadow=0;strokeWidth=1;" parent="1" edge="1">
                    <mxGeometry relative="1" as="geometry">
                        <mxPoint x="85" y="1719" as="sourcePoint"/>
                        <mxPoint x="255" y="1719" as="targetPoint"/>
                    </mxGeometry>
                </mxCell>
                <mxCell id="132" value="萌友" style="shape=umlLifeline;perimeter=lifelinePerimeter;whiteSpace=wrap;html=1;container=1;collapsible=0;recursiveResize=0;outlineConnect=0;fontSize=12;" parent="1" vertex="1">
                    <mxGeometry x="390" y="1630" width="100" height="370" as="geometry"/>
                </mxCell>
                <mxCell id="134" value="" style="html=1;points=[];perimeter=orthogonalPerimeter;fontSize=12;" parent="132" vertex="1">
                    <mxGeometry x="45" y="90" width="10" height="80" as="geometry"/>
                </mxCell>
                <mxCell id="138" value="单应用安装包" style="shape=umlLifeline;perimeter=lifelinePerimeter;whiteSpace=wrap;html=1;container=1;collapsible=0;recursiveResize=0;outlineConnect=0;fontSize=12;" parent="1" vertex="1">
                    <mxGeometry x="580" y="1630" width="100" height="370" as="geometry"/>
                </mxCell>
                <mxCell id="140" value="" style="html=1;points=[];perimeter=orthogonalPerimeter;fontSize=12;" parent="138" vertex="1">
                    <mxGeometry x="45" y="124" width="10" height="80" as="geometry"/>
                </mxCell>
                <mxCell id="141" style="edgeStyle=none;html=1;entryX=-0.4;entryY=0.525;entryDx=0;entryDy=0;entryPerimeter=0;fontSize=12;" parent="1" edge="1">
                    <mxGeometry relative="1" as="geometry">
                        <mxPoint x="264" y="1780" as="sourcePoint"/>
                        <mxPoint x="621" y="1780" as="targetPoint"/>
                    </mxGeometry>
                </mxCell>
                <mxCell id="142" value="下载并静默安装" style="edgeLabel;html=1;align=center;verticalAlign=middle;resizable=0;points=[];fontSize=12;" parent="141" vertex="1" connectable="0">
                    <mxGeometry x="0.2101" y="-3" relative="1" as="geometry">
                        <mxPoint x="26" y="-4" as="offset"/>
                    </mxGeometry>
                </mxCell>
                <mxCell id="147" value="&lt;font style=&quot;font-size: 24px&quot;&gt;4. 全家桶升级&lt;/font&gt;" style="text;html=1;strokeColor=none;fillColor=none;align=center;verticalAlign=middle;whiteSpace=wrap;rounded=0;" parent="1" vertex="1">
                    <mxGeometry x="25" y="2080" width="150" height="30" as="geometry"/>
                </mxCell>
                <mxCell id="148" value="Mindlinder" style="shape=umlLifeline;perimeter=lifelinePerimeter;container=1;collapsible=0;recursiveResize=0;rounded=0;shadow=0;strokeWidth=1;" parent="1" vertex="1">
                    <mxGeometry x="45" y="2160" width="100" height="360" as="geometry"/>
                </mxCell>
                <mxCell id="150" value="" style="html=1;points=[];perimeter=orthogonalPerimeter;fontSize=12;" parent="148" vertex="1">
                    <mxGeometry x="45" y="80" width="10" height="110" as="geometry"/>
                </mxCell>
                <mxCell id="152" value="系统升级&#10;Server" style="shape=umlLifeline;perimeter=lifelinePerimeter;container=1;collapsible=0;recursiveResize=0;rounded=0;shadow=0;strokeWidth=1;" parent="1" vertex="1">
                    <mxGeometry x="225" y="2160" width="100" height="360" as="geometry"/>
                </mxCell>
                <mxCell id="154" value="" style="html=1;points=[];perimeter=orthogonalPerimeter;fontSize=12;" parent="152" vertex="1">
                    <mxGeometry x="44" y="120" width="10" height="220" as="geometry"/>
                </mxCell>
                <mxCell id="158" value="调用全家桶检测" style="html=1;verticalAlign=bottom;endArrow=block;entryX=0;entryY=0;fontSize=12;" parent="1" target="154" edge="1">
                    <mxGeometry relative="1" as="geometry">
                        <mxPoint x="105" y="2280" as="sourcePoint"/>
                    </mxGeometry>
                </mxCell>
                <mxCell id="159" value="萌友" style="shape=umlLifeline;perimeter=lifelinePerimeter;whiteSpace=wrap;html=1;container=1;collapsible=0;recursiveResize=0;outlineConnect=0;fontSize=12;" parent="1" vertex="1">
                    <mxGeometry x="405" y="2160" width="100" height="360" as="geometry"/>
                </mxCell>
                <mxCell id="168" value="请求更新信息" style="html=1;verticalAlign=bottom;startArrow=oval;startFill=1;endArrow=block;startSize=8;fontSize=12;" parent="159" edge="1">
                    <mxGeometry width="60" relative="1" as="geometry">
                        <mxPoint x="-121" y="140" as="sourcePoint"/>
                        <mxPoint x="39" y="140" as="targetPoint"/>
                    </mxGeometry>
                </mxCell>
                <mxCell id="169" value="返回更新信息" style="html=1;verticalAlign=bottom;endArrow=open;dashed=1;endSize=8;fontSize=12;" parent="159" edge="1">
                    <mxGeometry relative="1" as="geometry">
                        <mxPoint x="48.5" y="190" as="sourcePoint"/>
                        <mxPoint x="-121" y="190" as="targetPoint"/>
                    </mxGeometry>
                </mxCell>
                <mxCell id="170" value="" style="html=1;points=[];perimeter=orthogonalPerimeter;fontSize=12;" parent="159" vertex="1">
                    <mxGeometry x="44" y="130" width="10" height="80" as="geometry"/>
                </mxCell>
                <mxCell id="162" value="系统升级&lt;br&gt;Viewer" style="shape=umlLifeline;perimeter=lifelinePerimeter;whiteSpace=wrap;html=1;container=1;collapsible=0;recursiveResize=0;outlineConnect=0;fontSize=12;" parent="1" vertex="1">
                    <mxGeometry x="595" y="2160" width="100" height="360" as="geometry"/>
                </mxCell>
                <mxCell id="171" value="" style="html=1;points=[];perimeter=orthogonalPerimeter;fontSize=12;" parent="162" vertex="1">
                    <mxGeometry x="45" y="203" width="10" height="80" as="geometry"/>
                </mxCell>
                <mxCell id="176" value="" style="html=1;points=[];perimeter=orthogonalPerimeter;fontSize=12;" parent="162" vertex="1">
                    <mxGeometry x="45" y="313" width="10" height="40" as="geometry"/>
                </mxCell>
                <mxCell id="177" value="下载并安装，下载和安装时，UI覆盖全屏，需展示下载和安装的进度" style="edgeStyle=orthogonalEdgeStyle;html=1;align=left;spacingLeft=2;endArrow=block;rounded=0;fontSize=12;" parent="162" edge="1">
                    <mxGeometry relative="1" as="geometry">
                        <mxPoint x="61" y="270" as="sourcePoint"/>
                        <Array as="points">
                            <mxPoint x="56" y="270"/>
                            <mxPoint x="81" y="270"/>
                            <mxPoint x="81" y="313"/>
                        </Array>
                        <mxPoint x="56" y="320" as="targetPoint"/>
                    </mxGeometry>
                </mxCell>
                <mxCell id="172" style="edgeStyle=none;html=1;entryX=-0.3;entryY=0.338;entryDx=0;entryDy=0;entryPerimeter=0;fontSize=12;" parent="1" source="154" target="171" edge="1">
                    <mxGeometry relative="1" as="geometry"/>
                </mxCell>
                <mxCell id="173" value="有更新，且非强制弹出升级弹框" style="edgeLabel;html=1;align=center;verticalAlign=middle;resizable=0;points=[];fontSize=12;" parent="172" vertex="1" connectable="0">
                    <mxGeometry x="-0.0782" relative="1" as="geometry">
                        <mxPoint as="offset"/>
                    </mxGeometry>
                </mxCell>
                <mxCell id="179" style="edgeStyle=none;html=1;fontSize=12;entryX=-0.296;entryY=0.688;entryDx=0;entryDy=0;entryPerimeter=0;" parent="1" source="154" target="171" edge="1">
                    <mxGeometry relative="1" as="geometry">
                        <mxPoint x="640" y="2460" as="targetPoint"/>
                    </mxGeometry>
                </mxCell>
                <mxCell id="180" value="有更新，且强制，弹出升级弹框，与非强制样式不一样" style="edgeLabel;html=1;align=center;verticalAlign=middle;resizable=0;points=[];fontSize=12;" parent="179" vertex="1" connectable="0">
                    <mxGeometry x="-0.3518" relative="1" as="geometry">
                        <mxPoint x="59" as="offset"/>
                    </mxGeometry>
                </mxCell>
                <mxCell id="183" value="系统升级&lt;br&gt;Viewer" style="shape=umlLifeline;perimeter=lifelinePerimeter;whiteSpace=wrap;html=1;container=1;collapsible=0;recursiveResize=0;outlineConnect=0;fontSize=12;" parent="1" vertex="1">
                    <mxGeometry x="740" y="1630" width="100" height="370" as="geometry"/>
                </mxCell>
                <mxCell id="184" value="" style="html=1;points=[];perimeter=orthogonalPerimeter;fontSize=12;" parent="183" vertex="1">
                    <mxGeometry x="45" y="250" width="10" height="100" as="geometry"/>
                </mxCell>
                <mxCell id="185" style="edgeStyle=none;html=1;entryX=-0.2;entryY=0.3;entryDx=0;entryDy=0;entryPerimeter=0;fontSize=12;exitX=1.1;exitY=0.29;exitDx=0;exitDy=0;exitPerimeter=0;" parent="1" source="129" target="184" edge="1">
                    <mxGeometry relative="1" as="geometry">
                        <mxPoint x="270" y="1910" as="sourcePoint"/>
                    </mxGeometry>
                </mxCell>
                <mxCell id="186" value="弹出正在更新Toast" style="edgeLabel;html=1;align=center;verticalAlign=middle;resizable=0;points=[];fontSize=12;" parent="185" vertex="1" connectable="0">
                    <mxGeometry x="0.0946" relative="1" as="geometry">
                        <mxPoint as="offset"/>
                    </mxGeometry>
                </mxCell>
                <mxCell id="187" style="edgeStyle=none;html=1;entryX=-0.2;entryY=0.913;entryDx=0;entryDy=0;entryPerimeter=0;fontSize=12;" parent="1" source="129" target="184" edge="1">
                    <mxGeometry relative="1" as="geometry"/>
                </mxCell>
                <mxCell id="189" value="弹出已安装，重启生效Toast" style="edgeLabel;html=1;align=center;verticalAlign=middle;resizable=0;points=[];fontSize=12;" parent="187" vertex="1" connectable="0">
                    <mxGeometry x="-0.1329" y="-2" relative="1" as="geometry">
                        <mxPoint x="61" y="-3" as="offset"/>
                    </mxGeometry>
                </mxCell>
                <mxCell id="190" value="&lt;font style=&quot;font-size: 24px&quot;&gt;5. 周边设备升级、驱动补丁（与全家桶升级一致）&lt;/font&gt;" style="text;html=1;strokeColor=none;fillColor=none;align=left;verticalAlign=middle;whiteSpace=wrap;rounded=0;" parent="1" vertex="1">
                    <mxGeometry x="30" y="2580" width="640" height="40" as="geometry"/>
                </mxCell>
                <mxCell id="201" value="" style="rounded=1;whiteSpace=wrap;html=1;" parent="1" vertex="1">
                    <mxGeometry x="80" y="450" width="260" height="170" as="geometry"/>
                </mxCell>
                <mxCell id="202" value="Mindlinder" style="text;html=1;strokeColor=none;fillColor=none;align=center;verticalAlign=middle;whiteSpace=wrap;rounded=0;" parent="1" vertex="1">
                    <mxGeometry x="180" y="410" width="60" height="30" as="geometry"/>
                </mxCell>
                <mxCell id="203" value="主动检测" style="rounded=0;whiteSpace=wrap;html=1;" parent="1" vertex="1">
                    <mxGeometry x="150" y="480" width="120" height="30" as="geometry"/>
                </mxCell>
                <mxCell id="204" value="" style="rounded=1;whiteSpace=wrap;html=1;" parent="1" vertex="1">
                    <mxGeometry x="440" y="450" width="260" height="170" as="geometry"/>
                </mxCell>
                <mxCell id="205" value="系统升级Viewer" style="text;html=1;strokeColor=none;fillColor=none;align=center;verticalAlign=middle;whiteSpace=wrap;rounded=0;" parent="1" vertex="1">
                    <mxGeometry x="680" y="410" width="60" height="30" as="geometry"/>
                </mxCell>
                <mxCell id="206" value="" style="rounded=1;whiteSpace=wrap;html=1;" parent="1" vertex="1">
                    <mxGeometry x="440" y="560" width="260" height="60" as="geometry"/>
                </mxCell>
                <mxCell id="207" value="" style="endArrow=none;html=1;entryX=0.5;entryY=0;entryDx=0;entryDy=0;exitX=0.5;exitY=1;exitDx=0;exitDy=0;" parent="1" source="206" target="206" edge="1">
                    <mxGeometry width="50" height="50" relative="1" as="geometry">
                        <mxPoint x="560" y="610" as="sourcePoint"/>
                        <mxPoint x="610" y="560" as="targetPoint"/>
                    </mxGeometry>
                </mxCell>
                <mxCell id="208" value="取消" style="text;html=1;strokeColor=none;fillColor=none;align=center;verticalAlign=middle;whiteSpace=wrap;rounded=0;" parent="1" vertex="1">
                    <mxGeometry x="477" y="577" width="60" height="30" as="geometry"/>
                </mxCell>
                <mxCell id="209" value="下载并更新" style="text;html=1;strokeColor=none;fillColor=none;align=center;verticalAlign=middle;whiteSpace=wrap;rounded=0;" parent="1" vertex="1">
                    <mxGeometry x="601" y="578" width="70" height="30" as="geometry"/>
                </mxCell>
                <mxCell id="210" value="系统升级Server" style="text;html=1;strokeColor=none;fillColor=none;align=center;verticalAlign=middle;whiteSpace=wrap;rounded=0;" parent="1" vertex="1">
                    <mxGeometry x="1170" y="410" width="60" height="30" as="geometry"/>
                </mxCell>
                <mxCell id="211" value="以下为提供给Mindlinder的接口&lt;br&gt;&lt;br&gt;1. 检测单应用：传入Mindlinder的otakey，返回更新信息，请求方决定是否调用下载和安装&lt;br&gt;2. 检测全家桶： 返回更新信息，弹出Viewer更新提示框&lt;br&gt;3. 检测周边固件：返回更新信息，弹出Viewer更新提示框&lt;br&gt;4. 下载单应用并静默安装：传入下载链接，并自动静默安装&lt;br&gt;5. 取消" style="text;html=1;strokeColor=none;fillColor=none;align=left;verticalAlign=middle;whiteSpace=wrap;rounded=0;" parent="1" vertex="1">
                    <mxGeometry x="1070" y="590" width="520" height="130" as="geometry"/>
                </mxCell>
                <mxCell id="212" value="Toast 提示" style="html=1;dropTarget=0;fontSize=12;" parent="1" vertex="1">
                    <mxGeometry x="740" y="450" width="180" height="90" as="geometry"/>
                </mxCell>
                <mxCell id="213" value="" style="shape=module;jettyWidth=8;jettyHeight=4;fontSize=12;" parent="212" vertex="1">
                    <mxGeometry x="1" width="20" height="20" relative="1" as="geometry">
                        <mxPoint x="-27" y="7" as="offset"/>
                    </mxGeometry>
                </mxCell>
                <mxCell id="214" value="WinfamilyUI&lt;br&gt;升级全屏覆盖窗口" style="html=1;dropTarget=0;fontSize=12;" parent="1" vertex="1">
                    <mxGeometry x="740" y="560" width="180" height="90" as="geometry"/>
                </mxCell>
                <mxCell id="215" value="" style="shape=module;jettyWidth=8;jettyHeight=4;fontSize=12;" parent="214" vertex="1">
                    <mxGeometry x="1" width="20" height="20" relative="1" as="geometry">
                        <mxPoint x="-27" y="7" as="offset"/>
                    </mxGeometry>
                </mxCell>
                <mxCell id="216" value="有新的更新" style="text;html=1;strokeColor=none;fillColor=none;align=center;verticalAlign=middle;whiteSpace=wrap;rounded=0;fontSize=12;" parent="1" vertex="1">
                    <mxGeometry x="530" y="460" width="80" height="30" as="geometry"/>
                </mxCell>
                <mxCell id="217" value="被动检测" style="rounded=0;whiteSpace=wrap;html=1;" parent="1" vertex="1">
                    <mxGeometry x="150" y="545" width="120" height="30" as="geometry"/>
                </mxCell>
                <mxCell id="218" value="检测" style="ellipse;whiteSpace=wrap;html=1;aspect=fixed;fontSize=12;" parent="1" vertex="1">
                    <mxGeometry x="1060" y="460" width="80" height="80" as="geometry"/>
                </mxCell>
                <mxCell id="219" value="取消" style="ellipse;whiteSpace=wrap;html=1;aspect=fixed;fontSize=12;" parent="1" vertex="1">
                    <mxGeometry x="1190" y="460" width="80" height="80" as="geometry"/>
                </mxCell>
                <mxCell id="222" value="Yes" style="edgeStyle=orthogonalEdgeStyle;rounded=0;html=1;jettySize=auto;orthogonalLoop=1;fontSize=11;endArrow=block;endFill=0;endSize=8;strokeWidth=1;shadow=0;labelBackgroundColor=none;" parent="1" edge="1">
                    <mxGeometry y="10" relative="1" as="geometry">
                        <mxPoint as="offset"/>
                        <mxPoint x="1288" y="1056.5" as="targetPoint"/>
                        <mxPoint x="1174" y="1056.5" as="sourcePoint"/>
                    </mxGeometry>
                </mxCell>
                <mxCell id="223" value="Yes" style="edgeStyle=orthogonalEdgeStyle;rounded=0;html=1;jettySize=auto;orthogonalLoop=1;fontSize=11;endArrow=block;endFill=0;endSize=8;strokeWidth=1;shadow=0;labelBackgroundColor=none;" parent="1" edge="1">
                    <mxGeometry y="10" relative="1" as="geometry">
                        <mxPoint as="offset"/>
                        <mxPoint x="264" y="947.5" as="targetPoint"/>
                        <mxPoint x="150" y="947.5" as="sourcePoint"/>
                    </mxGeometry>
                </mxCell>
                <mxCell id="228" value="" style="rounded=0;html=1;jettySize=auto;orthogonalLoop=1;fontSize=11;endArrow=block;endFill=0;endSize=8;strokeWidth=1;shadow=0;labelBackgroundColor=none;edgeStyle=orthogonalEdgeStyle;exitX=0.5;exitY=1;exitDx=0;exitDy=0;" parent="1" source="49" target="229" edge="1">
                    <mxGeometry relative="1" as="geometry">
                        <mxPoint x="250" y="720" as="sourcePoint"/>
                    </mxGeometry>
                </mxCell>
                <mxCell id="235" style="edgeStyle=none;html=1;entryX=0;entryY=0.5;entryDx=0;entryDy=0;fontSize=12;" parent="1" source="229" target="234" edge="1">
                    <mxGeometry relative="1" as="geometry"/>
                </mxCell>
                <mxCell id="229" value="判断是否会中" style="rhombus;whiteSpace=wrap;html=1;shadow=0;fontFamily=Helvetica;fontSize=12;align=center;strokeWidth=1;spacing=6;spacingTop=-4;" parent="1" vertex="1">
                    <mxGeometry x="50" y="800" width="100" height="80" as="geometry"/>
                </mxCell>
                <mxCell id="230" value="No" style="rounded=0;html=1;jettySize=auto;orthogonalLoop=1;fontSize=11;endArrow=block;endFill=0;endSize=8;strokeWidth=1;shadow=0;labelBackgroundColor=none;edgeStyle=orthogonalEdgeStyle;exitX=0.5;exitY=1;exitDx=0;exitDy=0;entryX=0.5;entryY=0;entryDx=0;entryDy=0;" parent="1" source="229" target="52" edge="1">
                    <mxGeometry y="20" relative="1" as="geometry">
                        <mxPoint as="offset"/>
                        <mxPoint x="110" y="998" as="sourcePoint"/>
                        <mxPoint x="110" y="1038" as="targetPoint"/>
                    </mxGeometry>
                </mxCell>
                <mxCell id="231" value="" style="rounded=0;html=1;jettySize=auto;orthogonalLoop=1;fontSize=11;endArrow=block;endFill=0;endSize=8;strokeWidth=1;shadow=0;labelBackgroundColor=none;edgeStyle=orthogonalEdgeStyle;exitX=0.5;exitY=1;exitDx=0;exitDy=0;" parent="1" target="232" edge="1">
                    <mxGeometry relative="1" as="geometry">
                        <mxPoint x="670" y="770" as="sourcePoint"/>
                    </mxGeometry>
                </mxCell>
                <mxCell id="237" style="edgeStyle=none;html=1;entryX=0;entryY=0.5;entryDx=0;entryDy=0;fontSize=12;" parent="1" source="232" target="236" edge="1">
                    <mxGeometry relative="1" as="geometry"/>
                </mxCell>
                <mxCell id="232" value="判断是否会中" style="rhombus;whiteSpace=wrap;html=1;shadow=0;fontFamily=Helvetica;fontSize=12;align=center;strokeWidth=1;spacing=6;spacingTop=-4;" parent="1" vertex="1">
                    <mxGeometry x="620" y="800" width="100" height="80" as="geometry"/>
                </mxCell>
                <mxCell id="233" value="No" style="rounded=0;html=1;jettySize=auto;orthogonalLoop=1;fontSize=11;endArrow=block;endFill=0;endSize=8;strokeWidth=1;shadow=0;labelBackgroundColor=none;edgeStyle=orthogonalEdgeStyle;exitX=0.5;exitY=1;exitDx=0;exitDy=0;entryX=0.5;entryY=0;entryDx=0;entryDy=0;" parent="1" edge="1">
                    <mxGeometry y="20" relative="1" as="geometry">
                        <mxPoint as="offset"/>
                        <mxPoint x="1124" y="987.9999999999998" as="sourcePoint"/>
                        <mxPoint x="1124" y="1016" as="targetPoint"/>
                    </mxGeometry>
                </mxCell>
                <mxCell id="234" value="&lt;font style=&quot;font-size: 12px&quot;&gt;结束&lt;/font&gt;" style="ellipse;whiteSpace=wrap;html=1;aspect=fixed;fontSize=24;" parent="1" vertex="1">
                    <mxGeometry x="250" y="815" width="50" height="50" as="geometry"/>
                </mxCell>
                <mxCell id="236" value="&lt;font style=&quot;font-size: 12px&quot;&gt;结束&lt;/font&gt;" style="ellipse;whiteSpace=wrap;html=1;aspect=fixed;fontSize=24;" parent="1" vertex="1">
                    <mxGeometry x="827" y="815" width="50" height="50" as="geometry"/>
                </mxCell>
                <mxCell id="238" value="Yes" style="edgeStyle=orthogonalEdgeStyle;rounded=0;html=1;jettySize=auto;orthogonalLoop=1;fontSize=11;endArrow=block;endFill=0;endSize=8;strokeWidth=1;shadow=0;labelBackgroundColor=none;" parent="1" source="239" edge="1">
                    <mxGeometry y="10" relative="1" as="geometry">
                        <mxPoint as="offset"/>
                        <mxPoint x="1502" y="1176" as="targetPoint"/>
                    </mxGeometry>
                </mxCell>
                <mxCell id="241" value="" style="edgeStyle=none;html=1;fontSize=12;" parent="1" source="239" edge="1">
                    <mxGeometry relative="1" as="geometry">
                        <mxPoint x="1340.2857142857142" y="1272" as="targetPoint"/>
                    </mxGeometry>
                </mxCell>
                <mxCell id="239" value="是否强制" style="rhombus;whiteSpace=wrap;html=1;shadow=0;fontFamily=Helvetica;fontSize=12;align=center;strokeWidth=1;spacing=6;spacingTop=-4;" parent="1" vertex="1">
                    <mxGeometry x="1288" y="1136" width="100" height="80" as="geometry"/>
                </mxCell>
                <mxCell id="242" style="edgeStyle=none;html=1;entryX=1;entryY=0.5;entryDx=0;entryDy=0;fontSize=12;" parent="1" target="113" edge="1">
                    <mxGeometry relative="1" as="geometry">
                        <mxPoint x="1281" y="1302" as="sourcePoint"/>
                    </mxGeometry>
                </mxCell>
                <mxCell id="245" value="" style="shape=image;imageAspect=0;aspect=fixed;verticalLabelPosition=bottom;verticalAlign=top;image=data:image/png,iVBORw0KGgoAAAANSUhEUgAAA9MAAAB+CAYAAAAnZ0LoAAAAAXNSR0IArs4c6QAAAERlWElmTU0AKgAAAAgAAYdpAAQAAAABAAAAGgAAAAAAA6ABAAMAAAABAAEAAKACAAQAAAABAAAD06ADAAQAAAABAAAAfgAAAABMgZAkAABAAElEQVR4AezdBbgsR5U48IbNOrpBEwLBJXhwDRCCu/vDHRa3AMHd3YO7uwd3d88msMCyWFhf9t//86vkTOrW65k7c9+7L0/qfF9P91RXVXefOnW8uk901M9/Ne6372mHXQH+7//+b/iv//qvcqt/8zd/M/z3f/93Of67v/u7wbn//M//HE50ohMNzp34xCce/uM//mPNY/393/99+f///t//K3X9Ufcv/uIv1tQbx3H4n//5n8He+Z0Fjv7Fr4ddZax2FpztyveB/tD1XnvttUs8RqfPXWKY+k3uYhjo82oXG7B+u7sVBuiC//u//1v0xNQHyeZav/zrv/7ronPSO1ugp/75z38u5+medFQ6a4eOge2NAXSWtou+0Rl6AzUd/u3f/m0pW/YHvbOv7NG49ruafrrssy5br5XLW8/8ZXvawfVaQ5oBnAPrVvxPIxrxJKP7q7/6q3KnyeTWM6RV1h5zTMZZOug/HQM7GAPocFcxpHcwavrlOgY6BjoGOgY6BjYdA3/5l39ZrkEHpXMCRkse0zH9Z2yoQ8dkfIPWgKGHZrtSoflZdK6p2v92DGyFAbSXNFQb0iqmLVTX2aqDOQV0UQa0fdpQXT9di6xdwpiuDWkDynA2oMCAJjA8GMGYGnCc5xGSfvIcQ7mNSGc/fd8x0DHQMdAx0DHQMdAx0DGwZ2OADpnBG0YzoGsysnOfBgxjWfYkY7o1pLVLYzrrKwP0WQGgDAIdW9p/OwaWx0BmUGjRGtLKajpOZ4/yZUF79hcatnVYi4GSP5oG59pTJ/w/DOzUpz71cJKTnKR4WzCpX//61+X49Kc/ffG0IIp//ud/LmV77733cPKTn3zmGfz9738/nPa0py1MT718Tga1fpIxnvBP2u+gY6BjoGOgY6BjoGOgY6BjYGfCAL2RHspAYTz/6le/Gv7t3/6tGNh0VIEa+iiD+JhjjhlOcYpTzHRLBjf9VH1tz3CGMxRD5N///d8H28lOdrKy0UkZ3/7/67/+60B3bQ3unQkn/V52HgwwcPfZZ5/iwBFA/MMf/jD89re/nQUc804ZwKc5zWlmS1t/+ctfruu8Qd9oGG2iR3PBPKgDnNn/nriPZdKzxy7G9M4+aQ2kAa29IQxrA5oemEw98GQICuMCmFga0f7vyhFpz7GzjxUcd9gzMdDpc88c9/7Um4uBPq82F7+9946BZTAgakz/ootmyqx2qXvSTxk2DGO6KUOEvlnrn/RWQRx9qKM/mzp0Vv3W9Ze5r15nz8bAehHpFjucOCDfIdWer/8LQqJrtNxhLQbM0/odVrvEm40YxzVgPhiRh7H5n+nbtSGtDSLIuhhVJ4oak/24Y6BjoGOgY6BjoGOgY6BjYBEGMkLHeAFpUKdRnMEee2WZuk0/VWZvA5kpSX/Vr81xh46BVTCAFm1oZ1nbJm0mNDqvjT45fdBrt5uWG5FdwphuHyWZGUIw2LnOpDWkk6FlewyM968zrcRI33cMdAx0DHQMdAzsOAxwfKdR4aqp3Nm3kbwdd1f9Sh0DizGQxrJaqYMyNNAy2k3DxLEt6zvPsM5y7bsBDQsdtgUDaDCdMvph77CF2DhtALK+DjpEj1OgPxuaTbq277A+BnZJYzrXOmNkSRRThrSUGiD1BuEhNoJcaniHjoGOgY6BjoGOgY6BzcUAec3QoMSBVNTyqqmspfKW5X3fMXBCYcDSQvoi3THptqZh98XoAPRQW0LWZzDnckPn9EcnVV7Xz3Z93zGwLAbSkFZfujbemTSL3ybPRX81DaqPPm1sJw4fdIw2/U9erJ52aDWdRMo6zMfALmdMpyGNCBCEgc510/mYiCIN6VwjjSnmehUGtf8dOgY6BjoGOgY6BjoGNgcDKXPJ21TK0plNiaMUkuNtJIUMT6Vvc+6s99oxMI0BNJl6ZlsjjRBGBgOkNqizbhokuc9y/SrLeZDlfd8xsAoGarpLXoou2Tp5zj6N6uSj9uymNJrRY9Kk6+f5NKL977A8Bjbl/eYGa1tA+0zdnuoHQdTelnrQtc3104hL3QQCW91tvb/sb2fbmxgm0UYhHRAbbd/bdQzMw4A3mrb05UUY3jq5KrRKyqrte/2OgY6B4zFA1i6St8fXXP0oZXM7Z8lg8sr52tAWXcn72RZZtvqd9hYdA8emb6eB3AZp4KfWO9Et+k2nUOIvab02mpWl3lmXZ5u+7xhYhAGGcU0/Mhum6BNtsXtEq+tsXfSXBnb243rKteEc0k6f+k6+veie+rm1GFg3Mg3x3/nOd4Z3vvOdw+tf//rhJS95yfDpT3+6KMaPeMQj1vYW/7xu/ZznPOfw/e9/fzjqqKOGT37yk1vVucxlLjNc6lKXWlP+rGc9azjlKU853PrWtx5+9rOfDWc729lmKQf3vOc9h6te9arDNa5xjcLMMLTXvva1wz/90z/N+mA0I4QtW7YU4kAYiOSAAw4Ynv/85w+Xv/zlZ17EWaPd7OAqV7nK8MAHPnC42tWuNrz3ve8dvvGNb2z1hGc84xmHW9ziFsMHPvCB4cpXvvIa4XCBC1xgeOpTnzpc61rX2qpdL+gY2CgGfObjXOc61/Dyl798uOENbzjr5mlPe9rw8Y9/vGyzwuMO/vjHP5a0pSzH7PGHd7/73cP973//4Xvf+94aR1nW6/uOgT0BAz/96U+HN7zhDUs/Kt5Ofk7BYx/72BLFOOSQQwr/f+Mb31g+MTlVd9WydGangaE9pS4dawwSxkitLFLktOsK3arY7vW3BQOcO4sMaX3TKdElvdienomWsx1DRJ2Wfp03B3p697aM0J7ZNvll2jiwQB9aD9TJemgPzdoyGl0b2+v11c+vj4Hjw7ZVXYLtDne4w3DggQcWxnD+859/+OEPfzhQfi960YuW7+P55NQUPPOZzxwucYlLlO+eYTLaPehBDyrfPvP9sxe96EXD1772ta2aHnTQQcMDHvCA8p2++uRnPvOZ4U1vetPgfA360TeGhnlhUs95znOKUHbuda973aw6InQviAi0KWWzirvowU1ucpPhHe94R7n7t7/97QPHhO9oe2bfLHzYwx42/O53v5vhQPkjH/nI4V73utfsidWHz3Oc4xyz9JBME+kRghma+sEGMHDooYcOf/rTn4Yb3ehGZb76luajHvWoorgfccQR5dua5rFyij2g+HOo+U68jYMHHT74wQ8udIoP4U+2H/3oRxu4q96kY2DXxQDlyJzJjeP0la98ZflfH+d5MnI94HDee++9h8td7nJFbqxXf5nzaVSkMW0OyxxzXxnZc85G8cvoCMf4Mve8zD30Oh0DiYGkw/yf+9qQRnfocwqcywxH59F30jGDWT9tmqxrOqfPNG6m+u5lHQMtBtKQRjt440ZBe7SLNtFj/t9of73d1hiYjExDuEjwda973fIB+ste9rLDi1/84nUH81/+5V+GJz/5ycNHPvKRWXT53ve+d4kmPf7xjy9XF+G+0IUuNLsTbT70oQ+V/xRmRnB+B+01r3nN8Ktf/apEUhmJ4PrXv36JQDu+1a1uNVzpSlcq3haG+gte8IJyjyLWmBzIVAiGIQLaHb0x+eIBzwufJz3pSYsDg9Iiyv+MZzxjuNvd7lYm0+lPf/rieBDhu8hFLjKIVDNQPvvZz2peIojloPq5613vWqL7VVE/7BhYCgNf+cpXCu28//3vH97ylrcURZqz621ve9tw6lOfevjJT35SDOeb3vSmw53udKc1jq6PfvSjZX5/7nOfG+585zsPMmG++93vFl50vvOdbxBBe9/73jfsu+++S91Lr9QxsLtg4KxnPesgE8ncABR6cptDqj527lSnOlWR546f8IQnDL/5zW8czuATn/jEzIHKmP7mN79ZnF0Xv/jFh1ve8pazessciHyk7G3rU+I4clMOZz2O8NrBnUZJZpe1/fT/HQMbwQD6yyWAaVjY05/ohwkMGJtzU2Ce2RLQszmnb7QL6gg0mndtZep26BhYBgNpSKuLvpJfLtN2Xh19osHc5tXr5atj4HiO0LTNdEwRy2VBZPh617vecMUrXnFggEvZlmadYC0UZVjKWQLBTmlO0Ic6gGEtKgWyzrWvfe3y3491mIxFDAzDwswQHIGekMI9Gd72IMjse2fYez5bCoPb3/72Jc37xz/+8XDuc597OM1pTlO2S17yksXQhkfjA6+cHne5y10GafQMnMMOO2y4733vW9L6tSVMpIJf+tKX3hketd/DLogBdMSIlq2y//77D495zGPKPJWF8qQnPal46kWpP//5zxcanue5l6Fie+hDHzo88YlPHF796lcPL3vZy0qKOIdZh46BPQ0DjGBLr655zWuWzC8ywDsIOJbzmHy0TEv2EsD3a8NVWSpqZzjDGfwtGWhkimUVqwD5q132p23KW+VpyLRGcm1guG/GDSDX5xk0pUL/6RhYAQMMCUYtQFv+M4pTdyJHRJaTBleRK2gYXdNDa4Pa9dC+8/Nk2wqP0KvuIRhYz5B2Hp2hq5afL0KRdqDz1UVY2uC5o37+q5jv8yEiw7jPGIJwVikiRGMow7P/Dn7xi1+UeiGQxzDgxkjDHIMpjRE5KuURgRojpbMcX/jCFx6f+9znrmkfTGh83vOeV9pG9HpW7+Y3v/n44Q9/uPRVN7jxjW88nuUsZxlDWI9nOtOZxjAWx7Of/exjMMPxHve4xxjR2FL9POc5zxhKR910lz02Di3EGueCK+fqLZwSBZfGINaMj6GgjGHQjGFMt12MEaUeI5o9HnPMMWOsby39RHbAGBH+chwp4lu16QUdAy0GpugzImdr6LKm0anjWBJSug0HzvjFL36x0OW3v/3t0f9I5y7ntmzZUvqM9wO0t9D/dwzsdhiYmlce8ulPf/p4n/vcpzxvrJ8eYxnFVsfxzpIii8uJ+InlFqM5hr8nPOQhDymyIZT+UvTmN7+5zLdQvLLKUns6gv7JmhpiSdhoc458ngehHJZ67k3dcL7Pq9rLOwY2jAF0hlbRV9Jm0r5Ok/7UWxXMGe31S6cFyladS6tet9ffdTFAR6/tK/+TLlu6cS7pC490vApkv/rpsG0YaOXyZGT6Xe9613Cd61wn6h4PvM0tPOUpTylFoqHSwK3blcpy9atfvbzgivcjjOxSRyq3VE4vJgtDePaCE2t5rbMWGVX+9a9/ffZm0S996UvDBz/4weHRj370cNvb3nYIxaFETnUoxROIVIfBXfouBRM/gbKJ0t2jyLpn69uBqL61puFkGI4++ugSBeQVleK9KF3Py8qMpfRwL7YBxltqrpeZrRqhKB30n46BwICIdAiEkkFSI8QLCC3LqLNUTn7yk5eU1KwXRnNZa21+o82TnOQkw93vfvfh8MMPH25zm9uU9uqKcktl7dAxsKdhwBKel770pWWeeHZp3qFkFTQ4Bl7+lyAS99WvfrXIWkstyOtQrEpmCJnq/O1ud7vywtGMKmfb9fYib/oSMck0V//JXxEUZY5lqImm0A/IJ9fRRlRQPbInlMtybr1r9vMdA6tiAI2jOzQHcilg9oOO0aLz6q4CaDkj1Gjf/x6RXgWDe15ddIZW8Dy0IrsBpM3lPB3KlpD8dBX61D55cY9MJya3336SUzCgvJUbfOpTnxoYyz/4wQ+KoFNm/bMB9hIrgHlgGtLNGOHSMCnJ4TUpgtuaW+ufrYmUmm1NlpecAEJVapo3hEdkuZQxwKWLIxj3YpMGmmu9pK1RIsAR8QIj15GyDPIFRuXPHvBj8nlb+X777Vfe4C29Xuq2N6aDRY4EE9iadmm21soBaYHAWlTrVK1L79AxsC0YICS8TCyyRGbdWNvPCMY7AOcP4/nZz372rE5EzAr94TM3uMENBuv9GdE///nPyzrpxz3ucWW9fzqPGOMdOgb2FAxEBlaRqZ4XvyanOavbeUCOJphvb33rW8u7CLQ3nzhSOWHJAnOVLL3YxS6WTZbeU9DoAWQO2ULRc23lyhjT+nesXh6n8aIuBdLeeX2oW9+/m2HoUAxT2Vz6BnvFjoHj6If+ClpDWhm6RWMM7in6U2cRoF3zDH077tAxsAgDSSvojSGN39nSqK7b4qX46EboKp2V+uiw/TEwaUwTbqc73enK1RjR3uZNkU0QqcQosk6WM75EORHHKU5xiiKkv/CFL5Sos8/iWAPtf6R5lxdfaedt0wxALyqygS9/+ctlfWRGn0vhcT8i2aJQ3jyK2KybZHhTIKzRtqZyTwLj4KUy1qUCDgefTBHFB2kcTyke8MsZIaKdk5PzBMAjJ8Yq64ZKw/7TMTAHAzJN0BMFBe/weTuRa8ABx9FWg0/siUjbe3s35d8XBWS+1OAzb60BUZ/vxx0DuxsGZII9/OEPnz0W5xSoX+45OxkHXiYm4wyYU+aMr2Tg8eYWRxdHeCy/KplNpeIGfih61jxT3BglFDeyx5wHFEZAWVRmSyUvDelS4bg66qcxzrhWN0Hb1tDOc33fMTCFAfSzyJDWBk2hXfRmow+vCvSpKUN91X56/T0DA2gs3xWRT4zvoSN7NJnbIifPPJ7I+Zi8d5U11nkvfb8+BiaN6bqZ9GzG7jLgQ+GiRd4SLW2b4Sv6dMELXrB8/5hAJ/TzZWL6FJHiVU/A6PL7mdpe4QpXyFNl70VasUa6RKy8gMVLUyjZgDGNCe5J8J73vKcYEgcd9+kwabDSYtO4YByL3LV4ISS8Hdl4pSFtvKTeeqmNF0VJA8wX0e1JOO3PunkYkIJqWQI+4FNZnEAcat7ynzQ8dXVKus+2xZqfmeNIPY65M5/5zFNNelnHwG6LATxeJhjAqzmiffGCwkVpkqq9zz77lCwydVqDgMM63jlQePzHPvaxYjSYl+YhOU3ue2P4qkDOUAopdRQ4iiDI+8rj3LtX8qc1pJ1P4DTXF9CvPvEDfXboGFgWA8sY0tkXGlvFmFa31bE6fSY2+34RBvC25JlZD+0ISraAXwqggdZZox+8Eq/HH2tgV+GdeG2nyxoz2+94oeUptZoxlsbtepf1fWODKfr8whe+sKyN8rkrTCaFIa+4SHeCdORMSUZQDGhKc7yMrHwSKyNSLQEgjMMOO2yWhpz9E8reVr2nrPOFX/gyeUQWpODHS8nK+tLDY20pp8bBBx9cIs0+gXXe8563oD5eMlP2aSzDJ2WKc8LadXsRQArVvGhHjmHfdwwswgBPqMiz5RnW7kspxQc4ftDfP/zDP5R3H8hsqUE6KuPbPoGA6fSY2Oj7PRUD3h9go8QzEnwO0twi+ziqfHKOoyrXTSeeOKMY0ZZdOU82MKYBGStavWXLljLHOL3J31WBMuee6ALkcTprU0bXBra+yZ42JTbrpuLo3mzmf7Zf9b56/T0XA7UhTR61+mSLmXQKZTSvPZ//GSlpqOiz02Zipu+XwQA+h08CfNKGH6bRjH8mZJnzaC33zjuX/bQ06JzraNOj0onN7b+fu6Dja1/72nDIIYeU7xXzcK8HhDdPucH3wispndKHrWEmuK2ZlJpNkaYMWzed4FMejDtGNgNeOhohbx21l5NREBj01kYDRJTfnLWuEnipCqCYS/s+KCK1XnQi6rUe4ywNd9EfyoUJIipvHbkov5R8OBJdoCj53JW1dAwaRjcFjCPi0EMPLY6Oo446qqT7GTPRDROag8N5Y2ZMOnQMbBQD3/jGNwo/sA5Tamq8hbjwCfPavOWw4YjjQGMUJFiigHZ95i3BfMYLcsvy3W1v/nIu1huFsFYKd7dn7s+zOgYo/fi+JVSMWHLRi0At9yEb423eM0e23vFzsvdb3/pWke/K4gsOdgVEO2Qm3fGOdyzyHL2tCuRHKnuMYcocyH3K49w7h94pfGSTvf/A85FZ7svWKoqlUv/pGFiAgeSZaMrG6ECX6GwR1PTZ1mNA0y/1nXSdNNvW7f87BqYwgP7QIrqhx9ujuXRAoqt0JtbH6tjwWVCfm3I2uk626fxzaiS2U9nUp7G8bt3nreJN0ZOv9J/6NFa8FGiMt4qORx55ZNDEOMaLTcYwpMtnl+JWx1gzXcpjYMdQqMsnb1wnBDepOYYhPcY6sK0+gaVOfFO2fN5DPZ/LCeO83F9EusZQuMsnspyLt36Xa7gHn8Ty6SzloYCX8l39x7O0EOl95Rnh1KetQKRrF/yGQ2EMQ6aUxaQdY33cGJHsMd7YPcb3o8unG+BKvxHVHo1hC+HMmH02qz3X/3cM1BiYok+f1oso9Hi/+91vjIjZrDr+Ehkss/+RdjqGE6xsCn0Gy9wHIVAKzfrMlr4ixXW2uWastS71dvWfMCRmj+DYpy/yUxaOc0u8zCr3g90aA1PzCg3g5+aR83h9vKhvDCO54ML8iRdLjvmpyjCwSzl5EQZAOfaJrFjCVdqnfK4ROSUP6vOOw6hY81mXPF/TrWP0HErfbK+e+3BOHwn0A3WV+3RRh46BbcFAOCNnPBT9oTW0lbwVjdX0V1/LHFM3AV3So5QnL7b3P+dU1u37joFFGEgeh77wPLTpuKYjtGlz3jlb0rM9qM/ps8OOw0Arl0/EmN5v39NG+Vrw4jEv/pkC52IQ17ydt63H283DwrMs2tSuvwojuKx1VM9a3fZ825//POoHHHBA8eBIZRMxD9SVt/t6GzXPNeCpEQ0D1gvn+uFSsAv/8C553hZ+/etfD6c97doxFImuP4miTUzMQd12jakshEWpsyKDMgs6dAwswsA8+kR3OTezvRcVevlYvkU+y0MgFJ6R/+t9KC0lw+LAAw+cFcuasG66XSM0q7CLHGQEz3snEsx1vAxObPCLn9q3a2CzTd/vfhiYN6+OiJdH4vtk3Lz0PfQjw0vWl5eC1iCbjDxQXr9pv66z6BhNypwAGU3J+uY8+hUJoStM1QkjpkT2zN2anvWpb8+E3jt0DGwEA2GYTL5sDF2iPTTm2GaO5YZmHWsPkobVqwFtotse7aux0o/XwwB+KCINkm8mrba8EP/O6LSos//qaoces5+piPR699HPbxsGWrk815jetsv01puBgXbwNuMavc+OgY1ioNPnRjF3rKOLcOR0gMeENFiUpUNCPQKZQki41gZ4tuv73QcDO+O8SrqE5Smjl0GMPimH7j8Nk1QetUujuVUEGeLo2prwDh0Dq2AAb0z+6ZghguayrO7LeXRsQ28g29f7bKMPqbWM6HRq5rm+7xhYBgNThrR2yQtr/ogm05BOHos3okN8tRvSy2B88+oYB3wiobt9ExN93zHQMdAxsBNhgDAlZDFtQpZxYqsZuNtNxW8nuvV+K7sxBtYzpD26aF0aKYxlwKBO44ZRkls5edyPNui5R6RrrPTjZTCAX6aBkU7JdEBOtcdXRZYzK0L7zKJwjBazDnruEegpLPayjWAAT8w1z9on3aE3gP5aQ1pZyvqk89YRWRr3nxMEA92YPkHQ3i/aMdAx0DFwPAYI1jQ+KG0pTNOQtk9D2jFjQ5tudByPw360+RhAoxw8AO3Noz/laNgGGCzoVts0qGtDRh2KovP2Ii8dOgaWxQA6Y2BsC+3Uzp3M/FHWaXHZUej11sMA2d5mkqFddOscHul/a0jX/aJN9bohXWPlhD/uxvQJPwb9DjoGOgb2cAwQpAwVQLCmMCUwCU4g1Ytyl//TsFHeoWNge2IA/aEzRnEqeUlvroNG/c807qlrt0ZIGt61QY2eE0Su9ateXZ7n+75jYAoDrSGdkeapusuWoW303+lwWYz1ehvFQO2crGV/pnZnv87Z0KU9usebO+wcGCjGdCpnO8ct9btYhIE+Vouw08+d0Bjo9Dl/BChmpzzlKYd4A3Op5MWM1kAp9zm7TP3yn/eZQeMFURS7Ghgppzvd6YogdU5d9ew77J4Y2FHzCu2hT8sK4u2xJaLsBZ6yIjIiAsMMXi8ERLPxNv2Z82c97Ne061qiiV4m6nvYPmuJnvXrE3iUxQ4dA4kBc8CWdIF+8FN0gz79/8UvfjHLnFBXFBCv1Oboo48u9bK/eXs0HW/BL/1oF1+k6Lx1HrJ6+TZhAG899alPXeiTUe09EWlQozt0jdd60SSeDNLxjlc6rml+m26mN14ZA0f/4tezNsWYNngddn4MEA59rHb+cdpT77DT53Ijz1gwj63nowAChkqug/K/9UorSyBECd7Et0hMGwXMun2/62Mgx3lHPgl6TEeN66bcSbr0P9/YXdPxsveYNKx+OpGUge0RWSwd9Z/dCgNoDl1mhgNDt07trulGXYaIzTE+u2j9dIsoPBpoY/516BjYDAzIxkmDOTPM0HgdcUbndaaac6kvoG38M+fEZtxj73MaA/hC/SWs43Ospuv30o6BjoGOgY6B7YiBFHz5hmNdE5gJlMJUFLOM0ARphGDkqRwSrB06BrYnBihslDtOmqS9NKRdB/2l8VLT8bL3YA6k8sggQu/6yz6X7afX23MwgE44ERkfyR/RZtKNY7SoHkePegAtr+Js1Ie+0LitQ8fAZmEg5X7qBK6zniGdddA0+kw636x77P0uh4G+Zno5PPVaHQMdAx0D2wUDhGAd9dNpGiwiKM5Lsc2oNa+0YxtFjwDNlC/H2ba9uRSy3UBpMdP/L4OBdNyoWxvS2RZdoTHOnDQ+8twyewqkdmjatWolcpn2vc6ehQEROEZy8sCkOQaJ8jRMYAWvTCN6VYMYLWrT+eaeRV8nxNOi6XmAntuIdF13ntyv6/TjHYeBHpnecbjuV+oY6BjoGCiKWhrKafAyoBnIhCshSplLQ9l/Cl4qkerVCmKtREKvuql0Zv8d7R0DUxj44x//OFVcaChfjDNlSGuEBtMARnPLApoUPQQMFjSfUepl+1hUr50Pi+rW5373u9/NdUzV9U6I46lnWqRMOzfVxr1zfsw7l8/WZrvgPSc0L0FvaMWz5bPnczqHltCRjB2b45pP5rMt2nvG7LuOFv7+97+flS9qv9FzU+OR97FMn94x0I7ZMu12tjrwkCn2G7k3OPjDH/6wkaaF563a0LxYZZz0X/O/edeDh0WGtOva1KM7JPhvq6Gm6bp8W4/b6yzbn/v+05/+tGz1NfXgZCN0viPmR49Mrxmq/qdjoGOgY2DzMUDxY1AQdBkBSQM7DRP/a2XQcWtIE+Tq2WunP0Iu22Xfm/9E/Qq7Gga+/e1vD+c73/mGn/70p8OZz3zm2e2jo/UM6azM4KDcrKdY3eIWtxge8pCHDOc5z3mGt7zlLcNrX/va4T3veU9RGK95zWsOhx9++LDffvtlt7M9xetzn/vc8La3vW34yEc+Mnz2s58dbnWrWw33uMc9hkMOOWRWLw9++ctfDuc85zmH73//+8NRRx01fPKTn8xTs/1lLnOZ4VKXutTsvwOG9P777z+8/e1vH650pSutOTf150UvetHwgx/8YOrUmrLLX/7yw3Wuc50yN5/61Keui6dsfIpTnGK4293uVv4aj4MOOmi4wx3uMNzylrecrY/08qKvfvWrw9nOdrZsNtvD2fWud73yYsJZ4XEH//iP/1ie1xhMwfvf//7hwQ9+8PD5z39+lgHztKc9bfjMZz5Txqxu87Of/Wx4zWteMzz84Q8v9V/5ylcOL3jBC0oVuL/Pfe4zfOUrX6mbrDleZXzR2Ac/+MHhOc95zvDmN7+5HP/mN78ptApHqWTf7GY3K7TEoQhyOUxeGK/EexnbyXPzXBoe+GbyUC/I8wKoH//4x8NZz3rWrLpmz9hehh6ykRenoVOwkfHNfuxd20usvvGNbwznP//561Nrjl//+teXZ1hTOOfP/e53v63wNqfqVsXGKZ1lTnK4tc4yuLz0pS+9FX0+/vGPHz7+8Y8PH/7whweOPuM9BTe84Q1n86A+/773va/MG3M/x68+P3UM/0960pPKZgy9DHQZeO973zvgXXe6050G/GAR4H/mFH5rHN70pjfN5X/mRM4hfTIg4dRL8W5961sX3KbT4JKXvGTh3+nU/NCHPjQ86EEPKrSQ92Nu6vPpT396Fk3u4RuPdW/mAf6AJ+Kl6LWFBzzgAcWQf8ITnjA8+clPbk+X/+q04/DEJz5xcJ+f/vSnJ9ssKsQTjQ86WRaWnR/L9jevXjem52FmFy/n+TnpSU+6KU9xzDHHlLevbkrn27lTTH1RKs12vlzvbhMxgNl762/LnDfxkuWtwnvvvXcxVlvFa6PXJbwpepnmSlgykjF9QisNkxSQrpNGM6GY96EMEKz6y//ww1u9UUPa9fMa5QL9Z6fGAKOYEvnABz5wpfuk3IFLXOISZY9eKOXGPueYN8oeeeSRk4qrRkmjaciUjiZ+GIPPfOYzh2c961ml7+xfGZqvDWmK9kMf+tCiEP7whz8svXm2V73qVQMDkuFrHkyB/jzPPvvsM2hre9nLXlYMefXf+MY3ljc8t8Y0ZZDMZOgz3Kfgvve978yYOuCAA2Zv5VfX2/Tvete7btWWMgrMKfMznxsvo8BTCuvjUjl+Eq/+qwO/FPIb3/jGxUjmUADulYz74he/OPzoRz8avve975Xxo6wC9wTIwGc84xnDG97whuG5z31u0Q0Yhuc+97m3MpCvcpWrFIMVLjlAfvvb3w4UZgZOC4wk/bmHl770pcPjHve4WRV8ztbCRsYX/vDJ5z3vecM1rnGNgh8OHwY73DPMXIui7jx+qA18w13i0xjox155zef81+Y73/lOedbkqXAKPN8UGBM0ea973Wvq9KwMjjiuOJTcYxogq46va3FiJDA46Xrw8aUvfSmLZ3s0aF6/4hWvKAay688Dz48uGS2tE2Jem7b8y1/+8nDxi198VnzlK1+5GE+zgjiAa06KFuCQYfrCF76wGKr4Wg3ave51ryv488zm89e//vVZFXTvvvGPKWBoclQB+PrUpz5VaPaII44oZRxtCe7j4IMPzr9r9hxNDGm85ZGPfGTp42EPe9iaOvUf/Ma12+dp+R+6FJk3p8zddO785Cc/GT7wgQ8UR6Kx4RDD4/DnGjyP+VsDB6ExnQKOM3OKI+bnP/95Mdjvfe97Dze60Y3KHJkaI/2Yc4zzNIhlA7z1rW8dznSmMw0XuchFBk5N/1uZ5H7h68IXvvBw97vffeqWCk/iLAWcZjU/xr/wdw6zKXjJS15SeNFG5sdUf6uUTRrTBtBAEh4mnlevL/K68RSYrC9+8Yu3urY+MHKExPuMMfmUQYfNwwBCOstZzlKUIMS9PYEgokgQrrzkywJGwIs+D+5yl7tsiC4wV0KUoMIQkokTooSO5/fpFgZRhxMGA5Sx9Ty37oyiPI/BEjAU7ne9610lSjPvSfApytp6IGLkMxSLAF3ha+iIx19k5oxnPOOiJgvPwQMhYx6I9IjoUObQKC+wOUCZJ+x9nki5axPYeDJIhVwdXmpwsYtdbHj2s59d8EeQ1Qqi84QkLzpBRAG46EUvOjz2sY/dSsFRF2zU43xs6/67IzEgfY3yQ5lpFZdF90EWU7wZYbWDKpU3bfFQTpk0RKb6S+MQXU4BQ9+c9IkiziPz13UzosmQPPDAA8tcoByL4u67777D1a52teHOd75z0RfQ7TxlsL4mxY+BIrqifxFbuHn3u989i2S8853vHC50oQvVzYZvfetbpf/HPOYxkxEYlRmVFDgG6Be+8IXhspe97BpjmlwE5nAN7skc5jC43e1uV+a382lkwn19nG3VBZRjEe1PfOITg0/piUThkRk9ZwRQLm9729sWPJr7xvDVr371cPvb377wKzhm5LoHijOjmAyHX4ZWAmeC+0mgaNdGSTpdRNZuetOblmoU+uc///mDSKF7Fj3Hj8hlNMl4NL7Aefe+6vgy8Mh3uMDbb3CDGxSauva1r12cKuS+6Bsnv3shJ5JPum7Sr7I0pDmOWmcjvKFn+ipaZZQZOzQj+oiGpwDOjQcjfBGYB3hvXW8j40sO0asBpxL+Tl7kmLT3QNZc97rXLcWcMOaW8ZkCOFlmrk21rcvOcY5zlDGSfUI2MQ7RQgK8As+R2Rtog2NCdgOcMxo50GowRozpBGOS44KXka2HHXbYbMyzXu7RgO2Od7xjicCyXdAl451DG7im+cPgm4JvfvObJSuGc2LLli3FkWNcM5skeaK26trQ0qlOdarC5xigi/gf2kPvbLC8p4997GPDIx7xiEKf6N2cAMk7HJsP+IFnwnfxIvYbhyLD9+Uvf7lqBThSGfjGCV8zz+EAf7v//e9f6nAmzQNOAA4sm2yhRz/60WVu0i/oJcaPrlMDvJNR2swzhvFWxn8a0+7n6le/eunG/dPD0MU8QL8f/ehHNzw/5vW7TPmkMe2GMFnMkxHEC2FCmAAI46DwMtfAy4aZ89Zg+LwahFpObsxD2sJVr3rVwvQw9CkwoISPQUVQCYRceqiVIUwMQZqXYwRlQhisBMxFmhPhk8w0z+1OeykxFJApkFLSAobFEN4oEFaYN4KWCjQPTKYUvur4jw5qz1+2dT9oZhknSzLDNBjSmObwoTygFRMa8JAyhhhpNdNxDk3UTE9Zh83BAGcGr22t7Cc/yPRSNCXKgD4TCBDlCRjpox71qJK+mWV4Vc2YCapa2FLc0QB+VgOFOo1pAqi+bl3PMTp2H4QA5eACF7hAW2Xd/5Ser33tayU6R8gQdiISvoHKk4z33eQmNykpYBQs/BNuRKspv+YbTy9jmVD2jHge+kfLnA2E2He/+92iNFOg3KsUS0qye6c8X+ta1yrzAk+fgo16nKf66mWbiwGyjcwF8xS/qTswr8hr85GMJmvNETwVT0RPNoYHvk2pMs/qtXl1v9okX06eStlD8yIqruc8xZBhKAWTLsHIJb/RHPnOMCPL1HN/gCG4LEj/JfOveMUrFmPXfGA0JngO86Oev+YiZU1Ek8N/HlBGU+Z4Fvg2x9IwOu95z1v0IpGnHBMGlshvgu8cM8opqxxrwL4+hjc87ja3uU3BuQiU+ctY5chjKFLcpU8D0eZMF4Yz+OV8oFAzoI2HZ3RMX9KW3MZr8D0pnAmeC+T3xR1TZkWHkr440GtZKlrLMOG8J2cBnov3uC7ZzpFKETbuYJXxTUPavQnWGCM8T5ReVJLBjn4ZWYxVOmbSb/JG19S+NqSnaJkRrR45kzRCp2BwcD7m+OsPeA70WwP92D3VYNz2b+RPnt/I+JojqfM95SlPGQ4PxxjZ4pnMN7LAM8wD+rsxmgKOpc0AafJ1NkniUupyZlDKrEDr9DeGtyhjDZwoWTfL1bUZ2wte8IJFB0xDLOvYa1ePOT7BQeL6V7jCFYo9gdbRGGcRGdzqo2jMnDeH0fWWMKQ5Mznt2EloD09jv+R4c/4w7gC6JMc9I5jH/9ynucPgzvT4Wg8yP9F2C/rjiBA4YmOZbwxTtFIHvkSGU/57Zhswn5YBz4xf0i04LvEdcw/dp5EvWyADW9mnNrIo0Bj7bArce2304zs2EW06Gv6auG3b04vga1vnR9vv0v+P+vmvgn9MQxjQY0y82clQ6sZgxrP/7UEQ/xjMpxSHR2SMdTtjCLAxFLkxlOcxFMMxkDgGo22bjjGRcPKyhUd0zXntgzmM4X0sWxhepV4wuVIvJlL5H0gs54PYy33rL4h3TV+78h/P00J4sMaYeGNMnDEm7dwtlIhSLwi+7WLp/+ERG4MpjSFcxxDCCzdjUkN4ycbweNZFs2PPFcrU7P+8g2AgYwiKQlN1HeUh4MfwkI3BGMbw3I6RwjMG0xhDCRxDSI5hOI3BzGY0FgpH3UU/3g4YmKJP3YaCUeZ9fQlzF70mhAI6hmDLv2UfTrrCb8JbPU5tkT5W6HFNo+aPPsLL3JSu/RtCaAyDeQwDd6sNvwqBVHgZfob+VgW0GAJ0DKfCGB76MYRCwUco/2NEpMdQRMcQIGMIyTGU9jEchWMI7nKZEMZjKL5jCKwRX9MmFOkxFIcyD/QbEewxUnHL+Yhil3bhVCjzNIRa6b/GNT6On05BeKwLv3bOPHIf+G0I6VL9He94xxjG/1TTXrZJGFg0r0IpHkMhH0PhWPrqodCMoTCO4Rgdr3fd642RLTZGxGoMw6jw9FCMRv1GBHGMaF+hS3RmQ/94O5rGc5Mno91Qlss5xzb18ziUtzGM9zEiuiO9ghzBA8KwK/xh3s2HA2lGj1mHPmDO1hDO1MLb8RBzlp7i/kL5KuVhZIxhPJZjuDIPAdyFYl3awHO76QPoF48CoUQW/SKcf2U+mpMROS5tw4E7KwulsTwnvQfAKb0IhHI84131sfnmHuAO2NOX6i0caUVeek58I5Tb0TzXzvjgla4TCnTZUm7rL4IdhVbgX5sawnFR+kALYSiUTZ/me/6Hh5qf0vnwE7wieYo2dBI8KMvCmC/jX1/P8bzx9bw1bRnHMF7HcAiMYeiOYdyWrvAr/9WNaNkYzpORHhhRykJ7xi8U/IIXtIhulwW8zrPY4LrelMFzC+QI+oIzG97+yNBDAJ0J3mvYyPhmezqd+yCXEsK4HsO5kX/X7MnLyHxaU9b+MYf1iaY2ChFdLM9N3pEbrgtyLjmGC9epQb2c185FynehGXwD3sy7vD98qQYyURv16nFyrDwM3Lr67BhtGB/tzBn0ao60YC4bV/3hnwn+ozWA5vES18Nba4DPiDQXPWM9/odG0Y1NX67h+OY3v3npEt/EZ+J9AeU8nAB1w+gsx/RtdKAMb6wBnuk0LcD3YYcdNivGS7QPx+eszEHiGr6cNzcB/ISDvxyzG923MvMu+bP70qbd8AeAt9B/WsB/PD/+qN96y75irfeaZqvOjzWNl/jjujUcH/6NMy3c8573nK25cY6ng6e4zmEXWanXH4mUSvXhhY3BKJ5iXiipCTxA0ieCyRTvKe9ogtQKESCeV54JXp4anJNKkMBzdLnLXa5EWXiFgf7qKBVvrJQVXuX08GT73WXvuYwBfPOE88q0wIPEG80LulEQXYxJWLx5izz4+jfG6S2vr8fTJkVpo4COgni3aq48GFDxxhprL1CIiV6id6J6PG+8aTyIIbxKBKT1mm3VaS/YrhjgORahShAlQpcJ8zziUo5lLUyBqIqUwkUg6lOnLk7VRVMhTMtaHnwlQSQHbzHH8DUvu8GHVoEQdCVqIkLkGqIoGeUTCZHKfflIORepF+XhgVZ+8JUOHo74xBHlUuibZ5+3WgaG6LIXDEmvMi/RtpRxERCRayASnVBn+WTZ1F4/G/E4T/XVyzYfA5l5hBZkdSwL6BqIap1hvzMUvhiKSsk+s6TAkgApwWgLzYo2oA3ZEKEQl//mDLq0OR/GTImCOhaBEV2RCUFnEDEWIRGRFZkQ6SS78Wl0KwVVREJEVsaZiLl7qyEj3llmDiSIxoi8hPFTrivSLFLkPswXYC2lKDyeEUbQLIoainR5hrOf/ewlfTtxaq6bmwnmsXkLQkEs/MC9Sy0FoiWh5JbMuizzX+pxDSLjyY/Ioqnjur46Im+5Rlp/sgXgX3RauqZUdlFSeBMpFRlz77JbpHpKFwVSoa1Zx1PhRpbZ1PIbUXDngWwYY5IvOYO/Guh6QLROVBae1oP1xhdNicyLDIbyXJ4Dj0RDxhOvzPXJ9B56hUwfaa7S7+kp6BfN6Ivsga/ku+vdn/MibugynAflWnBWAxq2JGcK4D3T8Oms5sQ82Mj46otcQ8/GdlWZRC+v9eS8NxFdOnoN0nnd47Igkg9ElumA2hoP45b6urFZBmQZ5vwwHvOAnk924lXmeYsPEU3jXwN+ZnzRrLnj2dkP/pP5llXUy0FkzPovypxrrrO/7JsezjaSGSJDAFjWKlsknENlropsr8f/MsNAezRMT0KHy4CMH/LeGHsO9yLSjk4yiyJ5tf4swWiXX4ZBveZSdYRe9oCMOHNN5oDMH/wBOGcT3XcODvWVqfiylumA9Bj3lIAfJOAfdQaBclF22Rf69mwZVXdORgbeb217bftsy/zQ70Zg0ph200m8BgSDAlKxKMEYLFDPINfGtfQiE1LKAUGFgQnNSyGQYiQNk4FjgjHCGc8ENKaO8WgPKcL6iHMeZGoCRuoepyCNJ4iVQrYnQKbH1c+6jICr608dEwgEJwZuskgTIowxIopYOitMMgJwCtDJPKNpqv5UWatUqeP50BAFwPU5YihjDGbGRUQkioGPsWBq6JDy02HHYYBQZaglMBopo3gBMEe3FaREE5I1uA4FFK9qAe9Cv4wGvIbwlq6UQBkm/NA6hr6qIwhd5lwgyAh9wp5D0n0RKIwI12VAU3QZCRwE9ctMCKHwmBfhJPUbD1WfgkIQciS5NzwuPNgLU/zy2ab20s4BxZ3Sj2+7b2PDybBly5Yyl5wzjxhwuV5tqr9etnNigPFFvkpBRFuWw5gHjA6GOWc3mqIkokVKp1ReCiVFx4YP47nqoHF7MkC59X760qd+KM+MnVSizTU8GG1JtaScMYStpQX0hlwTyjChd1CWE9wf53A6BSjcjCZGJ90Bn5GmS6E0PyiSeI1rmesUZoo9qBVjc8o9A8c1ePZURvVV6zzqCQBQLCmRCYxam6AEnYgyHlGacppCyYBnGE85BNt5lQonI18bgKdNKdoUTs9h+R3cUJ79Z+gwCjnhKMDGQL/wmcaffnM8HQPjbJsHUqBz6R4eDDgzGLqUe/dL7uf7JtYbX/fNSUB+0x+lj8M9JwZeycBTjr/qV5AAP+Ks4fREX/TIjRrS+sKH0RwcW+KYOE8cGL90XGbZtuxXGV8yznihYw6V2iliXpt71p4CckNwowZ4o59zbMERkLZMJrVAVrUOobZO/T8NS7KTLIVL+DO3GdfGT8BjGTCXU69sDb5sT05y1hl38xuNJ5/JOsYQHmqQEuxeyN9znetcZbkGZxO8MMrxnQR0YOmIbRmgIyeYS+QyJ1Te13r8z3slbOYt4KiCB3N5PdxlkIi+BS8cY+YToz55qHtKBzs7D48GdOfrX//6Rc77j3+yocj7vHd405a+Qf4bF9dCI/bwT6ejg8NnrnfWX87/5E/KQN6LY/Zlzfu8SybT9i1FquHII48sPIGTt3YObev8qK+xyvGkMY0hYtLWAxEAtTFdRzg9qEGvAWFaz0Ixw7hNKl6qZNyEQYToC3ExpIFJTVhZE2EdI2KGoBSo6hBCBCGAxGTedQQb41bHhJazb0K49z3BkIYzky6ZaEHUcT/WkuRLQOryVY4ZHowBghhRY4yUIAzJZOVgoRSYGMkA2/7RTgqN+lxrIM/zhjKWCVXjSyCkkmD9C5pyXecocyY6jyChi1mkMsC7LTLRYcdiwPgwJBPQj/V+KaDQLcZfAwcORnrooYfWxbNjjLcGCk+dNUGpwODRHf7iHmqg8OFvhD6+RbDgWxRfxiMljceTMcFhRPDyOKcjr+6rPUafNrSNLu2t4fTcCcrMJYIJzfKyElZolRJzRDiBeNkJJXSNT1LACUz3RJlznrJiDjB4AGHSCp5aWa6v79jcpvhuxOOcffX9roGBdIpSfjiKGFWMUnQvGohnAjLb+j68GC3Z0tlSP6n+zDP0me8gqM/jvYxMtJvAGNWGc7MG85DSm5EM58wJUUkKaAJZJ1pSlzknEi6qzhBmJHOo4iu5ZpdO4T+jLBW77NNeBkw+Q8oL5eYhMDeBIEAdtVbmWpwMHBUtmLMy89L4d97zg1rxLgXVDz0nIXUh/CxBhIvB4ZkYVnicqG0LnsW9GXMGJ97mhVBwCGdpaKjDkVYbjq4nGuf+gWfhsEug3NOzjggcwZ91k/b0QvfDQJM5AHL9+Hrjy/BXB19KY49DDw9GTxwUnBloCh7h3H2TH+hXPfRIP7D3XLZlwT0zPBgGjHq8NSPw2YeXs80z8Oie6YwR7GlpJfuo96uMr3mJFjlBACOIjgcYzpys7hvUhkkpqH7ItsRv+6KvrMbxsSq4/hQYG7wALjPzYapeltFncz5OOcPVY08wpFO/ZXOY3zVw9kyBOcPwwzPQGvlZB6PoHfA3T5+d6rMt2wj/YxfheXgfnQXfQEdsnvWMaXiSxZbZKPBs/pnj+K4oLmM68Z9GMl1K0IBTJflq6lf+Zz3P577IDbyA/eWaAgMcUGlAM8IzeNXihB6Y4+Wc9ujVfXG+oBFAtpA5Mpjo7PiY5zenAYcWYPORZQA/5WDaHvOjdLjCz6QxzSiy8XjxKAMPAtn15EIo6a3Na0oTQ9yEsUHF9AixBJOdp5kHPIE3V6SacskbYlAQDqQoA/qo+5HG6D/BShEFFO/0YviPCdbKtbLdEQjyWgBOPSPj0ljVBk3WYyDU48GwaL2uFBJjS8k3trU3nfAhzHiQebEoZQSnaMNGIL2hDHPM3iQzgTCAVHLs6/8EMFrBdDANk5IhDaQaYgDSQ9BM9rGRe+ttNo6BWhHUC2adZbmveyeUvZirTlmuzzuulaQtETm1JaB1QgV9ow000DrWXJfiRPlTj7FLGaMIguQ/FGhzjGKZnn40ifegQxtaVZ8RjWYdq+M/WsbgCYWDDjqo0KbrpSNIXX1RGikIFEH4wQ9FvZzj4NQXw9d9uicOT9egzKYx7TopaCiblF/pVanM4s8UDM8CUqGS4bMRj3PppP/s9BignKAj9GDe4JUUcw4ZylFGKfF6SiQDGo0tArwU/dXRhbo+w6JeOoF20SowR/avMoQYIPWSDrSv7pQDtnTQ/LhnDl+yyzNwrlOuGRr64IQyr5Pum+YlM47zvwbGJ4eCdGnzCsCfFMbacE7+1cpX98Ohz3DFfwCnHRlJmeegA3QgsomBmDwtDTLn00jGG7x4LsGcF4XHD/BJfAMv8ZwiWe4r9TTKreVP+AClmgFFbsK5epTadimY+8EPtasB7ciSEeTATxgwjtED5RfQOfBfjnYOd8GSGhaNL1pNvqSNY/dA0eYAlR1Hv/DMDC58H549q2vCQcI82szz7d5Y14DHtpkIxi71i7quY3ilfyRkMCr/T+1XGV9LFxk4nhkwBG1AsAMNrDdv1SUTEsfzDGD1Ngr4gi3B+DGaZMPUDpk83+7RNBoGaVS3ddBBDeZl7YRyjpydciaLlovEMvLxC7LYMg+0d9hhhxWnNGN7Vfqp72cj/A992zwHZxndGu+os17qa6x3zA4z9zmhzHt6Rc1btOeQA+mUKX/m/Jjn+mEDMIrxE454gRGOI1k/5iW6ryPT2Z3Aajpts8we3+M8yKwAtMlhRbcCxqWm08xmzCCrOvSd7TU/9LcKTBrTUx0YSEZOrilSx6AwZmsw+BCVXjNpGHXKIm+T1JxMR4CINARTWGV/FLt8+7PBYzQCnqLaU5L1GeAmB3Bfi7xy2WZ32BNs8EToSfNpgSDnMeawmAIOE1HCBN6d1pgmDI09D5QJg9lgZBgeZSOBp8rat1xjleUI32RexrnBYUMgMBxMpFQu9EUZdA4zcAw4CVJ48qw5l4KOcMVgMXVpL4yInJylcf/ZdAyIlKZyV1+M06yGVAiUGS8KC2bMA7oRkIUgS2YR4DEEAgMX3RB+2hG0aBa9osd00tVOJ8YAWrShP0LXXjmgqGLunqV24Jin6JOi6pz1f9pwSjFgPLPIh3vSDv9EswwD0ReCFs3rAy9loFPQ9ZXzIL3LFFqA36bj0zXca9YpFeKHwN4Wj3P20/cnPAbQg8ilpVOUqTSk0Qh+ik7QOoc5ekdL1gwyAhiQ5DLDzXpD9InPTwHaB/N4KmMvnTx4QKYRMuB96oWsaNdp5nXICxGV1CWyfN7eMgkygWKoLf0Ej0HreZ/0gozEtv1QCttzZB6Zoi9p5GkkuY7UQpES2Vmen+OPIWeubQlDh+HAYARwno48fIXRTqcRHcT3Dgt5SnHcv3Iu1PeXaYzkWQ3md47N4YcfXqLPdCPXNdaAfGeMiPIoEwWl8OKvnIj0KXzNWLdgzPC/VvnGh4ydMUxQt06bz3K05voMk9TPnFtlfPVrHOig7ls6LgMBzcKtcSVnGESpL1DG0T26YJSJNG8E8HE8swb94e0tuA/LDEQWV4FVxpcTY1vAXKeny05IcN+1/M3yje4FzNJQr/VOYwjq5VRTYByGMwAAQABJREFU13A/ta2hzjweU7dHJ+1YJT3U9RzXmXCMe3ORY918Ns84iXLOtm2X/b9R/oeW2TvpmMJ/0rEgst9m2eX9HBHOR/OfTZARXufw2OSzjGE0nUDHMEc40tK5l+em9oxkG6cIHBlrAQa2nfnGjsML8JPUR+p+3B8dpgU8C58RZeZ0ZXPgTak7GceMQGsrdZ6Tqy5r+9yR/5cyphlolEres5wgDB2KaOuxhEiGFKSIqEgt4nH1wD4ZweDlAU0kSxU3cQj22gNk4EVC05imCLbKX4sog7RenbbN7vJf2hplgJeaEp4gmgWPi6J7GKttEWC0Ni/doAjxfFIKpMJIkyHIjTsPt4mW69+yT8zzFfFdvqnrMPanIA2Vmhkm3aQhjSlkmYg5pw9GAjBECopJ5/4wNmltubxg6pq9bPtjwLgQqHXUhgKIn8xL86bIg3nK5Xp3yTCkrM1LxcOg8RvOH/NGhI6SybOPrxFEBATHErpG74QZ2k+glOCH+iJEcnM+HTxoFx3ilwkEjfJUtCnhtTNLqhQDCG17DkJV3+YQx5Vy13afjG7KLo8tJdP8r4FwzfWpdfnU8bZ6nKf67GWbj4GUyXklBhMeSDHkgKFc4pdpSKMdNIlXmgP+46HoGK04J5uH0k7pmRcV0h+61HaRoksxovSga8sTLEsg88kI85/haQkEAy/7OTz4NaOe8do+Xz5nvRd9Eikmi+gkHHAib9KTZSqJ7ojA6t8zqdcazp65LYMfm3lEb6nBHOawp+u4R8dw6b/jefeN15DR8M8YT8VYFJtRxaGVjq+8Xr7UzLjWUT36FeCM4/SAT3pQ3Z4OkDIPP+FYxyu8E8G1gPvJz3yVguN+tOOUaVNn6zqO9QfQGv4mK4ARb+wPC0cB3iWSnMb0quMrm4AzXJ9kBxzjqVKcOS3wSEYQ/i2ynMsT4IURT+FHA7UuUW54iR+GcetomFriqKtaxrVd11G19tyq45vtPV8t4+CbI6wuM4a1gWk+z8saZMRtD+AsotNz6tH7WqhfItWe8z/puj2Xa/JT52vPc67UMtr5XKJQ18W7yDv90Q/RK7rlfEdP+Ka5vD1gVf6Xcphxn8tYOQhzuYB7Aznnalywr8x985zzrwU8jj6WdhL+TSfGK62rXgbYcpyw+pFt4lp4Gr7jmt7pwqGEn3ECCGDhoQnuAd22+HXfygVXl3EY4WPrwUbmx3p9zj2/6NNY4akonxmIhyufRwkCLBAhfS7P8rmIQGgpi0lYPsMQgqGUOx+GU3klekRiyqvMQ4DOXqOuURhL5ZXvrtNCeNTLNYLIy6cx4uUCbZXZ//AQlrphtM/KdscDOJ2C8IaPMYlmnw3wOZ3cQoEYw7s1ezX9VPtVyiJKUF7vH5OnfHYsBFf5rECkrZX/7jGE1prPn4XRUMYnaaW9njYh7Nri8jmLMM5nnwlSISbn7HMrofzNPtPiXLzoZfYptFAey6eIQkEbQ8iWNuF9GyNFbgwngOodtjMG5tEnGglFes3VQtgu/DRWGLLlswprGi35J5SJwm/wnQT3FspM/i2fWYiIXPmP10REY0Sf+QzmDF4WkZAxlIExhEbhZ3gWQNNhBIyhLJT/YYDM6DIEVCnLH3VDQJa+QqiUT6aEElt4XxjwWa18JiiUwtl/B9qFUBpjfXf5BIpPjYTwGsMjXD7J4X7VidSo0m/d2OeIwgE2hiFTF5dP2YTRsKas/hPpZeWZfUZF/7F0o/DqcJyV/xGRqqv3403GQNLkspdBbzZ0iF6T/sL4mHWhPGkWj7WFQlX4ZziQyjhHFtKs/tRBKCqlnf7nATnh/sOZtma+Z/1YjjCG4lXoFK2i5TD+Fl4/HMOzT+hkP5HVUT7thXYBeRRKXKnn+uHYL+WeGy+ii9T3HRHsck1zfmrTRzjnSh9+QpkcI1ul/A9n1phzgm4UTozyWR9tahzGsrXyOTDl5h+9Jwy9MkZkUqSalk96Oa9PgJf5D8IpXnhGzl2y2Dl48zxh8Ja+SuX4cW111fH5GrqAevqOAElWW7jXt/GYB+R2OC/KNcIpWD455np5P5E1Uz63g4cqI5c3Mr4ROR/pofRMcj8MxDGWD4xhWIwRSCi80Hh6Lnw5nDazW0YTYXRv9UnNWYUFBxFEKrw1q/iMXETMCo0Yz2WAHmxsPD++X8O2jC/ckhfhXFm4hTOkXNIcnPdpLLLPPRpv9J9yrr7XZY+NQxjzk9Uj0FLmAFy4nxr8j4yDumjNsbH2rO5zCpSjkwQyPOd1ynrnPJvnRKeeFT+ho0SmWNGhs/0ye+3D0J1bdSP8L4I+5dN7YSwW3T3nt/sD5Ll5DYfh/JxdG27YS8B8r+8rnJKzZ6afJ4SDquAgDPMsmu2NIxxln3kCXj8e+oe5bP67D/zLPYUzb6ZnhZOijFcY39m0fF4w+cMUn9WXcaS7JJAz2sAHCKdfoR3tw3GS1bbarzo/tupgnQL3VMMwz5gOb2JBMgRRJGO9dFEGNWa8QmSCh8XkIo2mCK3wHpYJUxM2Yebi+X1HbTFDZb6Z1oJBci68t92YPg457eAlztKYJmQYBZh3vUUq2Bge7YLPbLPRfax/KmNiXNot1qXNxiw8rbNLmLAm+hRQ4jzXlDE9payZ4BQu9Icpas/AjpSTMdKCyvfKnUNbJnak8sy+fWoy+o+mU5mgcKoPdx22DQNT9ElZVo4Ga0hjmoJvTF8RypYyYCwcR0SpbrLuMXpgbGLI5kHNo9xDGr5ohoCK9P8iKNRHrzlHkjYImIhGlfsPr3Wh4UhTK/eRz0VYp1GCLltDWuWkY0IpvK/lu7r6pdTXxjTB2xrTHAARZRs5CiOKVeg30hvL93oJxXi5Wrmf8LCX505lxLXQOWHbKkYUeOdaiOU55RnhCs83Z92TZ6UEwhPDx56S6bk6bD4GpubVoquie7RoXiW/JLPNtXRGmgM29Zwz5yhE6Ad9RPRg0SXKOW31gf7nASV9GeclWooI0qwbitg8iIyMQpPzzitH/55LvxzLLbSOXc+vnnk5tTF6aiCv6ETAHE1HHcMtsmqK/PFd6lquRKSuGJIcdIuA8yqfH27TEHAP5Fq217dxIvvy+nW/xobiaQ8YOBHxq6use0wJXzR+eIv7zTpwjsamgDGQtJLPN1Vv3vjWuMzxwKvJ9aRz/RvziAbOuo71soWm593XrOLEgftMB43T5tbHw5Bwj/ksE83WFDHA0QInQsszt2V83cMUba+5ePXHPUzRiSrG0XPZciyrptvt0Nwyz9FlPZ4ugLbn3Z/z6BwNtzh0DsBHzg3/0Ybn0aaVy/gDmtlWoFPoax5shP/RNZJW0Zs5Xj+zZ/RM8Fg7SOfdg3J05l5qI1U5HMzj9caHUb7eNXIuGtt2TPHC5D+uB9iKUzw2y2q9TX1jx5GW9+E8vHP+1uOtbg2rzo+67TLHrVyeNKYpkSoSGAaRAsULoGxqixShra7NW1kb0yqYLBQxSmGH1THQDl72kMZ0/m/3lG7K89Q4tXVX/Y/58XiLZjBQePhaYBjVHnrnTW7lSVcUsxZMohSStUGQE1Yf2plkFMBYW1rqxzqw0jdjJZlSKo3qRipQ8VQ7Vm7TV4dtw8AUffJiiqC0oAyzwySTpzDmACOXIVcLkLb91H+OOvxFP21bNOo6ztubDxQ/Qp0TEGjjulkv6zIsQaxPLgy8/Ikfz+ZaSUOtwM569uoQLLEmqdAkRwHax1vxWd5x120jB5GOV+iVUOOZF20ToWLcqp+Gv2u8IhwSOcc5E/Q5JejnGdPb4nF2/Q6bgwHjvCrgZ5SYpM3c46d4ItpP5WTVvtXHg7P/RXS/kb57m46BZTFQ6whTMpzegAei/1YmLHuNXq9joGOgY6DFQCuXTyQyvd++p43y4yEalfUO7SLxYFZl7VUwMNK9rJfSyiLxUDyP7yCOvNjC2oVQGNeUy8u3RtaawA6rYcDaCHhvwZoQL144U7wYbAqstwjlp7xoyVqj7QnuJxT9sj7MOgdr1XLdW14nvKdlDURb7s3faEq7qReXaB9eqHLv1ly09+5cCMtSDjehIBb8KAsjY/ZiFvcYCmS5r1zDGk6A2boR96W8vb+8/75fDgPz6DMiB3PH19igTesLE//KwsCcjd9yVz/2u4jGuV4fVre1TgttoKWWL2U992LtVALeNvVSjohYlE9uWf9p/ZH1PvXapWyfe3RuC49yeTmNNeFo0EtWPK9ycyBfJqRMf+7FfZvb4YUtL0RJPJlX9Yv+PJuXmKlrj8+6rxZc2xrGfB9Fez7/R0S6fK91av6Gd7nMu3nrabOPvt92DMybV/N6Jp/xRjSUdIR3Jt207fBN69fqdW3qaBsGyOQ6U21cR58tX2777/87BjYDA+gzZT76bddD4+V4rnrO4+UdOgY6BjoGtgcGWrk8aUxvjwv1PrY/BtrB2/5X2Pl6JAgZSKAVmMqdT4Mh61HwGGc25yl9BGsLzk8pkW29/n85DOxJ9BmRjplhvp4hDXuMkogErmt8oFUKoP2e8jWC5ahrz621yrxCN2lIw1i2ta9f1pjYxDO1cb6mN3wzDRVGSG1oq5/n0D4+2qFjYEdioKbPVi9wH0mjjqfOK+/QMdAx0DGwUQykbM32e/kaH8bTBWKipO93Jgwg2CRaxghIDzSBmufre64NZ+dB1kXnjG3KYaf5Gmv9eFkMJB2ioVTqKGy2eaCudnjtFCh3XnRZnx06BlbFABpKQxq94YNoUrljBnBtUKczEo+seWHStL32+qoBnTqnTd2urtOPOwY2GwPolixPfaC+HrpE6/jpIr5ct+nHHQMdAx0DG8XAiUVBUjncaCe9XcfA9sJAKmp1fwQj5Y3wzAif84RorehlHREWqYciKupoZ1NGwCrrSmCN4X68LAbQJxpMekJHaQgzTpybB+izBv/TyGHoOE4a7gpgjal+vB4GakO65ovoNCPLaAudgTSkkw8mH8069mhQXy0o16dtWXB/LbjGPHBuqo36DKR55+r+9GGpwqLr1PXzWN/L9C87xZxNqK9Tl+f5ZfbGZSOgXbxgaCNNt3sb47PR519WF0XXaNa15gHaPqH56JQ+U9+vTzOh0RMKNjpOy9zvVN/sjc0GMtjSsg4dAzsSA3thOClQd+SF+7U6BloMpKFCQDJ6E3ifU2gSommwtIqec7nVyqF+leunQ8fARjGQ9Kl9pnbbo0fnKODpnEy+iuYcJ11SuNWnaKjvv3P26qFbCqCyDh0Dy2AAHWVEGk9EP/6D5HkMXzSFvhheb3zjG8v3aNXBW5NHau8/WmQsxkvshvgyRKHXeNneUkamPq3/jzfBOyxtD4rvGN/hDncYbnnLW84coCc/+cnLuwLqdf+lQfzEy0uHeIleeV9AluU+PilVvgvrW7+LIF6QVt5B4JvS8UmeRVXXnPN969Of/vTlW7NrTjR/fJ8+Xhg4XPziFy9nfOP2kEMOGeKtwwWHj3/849e08A1YzwwHAK+Iz8AM8aWTWR/wFG/oH/S1CsTLNsvY1N+r9/wnO9nJCr9JeahP93exi11sErerXHOqLmdNvFyyvHPHGB5wwAFT1eaWnfWsZy3v2/GeF/RnLOYBfPqW8eHxTfIa4oVj5X0RdZnvP/umd3xisC4e4sWow/vf//7hVa961Zpyf7yjou07K8VndwqN5P+pPbrz3d34rOsQnz2bqjLESy3Lt419J73VZyYbbMdC8zlewDn5Hei8THyisnwrPP+vt/c9bjQOHvGIRxQa913ihEtd6lKz781nWe7jDc3l/Tv5f95+n332WUgXvkkeX5so3/y++tWvXr4zb662YOzjjfxt8ey/d4rkd9Fnhf2gY2AOBvb6yxCe++677+xlMgQpZku4dtj5MLA7KtkMZwySkUHp41WMzzMU5cDzUsx8EN4xo4OCqC6Fz0uc0KoX4HnxlPNePkZhdJ5SREgpj1f4d7reZJLeneiTAoo20RIawiftvcAr6RM60RmjOl/4hR4pyowc+ECvNuXpFHJOX/p3HYqjKAVl1LkOHQPrYQA9xdveB4o4Hhnf1p0p+ElD9XxEb2gZLzzXuc5VXgKaNMoAiTfFD/FptkKP+Ktz+++/f7kNx9plfwyNJz3pSQODsT7Oe04j3n910P0tbnGLgRHCSI4vTJSq8c3UYvjHp+mG+DTK4AWl5hPjB8SXKspeVhFDMT4LN8Rb+wu/Z3hRkuPzTaUOwyc+v1SO88f8YsQzWmu47W1vWwzfuiyPObriW9FDfH0ki8r+8pe/fDF01xQe9wc/iO/5DvHpvBJpvNnNbjbE9+Fn+FLtghe84BBv4S8yi7JP1rm3+Db1EN+OL4ahFxsywFYBkU2GIjoAxviqV73qjI8cFAY6nCZwtHix4eUud7nCs9DQ9gBjfJvb3KbwuvhMZrkHRjHZXkN8OrXomHVZHqOlI444ojhg9OGFpl6EG9+SLvwxPiWYVYsjBt0aS+BFppwEcOzlpmgjPgc16Mf4KPPMNXi5I/wp5wg59NBDZ6fxY46b+J74rMwB+vNyXbrFPHBd4xhfXhge+chHFlqIr41sVd119cMxlM+xVaVNKojPOhaHkZdoti8Qzksa05zzytD3li1byj3Xx1m/nveMYwZ1Alx70SaDegq8OLN1eqEn+IuvbMyazLvXWYXjDrzk2Nzi7GJgx2ci11TBKzzbwQcfvKbcn/gEbOF33ZjeCjW9oMLA0b/49ezfXn/+8/8ORx555ExQIi6KYYedDwPGhkKzuwGlkPIGMuLXPmN80qU8uxRuOMhIjCgMJVFZGtAUqATGCYGgrGb0eb7vtx8Gdjf6ZECgM4p8KqO1QTEPc+poi+7s0xDJtugwt+x3Xl+9vGPAvGoBbVHW8UVGHgOE4sp4ScWzbZeGNIOVArl/GMoil+B//vtYHsygZlzgyYDRxWDhzKSYisSCTOHUvj4uJ+NHXcAgFQGLz90VA+qSl7zkIHoV3/4t5903w4QhceCBB5Z5RhaIiMUn64oRxcBimLoH0cj4tFuJeN75zncuz1A6ip/4jm+Zq9e+9rWzqBjvsz/HHTDK10uJvshFLjLE5x7XNI1PP5b/cPDJT36yvDFf1E29+FZrOXfPe96zzHdv04djBnN8/m6IT/GVKD98UNA5FRz7Egcjj1HtmJy6973vXSJrDMllgHGnvxx38tA1OehEieGuTnfmVI5PBZY67m97ABpw374SYKw5dzgdGbYitIk714pPIg7xGb7Jy4qmx2cDS/srXvGKA0NPdJox7blqwweNcsBkWXxmsRhe+s5IpK8jwIUoueiz4xpEqo0DHM37wsNznvOcuklxYK0paP7Ep2WLYR6fKiyGp+wOhlxma7TzMj55OHASbLYxbT7BVwucLfXLB53nmEJPDOfnP//5a/RO8jD5Rn18jWtcY/B1BzRwn/vcp0R94Vt7NGrOALReg7kumh2fSi1Gfa2/oYdHPepRZV5kGzqdzBq0ZS5+9rOfzVNlb27/7Gc/KzhVoD9OQjShrxpE5qeAY2re13Gm6veyPRMD9Zew9vrz/x675ieVuzodaM9ET3/qHYkBAtFGwMwzpN0PZYCSRWg7xiAxVWWMFEpBKxDUpXQmbe/I5+rX2rUxgG4yVbZ+klYRqs/lsTotzSWdK6eAdOgY2BYMiNyK/PhsGUMDH6SMUkxF1/DEWpanIY13cu74JBsFk+ILGG4M4Be+8IXF8FDG4E2jxP+jjz56eMhDHlKMG5E+YF8f65vCKqLkWiJ7FOIb3vCG5T7322+/YlhQtgHDNj8Hx5hgeIs+i9ZlZJdx71jkkFGSadAMcZHcGhitbfSxPs95xbirwdysP4fnfinS9adBM/NEOxlQ+4cjQoTMZ/HgliODUXLHO95x8Nk4Ua+MaNafAb3ABS5QcG5sROrwgytf+crDk5/85GJsM7yALJdlgTFRp4XrW/TPcwA04ToJxxxzTLn3eRHCrLfsXqoyQ804ceaQxa7B0WBMjfmLX/ziUgf+OUFsUyCyjH4YSjLMTnWqU80ydzgoOFwSXNczKvN5TpkB2qJtDgMRcQ4Yz+l+9PfKV74ym5e9TzCqtz1wYQ56ZnMko7ZowTIGRrtsgXe/+91ljqGfBGPu2dwfetosuPWtb10cLHX/0uRljOQczHM1zXJ+MfjzM4hwnnM+j1/ykpcUHuK5OL84tjJjBF8xvx7zmMcMD33oQ9fMK06deh01R9mXv/zlchvmCj7CEE/nl4wafAufARwUtaNGmYwC+mGWywLBD1v9UF1R66nocz1f1OvQMbAeBvb6q8oIScNkvUb9fMfAKhhgmEwZtZQYNJfgmPd5CpRTzjBFwGBJg5rR7H/bNo30tnyq/17WMZAYqA1pNLY9osf6BNujr7zPvt9zMUCZFZHLaCQDitJOkcT3QBrTtSGNFyqnWOKnAN+lPOoTf00ei68yGGsHEsOI4Wh5jchbe6xNHf0RpbTVwLAR+T0ijGGGIIOJMXF4RMNEnkWwPAflH1DkgQi2CLD7F/ESUaxTiCne7lV/80D08eMf//gaxVpEmBHXpo9S4gGDQYQ319vKBLBxBDBEOCDU2T8MCSnsnA7AcYIx4CQADDznPI8NuJbInm1VYLgcdthhc5sx8nOsVWK0tQ6FuY0XnDDWxsF6bcY0Q0iEUQRYdJgxxZD3TNYNv+51ryvGLOcPY612YLiMsTWeDFAggik6LWrLwHKNFhhZDFRjZy4wlm0cLy94wQvWVGd46a8G/Bg9TkHOg6lzbZnUdfSHjjlSXB9YMw4PjHWGu/cISEcXrc0lDJ7Z/XNsbaYxjWZbMF7WBqP/RWAOciLBrfvmtKqP2zkO10nLjHC8Yu+99x4e/ehHzxw7aRAnfzE3ze3Eey0rswyvEhVPesYDOXBkh1j2AcxTvMTcRGcycSyB+djHPrbVI3LCmP8tiGxzAHboGFgWA3slIWOMPET+T3lwlu2w1+sYaDGAATIm7AHPtf9oDlDwnLNhkkmT5WT1o7w+5zgN6uw7DWcKJWZNSexexgqJ/XAhBpYxpJNOF3bUnESL6DUNnOZ0/9sxsBIGvMQqX2SlIYWSQivVFq1RPvG91pBW1/phUW0pklJS1WMkU6gZ1NYvA5Hu1tCQkpwpngzIqePS+LgfdaSj5xpp/UnHdX+i0w9+8IPLPePj1raKADNORYZFa+9yl7vMjA5G27Oe9axiXLtnBkn9YicGOpCxlNkfolL6tO5yEYhipRHc1hPxtPZ1CuBDhFl6vIwASnxCyqp0GlsXrS6jiREg+ppgjS2jUUQTWDuax1lnai8aDMdtZLGuy0itZSBHRQsMine9611t8dz/HDei4QwVL/ASdZ0HDB0GvbGuDSSp1+c973lLs3RkoEM4ko7M4H/mM59Zzmufa8IVMF6t2WdMi3ainXzxVWkw8WMuHBlLGmtA72mY1eWO1Z+X+t3W5RiQyWBtLkOyhjQEGcreEcCpUj+LuqLrcDll8NZ9nVDHaaiiNRFj49Uem2s1wC1A/+idcW2+5osJW2PauHOaJP/hFJOhwi7JMvK5XSLgPPowh7zXRB3AwYQfOmepgHM1yHZZ9NZvzoMOHQPLYqAY07UhrSFirJnvsp31eh0DUxhIAyKZHHrL40zt9h9zxXhXWcdFYaE4Scll5BBc2itHw2lcT91XL9uzMYDeauUODWZqdxuRRlfoK502aKtuuwiTSevqLNtmUX/9XMdAYgBdMuCkUorkMWrQW/Lc3Nd8kDIqOosPo2M8V/SMsvn2t7+90DgFlVFrsw74Cle4QjEWrMMFjDip4QzjqahW65Bn7ADraLUBDCZR1UzHLIXx457NP8o3Y93z+C8yKUImms0QlfKtX1HjXIOtD8o+o3uRgZfX2sjeC1ql2YtCwjvcMVhvfvObFwNfOSMxFXXGGkPP2lsG9ZYtW8rzpLEsksapISqfsm/ZNG8GH4CfFshFWQLG2XiJfvtP5tYv2tIO38v7bfuZ+q8+XrbeG9WzLUMSndbgPjJ1OMvVQyOiyoyg+k3vcCySyCAVBQeM3Tr7wT3l2tzs0x6tSsFH1ww2a2VFko1TvZShbsNYbA3j+nx9LOLdRr3r8/VxuxbfOePn/QebCfDXGrxoFS2IGid4e399j+6LrLR55wE6Z6S2kA4s5aLwIvAAHo0j/iIF35zmCEy5iAeZF9LAa8CnjG/9pvUca7jOZRRomoNImXnJKcURiE+gT0tHZEYkiI6v51zLuvbW8Ityd+gYWISBvcbx2M+5ZNSEsojIEfjOCqnUYsaLgBABqVAsqru7nfPSGN7DeV7XbX1eNEKRg1tM1v9511InxyBfCOb6aUg7xogpBsYsFQrlywABmga19miZ8jjvfpbpc5k6rTG2TJteZ+fAgLFDi2iHIoN+05BGS8rRt3IbutIGbTm3Cmirr0X0qA6lQwpop6vlsWtsjGOrlC/fw65bUySHQUBplEbpGA+taa02oj2pc94qLeKTvBu9MV4YfN5CneXqAoaIyGWmriqDc1Ar3aWg+qmjgBRcgMYTRHwp7qLqjEnRvTY1V11zw3OIaoswSe9mGDI4rb2VcpogUkyRz/Rp5daxMsASOAfalyAxKnxGZwoYzyKmCSKhUqXBpz/96bLW2X0r4xzI9GXHgCMC36gBjkWf8RzGNcOAoSOFtr23ul17nC9J8sz5tmJRz0y7TUdFytT8rx+f5AJSYK0dzU98lcId8CNbISPSeTnP46VjPlnESZFg/G5wgxsM3kAtAone2ze0w7v15zV42Vm+FyCfnVEJR/kfTcIF/pwZFPqwHn9RxF8dbdtnUL4qoBV0uZngPuGwBtF/9GmOJ9TOBRHpdKCZ855XRoAxmgLZLmiNMZt4z6g2w9iLw1xPJF66PzAXjHu+RyH7FeWXEWJ5QAt1xoC5JYPBtfEoqd3WbVtiIIU9M1ayDxkS3rtgXntrfxrxZIjsgHqua5NzJ9v3fcfAFAb24pVGjAwbQpWhaj8FhBpFclVlcqovZQQfrzLBLsVo2fUiXvDAWzYleOtr8Z7xUvNKEdxTbzJU30tS1jPM6353hWMM0VqiqajB9rh/EQtKEK+hseP9o1gsAi/LMSYUof1jfRm6wzB5KikCHDhojEdS+tY8Omyv4QUZxk+0JdvoGy2nQti2IYjdQw0UKsJFGpbURPckfS8/01LX1a/zvJyU0ykPPWGxSNms+9vdj6V3EXCLAD4J2gSRDMIuU0mzPPeMCdGdWsl3zmctpB5qqz9CleJEYacIU9KSj0lFQ4NoBc1QqOyNL286/uFYmbRGXnzr39Cpa6wHrqsf7SkN8yDTPM0nBgZFTpvtAeadaIKoY6a61fMuryGis94czrr2FFuRhoyO5bkpXkoppeyon0ABatvmuXovLXBehMgngfC5qWhU9oFO8Kr1wFilgu6FOnU6rLWPolpw2YJxogguGt+2zbb+p9h60Zboj3uiXKJTip/9lDNcuXZowCdqKO+eCTDqKJF4KMM1PyMoFZLRx3AVPQJSxBnu5lNGtOCL0mu9aBrwdaQqZbWoo+hWgmihOYY+vIiJcwQ+GUbmPeXdPaIpfPk85zlPiSSKbJkrHGFeYpRAFjEa6rHwpmvp4gmtsuwZ8Ix5Dhk6Ug2uC7/6qa8j9dga4qRpx8A41fWyL3NcxMt4SGH3HKLpFHoGy1SbbJt7ddCsNvgn4Eivv58rCssBAUT3RfxrHNTp5qXSDvghU/HcBPwUvTB+GLSMYvfJkDMuHB3WUhsrtCIy3aZKT8kXDp0aF3g/OQ/gAh1nVF82RW1MW2O73ovJrJt335l5kc+zyl5GAHpfz3Cf6pO+s6w+zlHbrgPGt2R1zNMTk244ihjAdLN8SR5+QE+Srp+GMT6BL8yDgyLbgE4Ft2QSwLPMWWNbO8HMfYAOajBH3EcN9EW6mPFjPHNMcbJ5p4P7rpci4E82OhveWWfR0GNT36ALmIcdOgaWwcBeJw7BlcwkJyWhK33JnpAkOAhbgg7hmzyMKYqqegQR7zgPcA08UyaOt++1hrJJapLwCpkIBAEGW3vF9CVdq/WCEcgmWmvk8IDVZe6/Bs+nHcXMs/j+JY9ces3ruv14MQYwcThcFigkaID328tXKNaMDEKIUmf8KQaEqn4dp7BlMG0J7z2nS32c10af6lLYCF5tCSh9eZEErz2nTQ3GfP8wptEsAcszjDYICtEOhoJ0MIr4FEg345yhaFK6Xc+9EdAUW8o74dWN6WOxZ/0joWYMp4ARRwmsjWnzHLRjl+2tmZxSoHizM+2Twy4jztZdpaKvD3wP3VBEKTN4GGUjDRHjyDhwX6JFlLk0PrRjyAHKv/tAL3Wqn34YxmlM+09Yi6q0IOpGyRM5QK/SD72tNnlyW3+V//giJZWiwlhq5132Zd7VBjzjGw7Mifo46yeeamXEOf20921+pKMr21N0GDppkJmHFJn6bczohsGRxrSxUC+BwkOWMMzr1Fj8JGWJtbAZhct2Uo09V/2yKopzGtOctRmR0TcnIFnhOQCHICMkoy6trMnrbNbey3/QCdmLb9kAPMEng5cDmYIpUuP+GNL2cIbevMUWDTOYKbNonDzmHOQ4EsHJ1FPzJl/2xQEl8sSgtRaSE+KwWJ/IQMdTp0DEG+T8yTqcIGlEHB7OM/eFb7pu4pSRiq+T18rwbjRCaWc8Z+QIbTBuKNF4uP4Aw7GNTpUTx/3oj0HvzdOMbmnX+qXj4PP26IcST7Yk3dd9OGbwmdvojXFR6yJZl/LuPjkrGDDo3xjgRdbccqq5DroUNFgGPBveky9sQ/s28o8jkdEgxZycff3rX19omRMDbzohAH8wZvgumvHM5rB0XfwG5L2Z/2SGiH3tnIGfVqesz+dz4R028wONomMOUYYgGuZUhJ9cu53tGOpwN+U8yzr25EAaX3X5KsfeqG3+ZZbBMm1litC98Sj8abMcIjnnzUHyw1zhvHYMj3Su2gDOe+dQSvpPOZ7n8nvb5gBImYwurFM2r42LsSd/pVkzvs1BjtOc19qSKeangAr+YM7kiwKdl8mCZ8APvQDOAJ3NnDDvyPWUA94Wnsfz5nnpoP90DDQY2Osv/+rY9aXKU3jZEyaUJOlCmf6TihYDl6DGABCnicZT1BrTiNREqNcnYD6UYNFgBlWmnRB4ruMcj1UqY5QX3qz1PH8mIOEPvGnUZMSsKbmYHaPGJOOJZPRIG8IUKCVTTLh0tIv8UOzayAzjgHeufYkCYboRJoF5MxwTCKf0LCqTTlULFYoyRgYY0sadgCIU/Wc0UQQZpBQKQFEx7r4T6j5rxcsYZf95rC6HTEYUaiVbf5QJtIOuRBOmgCAgxCjKlEvKZ20QTbVRRvATLOYE5QgjNw6YOQXbOUpsh+MxgB7mecDhPSM6x7c4dilACvS63PHUvJXCxwstyoMfMSB8lkVEizHNKDRmaE3kmvEsKmQ8pTtSuOy1peTzTBtfQpvylnOHEMZjgHOUQnScZcrxUdd3PhV+8xLfaVM5KeAEPj7KgUOgJw/U17aAyBTe6J6n5l327RzlDA4BJQeezDvPncfOUfzhNEHkQn0GLfzXeFDHc1OOtEu+oByPyhRDTg/ta3mhTQ2UWzw8eYZzjjl4E4444ojSRxrTjI13vOMdebrszVGRQ06GKWCMoBVGG2XevPZ8aAGY64wTCjm8MlB3JGTEqI70u75xJt/IPnRvjTEDpTakPQfF1Z6Mh3NzwnOgU3SnfB79yRTAVznaGYJpADHKGc3ouM1OyBcIcW7mG8jdL+MZkA/3ute9Cu9lTNftOTozksoIohOQ9wzd2oigU5BRdBNOAQYSHsxQNqeksSfPMDc9M5lBUaege37Ku3sUPWfQUfgZ2RRvjrDUMRj7rSPPPNNPvnjJMeC0QePmBVolX/AY+HP/KdfUlWmAlo3NssABwAmEh3KmCE4wBOlS5ijZTFdDr/Sg/cPhISJJp9JW2Twn57L3sEo9c1qGELzY3BcnBKOWfuDePAs+KVMsnZb1NRg9eEkNeEwLmRJuLshQ5OSmB3JU6heejAFeYZyNOT6HP3M4pLOs7tfY0FvMPf0Yy20B40RfSNmyTF8MaDiCh5xzi9qZM+iiBboYuvXMNZiDaDGBc9q8xRPRjTkG6M9AgKTWdziGc9zS0VcqVj/okiOuBveB9yT/sccLklfZk6cJ6AjtHBE8P1/elg7PrIMHZpYgXdBzGGc6gnmDBuETcCImr8n2fd8xsAwGvIe+ECfBQsASMoiVgKXcSt1icCByhMzLlBNpmQvUdURF8qUBmFwa6epQsCivmJgXcYhGU2goQjYMZ4pZZv8YYSqohJzUHkLYMxHkjEpCUsRR9JBwoXQwskymet1V9rmr7AlfSkIdwSMwKMcpDCgtlKCp9SfLPCemzYOagInWXltMqaYLzBikIe2YwYmByVYwXsaZMK8VJ3SI/hjjUnYwU4Ahp5JCkbFRptxXphiVitUPZRnDznS76tTs0NgntAIly9s9j6v1NtbdyLogWDmN3KP5A9DcYWGYdTgeAwyQTDM+vvTYo1oY5jlKMMOudRTleYaOKGsNvOX4FfozLsbEph9popQnhirlmNMGpCfcei5KPeVqS2RCZMozJZsxYg7Vglxb/50jwNvIgr6cR9NJW/5TeFuHDaUAUC4okzzt24sn4a14HmOH83Nq3pWLxw8FHy9hiMAbRd+8M49tjvFxRsa8FEi4b5Uk/XNGpNc/r4d3cSQAc0rEgHGzCBiwxmoeiERtK1DUGfqcKuQIHiX6RyYxHtEER7CxJ3dScdzW6y7bnuFhmwcMFFs6dOwZ/GR4AuWdwxGkcc2Z4lgkngzm1Eyg8DNuRMTRJhqWbmuP/jnHOZ84qDhEWv4nsoQGk67RD+caWiGzGZw13ZivZHQazgxRcs19cN7Uyjva4TAx5823TO90T+gJ76mB/Def3adodmY+kAfmPdlDnnL4wqOoFgNb9JdRbMz1gRYTvOQraVf7PKac7x8GLJ7CWUYGejbzss5c0p85BxzD6TyHRl7THq0yZtwjmcRwNEZkfWboHBnpzgn4o3nH4WW88CTtdhSgLc9eO6BkinBWpF7I8QG3tlpG5z1yhGZGS5a1zlh0zAmG3mQopXMt69sbJwYUXKFXBiSDm64poDQFdBbtbO7PvWwU6FBoWnR1FYATMowTZJ5DsO6P7kYGtCAQQR9rAY3Sm8hLhiZnsbkpEwWuGKP4h3tnzHKC0K3NNw45c8c54NlqZw3nNUcTg7t+G397D+1//eAfUssTOEjQErlC/xTowy9aB4cxhif6h/Eim8lBsg4f0S+gS+Lv8JIyD49LnpXX7fuOga0w8KOfHDkGAx9DiJa94xBsY3hvxvDujiHgxlCgQhYfCzGBx2AgY0QEx5hApTCY0BgTLavM9iGUWBZjCLgxCLwcx8QcY9KNwQwmtzD4xphsYxD0GAbTrK/wII8hiMYwxks/2odAGmMClS2ExayugzCcS71gIKU8BFm552CuY3hrx5jso+OYJGMY6mva7qx/4HIKIkI8BlNacwr+QijMysIJUvARTGRWti0HoWiNrgvCW1nGsu0vIsuFpg66/EFjZDiMEVEaQzkp1ULwjaEwjCHkxmDcYwiVUq4NWgzDZAyBVsrQYkTGy3EY7YWW1AkFYox0xlLe/oSyUJ4XzuAhlN1R2SJA16FgzKoEEy30MSs47gD9uHf3ZR+ZEGMoPuV64ZwpdOu6+guB2zbfbf/Po08PDFfmbkQl1myhIJdzysNoLriJKFKZo/C8zBYGTmlnvNwD3pBgHuA/oWiWc+HNH8NAGEMIF9qMdYtjKJdjGOZjpIaO4d0eQzkdw/Ab8Tr8Ch9EbxEpKXSsb/RqQ782808/ocSWzbmIDo6RtTPWvMnzupdQTsaIgs22MCILveBFeOn2mKd4WzgpCq/DO8G8eVdOxg/ebD4D/D0Ujq2OQ/kaw/gv5X7g3PyEB8ehxI5hpM3OOzAOodCtKTN3jF2sjyybOp49/9vrr8afuWxeLQJ8Ke97Xj30GNHdydPoLxTEMYyscv0wNEbzGv+AUxAK2Yinoo9wfkz2s70K4WCjYBzQLr5aAzoNh3MpCmfGaANw7bngJgybNeNo/MKxUPSDUnnODzowr4DrJj2FA6b0S78A7i2cXGMYwoWHlsLqhy4SUbMyTxWbM2EAVzXWHuLDiyAyHwqf9nyRYVCqalPTKjoOo7icg6O6T3MZmEPKa5z677kXAT7UgnlOdrgfepZ7q++vrT/vf2R9jZECO+90kUl0qB0BxrTWPZa5JlzW81wbPDRppe4jnBkz3aAuN75hzNVFk8fuD23Pg3CQjWHozTu9Ujn9JGltqiF6m6fDTNXPsnCAjPTrCChsF1mR/bZ7fMF1wnnVnlrz3/kIXKwpm/fHmJoL5ncNZGDSqHlu/gHzgj6PF9DParugbh+ZsOUe8LVF8tM5c2wK3JNz5jM6cd2aP0y16WV7JgZaubwX76At0FE8lLyUPEvS2aSx8O7x+FiDBEQueINEJ2rgZWpTsXmLE/QlqiHizcMrsgh4xUI5mqXt8TbyAkmnEg0IQi5eVNEpHjGREtEB64p4m0KAFc8ZT5p0lVC+S7/p6eOtVZeHl/dWSozoh2tIF4yJXer3n/UxIHOA9x0E05mb5i1qw3uvPrr49b/8unh8pXFmNESkgHeVtxj98abXL3tQz7lgfMVDKOWLZ9R4eTmJa6DZKc+9yLHoiEg4rypAN+jOWsL01luG0KbB57nS6LgfkQ7g+qJosiTcM8807600ZC+TAdIGRRv8d233v6eDcZJiJiuFB1lEKFPI0IfIjayJzEIIo6qsabMUI4TaQvTJTEAbQNqbOT6VwRKCuWRBeI8D2nINNCRSZ7xETUWPRbt5vvGVMETLPSWdoQPHQGZFKIDlGF2rj1fhZeqFsVaiS3iprA00AyyJEekSycQf1RetkkFhyQI8mAuhWBbaFKHZCIQiWjz0yQ+zD9cVEZw379TLtZfmOMCL2+OMpJcK8VNHR+BIxFGUoC7PuvVedDXTvEWs2jTvnHvZRt/GEm+ZB87jLUBUOXlAXR89ipCY0zWI2hkH0clQpAqdmPMi1MYoQRSrzqzK8p1tj9bRecsnE+fut8ZBODHLI0yNm0yRZaCOAJpfGSUSnaojVO5tUUql6FBNv21ab3sv85aDZD1z0VZD24ZekFDjSJmX0AH4tNWgn7av+rzjNotGGZ6z0TmufQJ+Y5sHdCl0vSPAmC4a16l7QCdJe3k+s+ryf+7pc1NgbHPZ4NT5LFvv/kQr52VQZR/L7qf0ibptTW91+XrH+GLyuPXqbst5vKHmD/P6Et2tM0Xm1VNOF7O1IDskaTQcrUV+qkMm2EDND0pB9cN2mJctVVUrc67NkMrzeI6tQ8fAqhjY68Qn/ouZgJEmY5IyFKQYAYYz5Y4xbb2SFAoGaWtMq8sAryEN5izLCVGvm5RmTchISa4hU38pqlK2KLnSbhjClFGKEANbCob0L+txU5iEJ74or9I1MSvpetZSSc2SQpmKoXLHqejW19/Vjinf4eWc3bb0Qwp+Kg/t2MwqxgHcSftKYKBIrW9B2prUF3B4pOlQ2BMYDFJ80E+msjpnjAgnikY6R8JrXZwyUogYINa6UbiMc94vJZgCyBjl9JBK6IU3qVyj0VQU8x70Ze0rB429FK9UpKU4MZgYW1KypfhiqOkcgC/04xlTGUTj+sr1n6mQRvSyrP+k0Ev5QkNwL7UJTtCovhiDef28xz1xb70i2D9SHdGIcZRWaHwIamPrxSJ1yiPlisOF4yRpkSHICDeGQBqZtaEpgDlP8DBGtXTUTAejFEsNlTKKj6AxhhD6oQBYG4c2jwjj2ctRKGR4FAcgZxxaSyMa/XEwchYBtK0fjhrGIMPLXJRC1gK6Nyf/f3t3HmxbUtSPfgOtgqA8RQUfD70KDqiEiIiiQrcIMoMoMkO3PhSFCAaVkFCgG5mUeVYEoWVUELQRBH4I3Qi2iAOOwR9I0AyGEjaGqL94Pxncrz7VfDd16q49nXvOPfecUxmx95pq1aqVK1dWfjOzamWyG8aQ+3Pv6o98aRu5o7OmUvP6eqe23T/Do3UWSaGUBh9QSI9yRNClMSA4TuMA8nw4H8hxT55PSyXSUB0TdDwe6SPww3AH/FlGdHX0Md3iPcz21DkcJRwQq1KcnUfWkHecfPUkrRSfe1BOvpwrFRAPPUeOOdTfc1/nmboduTpT2zfaNTgwODA4MDgwOHCYOXBWGg+IMOgyti/7TTIlMiHqC/wwXKc8sIxiBkhLjDYGSUsmNBMdDDG2GJ8B7/YzxOKBYuQZC8V4ZegCWYxq42WBdYY54BIg7XwRbAYx77H9jGSRBO1XnhHJy238IHB9FAjwaMcRMkg5C2IkBwRP3atomXFjIaAmACb7LFtvLSO1BdM8jQxRMgTQIADF2DAGO4NaJNgxz1EWA0+/a5MdM8gan+a5GZfDqEaimM4RSQLEABlg1bMns8h+XmztNjYo49LqweaP7AIGAIyxgIlIKgL0IwZ2HDmAiPcBCG+JHOGtMUKAGl4xwIFp74aonXWG/zrPdFvvUV337LyHQKzxrIAq/pEXk9GI8HunjcPqIz6cZSKNyJIMRTZE/9tolWhaZhAlh5xpdAdnGZkBigExkwwZZ4WUM0GJujlWgEdZLkCy8ZSASHSjsuSYgw8FSAPQgCodJXNnGQFwgD4PPBk0r4MJXUx8R3dqF30kAsgzb0zcbsl9k88QZxqHgjp574F6TjPyS19ymoq206uhRPiXRYg4RPpspJwrC0Fk+sLidJtyCOAhHcUJ11ObodIf01d4R6f0U1/WtmiX++qJs4KzZSoC25flHDyvjHcN0UkyKvYiopg6x3JwYHBgcGBwYHBgcOBwcmAHmHYLPZiWEgMYMPZEafpPjGx726IWiT7mXNvtvtaTLt1OhAYQMsmBz+sAYwxA+8zayShnDAbsiSAAzAH3STkCGIF7AD5RbesxrNOew7YEKDgJgIeQiJuIV7IARICUSWQ35SyBGL9VxDA2QUhIunWMdfxmeAPHQC6wIOomOiy661wE0JtYCWBmYDNSRcIAHNFnn1kQdfRsARcAiDPHc/TckYkwGMEi6Zl4TDQMoHFdTp8873pC9weoA9sBzDnM4WL4QL8/x9slcA8M4i0wwBlA9gARQEiEHe85cKQTH3eSUYJXZAOgBeA4NbzbnjFni2cOxNrfRgA9D+e0lO1VEU/l6RF1SR9PtBOQ5JCTfUD+yJn3AriTeSNTRqaE/Rwj9uedUV+cUgHSynE2en/IX0+ugZwLSLtnk9YBsuoVFRf5BKq9Lybv8j6oD6DeDXE4kOf2k4IcBrI/gFzEeUF2gXc6VDu83yZi4bCSSokvmZjIcxLhdQ957+OoU194aR3hj+ub7XaKMgRIqnye9yZp3hwzyRyZqnc/9hlOhExAhhLZn3Iq1wLjb3BgcGBwYHBgcGBw4NhwoIJpBiEDCjFQYwCGC7zyosWMOwD2VEiapV9IirG0xxht2Z8l4xdQEh1icItsMTRFB6VtigiKuEjbFZUybkKka8rQPqd8zgOYYhgyWIHPozBmehNnQCL84eu2S89fNC2E/55LjGhgMqCZPJEVMsVYly6L58pzfEidBCQ8IwaqcYrqBpAZ1wAoA1sUyjonCsCl3LJvGwJoy2bfTJuzBNpa4ggQUWzBR3u8XzfkwX0DCsBfxvoC0sCXexRlJG/Hncz6LNLoOQNqHHJkgjOljQriI7AmiiiFFx8996Qc46NMCHIWvlquApyyXaTfA2AAONnimCFXhqtI8SWHgD4nIpmT5i/yyblHPjmqOE/IdDIhAqS1yZh5eqkdYmF/SBo6h5DjrgEwA8/0jnZ5N8i2bAbZJbJ2gG3Rd3xC6sBDkXKytY6WvXeZR8L5ZXKVCoo5SjkWORsyO652iUYbDmHcsOwKzwe/M3dG34YpYMkxlpT8vjzHhfc5QLo/PrWN/97xTd/TqTpOZZ/hSHScDBo6hGNCX3SYs0/Itpmx28yuZTwyf4F+ZLcReY4o73P05bLrLNvv/eWUijNtWbnsp6P1O5Hr7F+35HhuHUXryo/jgwODA4MDgwPHmwNXZkwyXBmLbXS4ZUs+ISN62KZhTgHW9jx1oyx12tIo2x+jssyet2Of46IrSCTHdRmRDHIRF0AOAErUj6EpGgmk6wiXtYthDEADXtKKrfeTXtSLjr+TOIDXUu/zA2oYRWSH8c7AEjHyU8bzEB0XARN9FomTWorfUrtlBABNHCDOAVBkDiQy7Bkam1xm1a3fH5URweECZPgsF2CQsbgnNXaLHYwtQN7EOAzjdeRezyvOJVFIIEhauagfIGQdoJYubBwq8OHejzMBZCKZMguMaTYUQUo0eZJNAtQixqs0aYAaAU7ecc8nP4CPQZ1tS+m2y0jdMiF8k5d8eb7kEKjnlJOuixj50ryV5/DhsPEcOekAJVFa7XE9gJhsKic9GwgGwDORDGOfnAd401+ZK0KWhqg4+UHkRDkRYQAakCbXhi24dr4lDNyS+U1laZP3Tvq8TBJ8MSdGOyEMYGWf8f5S0YFG7+yll15aI9PAfU9AN8fJlHODjvcsQ/oa95sx7dmfpeP0uH4ABTyJ3iMOgNNBvVPZs/esvesXlKwTfNI3HWaipzYdTkAXy/jaLTnf0KpNiRy0P3rakI12n/WWOGn0Och7aDiSd8y8F5x33uFVxEYhw965QYMDgwODA4MDgwObcOAsnRGjAeBlLCAGYdtJATjttjJmLQ6JmPj1JKrcnmdCG179nhiR/SRgUicZqgxRacHG3hrDemEZgyeNVrq2zhlptzGwDM5NPco6WBEpxmI7TrBv29ie5oCIEkPc82XsxvnRliZXwBRjHJA6UbIIpIlKKUXkimGaWU6V9yNbUr6BCaB9k28bbhPhatsoQsp4kpZN7tcRIAUYJuIuLVjEhiPH2Gr7gTVOJ+M6ATiOAynkx5Ee+tCH7phYjIPBD1CSoQC0MrBFrEWQPA/OtamxtIAz0AaQtgT4Se9vidyIAie6S/7IiCiyJfBMX3CqmZjQsxOpltIrbV/kkVPI9cgrJw5D3DFAj26T3SI7IROKub4hKTJFvBPkigPAdZB3hGxwQrk/QxZSznFlARtOP/LoWkg2kInupnhSC0z8JQNgk/cupwMiwFIcHBwbxkTjBYBuAjXyLnLPuQn0c0zaj9/uJQ4KddL3ItoyBPAi77kUb88yKee5vucP1PvqQyZOE9lO1JujQT+Tfirn7ceS3OpjEnUWyfecPXdZBnEqaot9HAmb9j370d7d1MmZA3jKDuvJmHuUmbitk0HPxTCrfuI2x6eIjKd+gJZ8LHMKkZ9cj9xxuPSkTzAMoyUZTbIcEJnMZJuek+FGnhH9TEYBao6kyBRZ9+xCnjlHH/3g15OJUpcFHfqyY3twYHBgfzigPxbYSKCuvQq7dFlArS031gcH9pIDV7rswx+bf8W1/q/aQZwOI+VUG88QSxpixswuq1MEhRHHKJUiKnrKGBDd8rJJ99Qxrhpju6zug9hPcbTOiVVt4FxgCCZ6v6rsumOu2SotgNfsvQwjYARIADoYlYiSk84XZQd8bNIO54gSAlMMPZEfRvwyEplmqOW6U+VEOxn/iQ72ZRj1jiUi3h5PxkSbjtwet+4eGW/kCkDsjUx82SQ1t6/3MG5vI5+5P7zD555v+LoNpfNUlyhq/3UAgI6zJBFYsuMcwNa16L78cl37pcEyqh2jR+gL9ynSuuy5OicTKhoD3WbzpG7LtpxtbZsCZBcWB6L0ZlF9gGMTYmwA55u8d6nPOcYDA7106zLnknaLuIsUtnoh9WQpypeItLTxNr0Xf6bGmOdcukDdbZ9E79PVm/IgdU0tZTjJJlimFzhJ8I9jI89PfzI1XpsOWjZJ29S1t923m/dqk2H2kgkAAEAASURBVGsAxfrFduJK57l3DkxDLgxjaImzhY4u31Vvdy9d5+iKs1pUX2ZIgGx/kr5a1hkCpsmfLBGZLH4tiDYExDEAmVxFDmVbGP4lm45TS9/ls2aIA51jDPDOcAUTIOojEFkVzXacQT5FsiNWye3UOWPf4MDgwO45wN7UH9AH0f22vc/e794mHmB697weZ27Ogb5fvtJH/+nj8//n/x6TJG3OwoMr2T+809ESioqRTYn5UWwZFiDCF+WmHOXmB4TEuAE+WoN4VZsZ6epp611Vfhw7szhwEPK5Gw6QYTKNWoDX1tWWaTtnst2eGzlvz93rde/FlLNnr68z6jszObBf7xWHk0wMEWd0WXEuy6zI0AmTLPZgWlQZiE0K/qYcY/zS6yL8HCJm4hf9z+z7fT3AtCi09ogec97KUAuJWstokc0A4KtTuy05kDilOF8A9GQ55FxLGQ/thJredwCcw93wI84WfRmnwqDBgcGBg+MA3cGBx9akQ1rSH7NHAe04PXPc+0t3xtGe/WM5OLAXHOj75ZLXvXPM0V5cZNRxtDgA4FJmDA7KK4CXArPfPsfsR5QXAB2gvQk3nO+HNgXfm9Q7ygwO9BygBPtOuS1DDgOYWyCtDNkm98qQ+9MhqwNIt09nrO8VBwyXuKCM/Q6J8mZcehsFznFLkWWZGrK7tkl3NtTFsAiyDPR6v9pJ+wzrAZbbTApA2BwbIsYyfPr5TWQtaXOMaFkGqVOE2aSZwPrU+9NHl0WoDfnKfACAPCN+gOn26Y/1wYHTzwH9LYp9mBYAywHS+mn2p31++mb9vP55gOlwbCz3kwMFTF8xSdh+XmTUfXg5QCExRkTHGBe2ERCNKDD7/CgtICXKrxbY8I9xljpyjQ1PHcUGB7biAPla5uhZBaRdJE6lyOpWFx6FBwfOEA4YRiONvR1e4Z3I97tN3DVFxsgjkeJ2roCpsu0+s+gDy2ZiZ+xaj0MLABYFf8ADHrA4RV9jnLMJBM2XYjx/yisEaJv8rW2/fioTARpfD5hLWe/J7PptRoqJL43vR0njz/CENp1dOvw5Zb6HQYMDgwOnjwOxJxOscWVgOTYjIE2nxCZ1PP3zANK4Meh0cKBOQHY6LjSucXg5ECUWkBswEoWV/bnDZVEL9fhFOaa8ffE6LgM5KTuWZyYH7lSGJd7xafOZ5WGkqxTn9zWv9j+zq8z/T2n+lWafnX3R7JP/5yqzz16RLDH7wuJ2vOYX/XfptD87u/KVygSNV3a8lPvc8cN4z6PNh4MDea/e+HN7117OUZSo7qY1Rz8nc2OT88xhcGEZ92+iRvNXmGDSN+fjmBIVNuFoC3CNtzf+GZnsDfjmAAgZD73sk1fmTRDpRr4Aksi0icZe85rX1LpcS5+jHmA6s+ebwAz5BJr2+VIDkg7fGut15/gbHBgc2HcOxL7M0nuboYbebfYkGxJwzs8+5Xpbc98bOy5w5DlArshi21+56bPe+PfXmD3zJx43+8D/uuDIM+Eo3GAUyum4F4rIBErS5xgSDCnXFzVwjHEEOCP7RQuk3tnHW+jzQYyu1CPaoZzZev0IpTpN7KR+55gYyoRlgw4XBxj8h5V2Auni9e6A9BeVOb++7Kqfmv33pwDpko1RgPR/NED7sN73aPfx5UBSpqVsb/OlAeOqkZTtTQhoN7b5CU94Qh2Tzfg1g7/xyqK/vuJh5npfdWhJ3+JzhUBurtket+7TeiLe/SRyL3rRiyoAF5mWzu3TmciXAs4rn6Vry5uhX2RcW8w8nklNnaefy3YAea1o/A0ODA7sGwe8d9KzW1vXeoIuceRxBAYsB0SnUSLV7FDHt3UYpo6xHByY4gBHDuyif/rwR/6pYJgvnH36M0VmFb6gfG7kPm89f+q8se8M4kAUyulqEoGJB5CyklpDMUWZSbtLpEKbGE7OQZQhcIwoQedYKt+m69mXKElfXz15/B0KDiQivZfRs9N545/+9GeLQ2deZZas9zSff0HpnK9w/kwd78uP7cGBveJA3q29qk899LNPrRkjvA2YNnEYkGqirnWkL5C6DbyaUIyBKyqtT/FZSxOfPf7xj69jsDltWwqYlpLtc4r5lJ5x2qLWgLHPaHHgtuQTeWYpv6RMIMZhIBKOGNXGT/uMW8i+fF7T5zkHDQ4MDhwsBwBgeoLu6OdkYCvSHYhtuawfDpBWjs06aHBgLzkAh/nBNL6EpS8lc1eM7N/LK426jgQHWiAN5AbIM0DipRdN5kVEADFl57iyAdn2LQPSYRRhpBhzTvaP5eDA6eIA2eMoWtZBk+lVHfjpaue4zuDAXnHA+Ghp0NuQSct8u3kT8s6IYBvznPfr68r3yX1f3FIq9u1vf/sapY4TVr2AtJm4fRpRG1/3utfV70P/4i/+Yp0N3PnSs32/ve0zpHff7na3q9+1P/vss2cnTpyon9qSRm5WcqB82We5lt0P416GlQi+vm3Q4MDgwP5xgC3IZpwCwfb75Z233lOANN0TW7TVLX35sT04sC0H2IlSvMkhOSNzaPQO23LyGJTvgTShsY/gIEuA2hL4CJCOcGU/ZbcOSCvLA5ko9jFg77jFM5QDw1g+Qx/MaNa+cEBk+LnPfe7im+jtRabeBcDy+c9/fp0UrC27bJ1uf9KTnlRTrfUfvmEuUmzs8qte9ap6mvHKZhD3bWdp1uiiiy6a3fWud12cJ3p+oxvdqM62fb/73a9mNpkIDegOaZtx1VLvTD4mQi0qftvb3nbmm9QmGJNufvOb33z2+te/fmEA5fxlS9/JluotGr9NBH9ZfWP/4MDgwHIOsCfpHrZjQIr1/IBtx0WoE8hpl/QAvRPHuPOWgell+5e3bhwZHPg8B8gq+ULw0ADTn+fNWCscoGCS2t2mXROa1sCisAhQygLSAd2J7q0D0oPhgwODA4MDgwMHw4Hv+I7vqN9b/s3f/M2TGgBw9t+YfvWrXz0DYn/wB3/wpPKrdpiADMg1xhmwfcMb3jD70i/90nqK9G4zbt/pTneafed3fufs0ksvnf3pn/7p7L73ve/sGc94RgXU3//93z/74z/+4xrhNgnZYx7zmDoruG9KX//615+96U1vqmOeTWr25je/uf7MNK4/+uAHP1jHZQP1H/7wh2ff+73fOzuvjJv+kR/5kR1N9s1tKeg9+Ya1vk9EfpPU9v78sT04MDiwHQe8tyggma3JFmVXCrwEZNtmf8qQtM8yQNqSvWoZwJNW2HYe+3QA6nBlLLfhQJuVm8DilV7wlv+aX/NLrj67z/duU9UoexAcmFIMe9kOSiYAuAfSos+UVxtBbiPSylN+hEwZHkL1UYyODTraHMi4zsM6ZvpoP51xd4eZA/v5bkmn9k1mYHYdGXNsskiza29DDFbp5De72c1WnmaiMVFgE1DqN3yP2rrPXcVB21bgGJBr1m+TWzKoRa588kv0u/1sVn/e5ZdfPjtR0sCXkTHaaFkdy84b+wcHBgdOnQMcYyhApa2RjSoNXKotOzPgGngWkWYnI2WUBcDpE3qoBd3KOEZnDBoc2JQDAdKc0fqJyNu+gWlAShqWznc/ycvkhWjJtXOD7f7Dvr4OTFMWbfR4N/dLUFALgCM8LcBmyLge4EwZUVwUlX1p51EH0nvB7908ozPxnP00+A/ifj/5yU+OSNRBMH5c8yQOHLV366QbHDsGBwYHBgcaDgQkByA3h+pn9WwD02xTPzZnD7xjt3LEsdVa25TNyp49VXu5bddYP/ociEy5U/N++ApEaKlL5l3veldNufqFX/iFlJ299rWvnZnNM0SYfbpiih73uMfVCUbe85737PgeF6H/yq/8ysUpANgLX/jCxfaqFWlWxkyFgGbebilcxkLxZkn9usENbjCTkrbOE556jsryDne4Qx3Pduc733lxS0DBu9/97tnb3/72Gjk2Rm4VtSA65TyjRJntE5E2qYyIhlS83//936/f5RS5WBWR/sd//MeZ2VmNkbvuda9bq9cuKX/teLSXv/zlddKXXH/d8iEPeUhVpNL0tHMTMpPtiS4yIRIiZdC9idRok0+6uK+eXMdxk9rc+MY3nr3yla/si9Qoy73uda+T9h+3HWbK/cM//MO1t21yIBMLkTefztH5bUI+Y/PgBz+4Fn3f+95X0zzXnefzPHe84x0ni9FZ9Mm///u/LwXUsjCklK4jzqYf+qEfqsW8L30qqXfVp4GmyERPm072NHX+2Dc4MDgwODA4MDhw2DgA7OpjE10WcUaxCeAIlIwV9hj7P/stYwuqA9mn/ADRlR3jb0sOtI4bchS5SjVnXSGS2fz80hgn3370GYqnP/3p1YMDMBBmY5t8D9gsm1Ng+iUveckMmBaVvuUtb7moFFjxKYv/+I//WOzTILNzmgxlCsiloBk1fQ+yBdMA/4c+9KF6DaBOGd+dPI5kXNpb3/rWmQldnvzkJ8/++q//uqbWSeMzeQrAeetb33pr1ng+lFI8eEntJky+0YkoKcqO8osyA4hEpnOecsa3Gf9mspmLL764Oj18MsW4tBZMu2bqcZ77Oa+McyOT7bpjSFtc2/dFo2yvODKr8mEmVhPRtERuTxQwTbYBHOmC0gOBlwc96EEzIEdqIjmfIuDwAx/4wOwWt7hF5QPgpW0+2YLfPsFiPOAA07P6iRp8auncc8+dnV8+yWfG3lA+c+MZkrnIAIeQb8VymrXrOc/zDwHCZvn12RxE15iQ6BGPeESVR/uMybyspJS2YJpua5Wjtpi0iKyGOOqMrUTkjZ5riQzxjt/whjdc7OZwDJj2TsjoQNKDXvOa18xuc5vbLCaAIqd0GhlCSXWrG+NvcGBwYHBgSw5k2FZOo1OjWzn6omNzfCwHB84EDujTI5vsAXLMxox91/b5yvmxNcl2yuQ+2KHKt+fk2FgODmzCgUSkI5NsRZ98bDOjl0amRXdNBsIoBchsMxbNwskwFmUBplsyqB84Ev1kjDJiY7ACuQC2KOYUmewkE3x85CMfqeCqBTLvfe97Z/e+9713nArsi0i51tve9rY6U+if//mfV4NV+3LjjNtrXOMaO849ahtmWTW5C7AL1JmF1Pc2zZAKLD72sY/d1S0TIiSqbLZUUUBAguF/t7vdrR7jRTTRi5laKSwK7Sd/8idnP/7jP17TwKPEzLD6qEc9qipFoIT8AKT3uMc9aj35O68A5xe84AW1nuzT8WfSmnadfOXZ9tFP4OWcc86p7XrZy16WqnYsgSXfIzWxjklpRJpvdatb7SgztUGWAXIy9m//9m8V6JFHAIzTwLFrX/vaU6ceu30+j+MdjXcZAzgu8LDdp8P8nd/5nfq5HDPv/u7v/m7lleeIPP92ve4sf8q2RA6Bb0SH0EOAOLlBot7ktyVOOrIE/CKf7PnEJz5RMxVsy8gxfjJgGmjudZn3D+D2CZ8pMiOx91R76SvfuDXuRrqQ90xGBkPg4Q9/eD3dONBBgwODA4MDm3KAftTfxvbRF/uFsm6ZMjk2loMDB8EBMsumFEyLragdwHGAsWUANXuzJbJsXzvc0z62sDpWBenaesb64MAUBwKkHWMfkq0MQyC70bk7pbKriWEIQCOGnqiQqDQi9PLFgVfGIMNPpMbnL4Bv33wU3ROZU+5v//Zv6zETjEyRGT3N2ImAE+cwgEP9pCdSb6Wdi1abpdN1XRNwdK4ZPxm8SLuOcrokpwfAEP55bomIisBxcuyGCE2ixICEyHc64AsvvLACaGUQZ8tznvOcRSQaeEKEDmBynhReUbcnPvGJFVAAFjIS8pzqCZ/7E0l/5CMfuQDKwBdwg7IuEg0EnygR5inioCEX/ay0bdlWLnol3ZZr18kemfu5n/u52VOf+tTqEHjFK15R2xV+cP5ccMEF7WnHeh14zDdtpViLTHM+0BXom7/5mysv03nKMuGYIDN57pbturIAubp4n0PmanjHO95RN+kSJBMinS1grJPtiQNq2XdoOQOn0v37OlZteweAdA4cn/7hNEI+4XPJJZcsHAtANx1Gnw1AXVk0/vaJAwxO2WdthsiyS3mvOC7j9F5Wbmq/PijOrKnjm+5j2HjX0w9tet425dJfrmsvXR8Q0NZvn/at60+cj/fXuc511t6PLJU4+tprtevazbDT3waUpG/VJrzTrujBnEuP2r+fPM21ppZkMO2cOj72HV0OkFc2IortlLvVR7M/I8stoE6ZLHvZTZbZuncw54/l4MAUB8gR3Ymio8iavoFzh2wqQ44nwTRgJsKMRHFEloAbY29TIfAkMima92M/9mN17Cxg9MAHPrCCYUayqAuAhe5///tXAMJYXSbg6cQoV5Rt6zGyrTMy1Ye05ylPeUrdTvRRZPC4jJmWan3Pe96z8iKdJL4BewiYAECyzRi61rWuVY+t+6PcPCvCo+7W4DLunSFAoDwbzwHfW/IcHZPK2kfGyQGAIh1aZFo0vT8fmHYdabuifmZ1bdff+c53tpfbsS7dl0MF8UxKfzcOtk3b3XHCFhtSht23sdJkEThL+q4UYvcGxHtnREkjl1tc4kgVlfZOjtJZtkA2+ygskecWFHMKkRtGvChuv06BAdM9cfDFgRJdQkekblkU237ep7/GbraBccMBZD5wHnJIcSwgaeZ0qkyNu9zlLgdm2O7mvsY5h5cDdCQdTT+uI++gjI5t9RkHNycqm0BfAuyR/7ybua4+hI43BEJ/leEROW7J0WROC7bFFD3rWc86qd6pcjLaZFlNEZtGP9H3WX1ZmVacYvRJS4atcQ7qJ1YRpzAntXk6+mEw7Xn6bwGLlKMjfCKsJXzleKMz6VSZXc6ja4FwKYmGSWkz448ujCF4u9vdrvbty+yy9jr9Oieyvo/th8yPkWF82uw5ydLCD59G68ms68oYpudzaOuInOp7lxHHRJupJIjDkRrCb/eLHvrQh1YdTC6H0zIcOn3LFkizL3v5I58BMsALu5au8vzbjDayHzsirXeefQHi2T+WgwPrOEDG/Mgj+YEfrJOzlmQ9xuFK3s76fALQ54uZJMpkVtKEeTPPOeecOpmY1Gm/EBCk42AcUtzGn1L4FBgALnUy37BkLALaOmP1mRxMhDKkk9SRAifGVv/ar/1ajTg5brIqdYYoXp1P0syB/KynzHFZclbojOLkcN86B/wM6bSzrdMDLDYhHXGERXkdkU7cfsLl+VJY1k2ilDRs2yKRyoswenbtOFJ1eYa++Wm/jl1UMKm5jqOAa+0HOkS7+/V2grwrzprVCOLd7373mtnAuELaBkzr7AOkfB6lnQxPuRyzHspLZA4A98NQ0WYOHaANeM7EfAxHWQG2XTudQeo6jktKR1RatB4xXBh2PNLZx8AzhrgluiYy5blPrbfls25oSgx+12ZgmSwssjyV5u1cOoXsThEQfPbZZ9dDjEfOnZ5kiDj//e9//45D5JbMuB9zGwD7dODjH//4HfXIAvIeAdODBgf2mwN0OT3cgkEZETK+6DkAiC7Le6PvoC/ZBXT7JsQAftjDHlYNYO+899i7JKPH+2AYEvvBPkYLZ6Rr09+AH3BIh0aPxgAPEE/WU9oCALNL4jCmj+mNdu4W/R/gFjCtHcmaUQ89L2vqxIkTqbYuZdqZBwPQZ7+YPLMl4Iweu6RkmZgI0dAo7aNv0IXFeSa7qyXH2UUmxGzJEKk4E9wLXcEu01bOhH7SQjzzrJTTJ+t7BDn0r9oLUHLuMg7pRN8Rd136Sv+WPq5twybrHMr6ceeba8Sz9o1vcmRJtjhH2H+G8OBFHCFAkaFjyhr+5Reyrr09AeYcM3m+7XFOBvfagmk6mW3B6YH3dDgwzdmuPfoKNkTs1La+sb5/HMh77ApTQNp+skquABtLeojMtICaLUpvWIa8g8rY1+7P8bEcHFjGAXKjz4ojhtwlCLPsHPuVmbQcdT5+SdVVmFI0YRCPrU4RMQopRp2h8i5s3CHwqxMEio1BDTEgpeUqo26KnOCHKHgdkjI6F52izlaUrzVyeY6lfSftUsfC+wrQIw4AnXO2nbub1LS060xeMrx1MG3EFW8YIojn1/OQou/5TJFny4gJMaJuetObZnOxlDqLtxSU8awmfyNEDB3f+rQv1yAPyLNz/Ra06sge/ehH12PKmICM4SBKkvHP0toIth8QzJDQUfcUQ8/+RCrNwC1iKU04YFoHDFTJpuBNxzegLh5+Slrk3T0G+DNA1BWjKYpZh8wgY1AyMBmIhhuY5IwBJVtAXeQ51+/bfVy2GZUMvJaAZtHqAF7HZBn40SUcdPRKov2eEZ1w0UUXTc7Q36c/kkfPBLXLGOQxxGuB8pdUcMNB+rpSxjIGHJnXzp68D+6rPxYZzVhoPDGuWnq6tO8Mz+jrG9uDA/vJAcMs9LHJONJfG8ZFT5ooUl/MCWRSPAYvfendBMA3/QIH/ec9ll1CZ7qGvtiwMdfX1wBanJyyk5CJMgFD825wgl1Qhsu0Q770ByGO9Haojv3AEX2BGEaismyXUO9Mdg3tBApDbBWBgRCdRccD00Cb/oJt4t4ANhlIADYjTDl9nj65NcQ4y+iC1lmG/z2JvnKII/cHDMoKoDcAU/1ksq5yrvbTP/rfGIL6UP0/O0g79dHabD89xfbSnvAqdW2zBJjpbc6PzGnDUSLjjF6zH9hxPTyUfYMAaM54/OF4Dp/cp/sVzFlGgHbqUcY9sik8M3ZFT+SF/Og/tIdtyB6g782Boa9huzg2aO84QA5jD7a1Bkg7zqZqbfu2nHM5m9icqct2D6gjOzk3aeN01qDBgU050AJpOmtKdlfVNQmmp07g8WXU+okCW+oIeVARgRZp9tkjHWO8ijy8JnjyqSHEa0ixiUJPEU8lhRqa+rxVO/OzcozSS4o3uKV29mYRp6NqsMbL2957ux7HB2Nm2Te/RcvaND+GzBSYZiBQapQZsJwUCEJIyUnrahUlmdBJtc8CcAH+TVLHeOFpJ0c6dJPbSQUTkQ6Qci2ASNQ6Qwba+7PuGs7RbrOY67R55XvixAFwpZ0bBqA8wxFFPhhFifJzAFD0KZP6GIIMNpEK7carEyWK4T5FqQEl6wyGqUh36jkOS+9+n+7IOSES4Hn3xOhijCYq4zgZQJ7XMrrsssuqDMpsEbnxa0m9LTHUQ6IZjifynP3Lljrp6L22jCg7J+LUsbacdfJNNhi4IYYyw3/Q4MDp4AAQmCFCrgfcitYCQkAW4MwxC9BFj4nwTgGWZe2lb+lBEUwAkROdMwvwoicd13dzcMpmC8VZCYByjAYMy7DihNPvsQP0Rz0lum2/d5tzM3Mo9GWzLUK56rOR7WfwkoWkXe5Nloo+wT0i/QW9l75ZJDiTUbJ72ih5rp8lcNGCeE5w4F1fe2GJbLek342D1/42MOE54id9pB/mENEOOpdT2n68Y2uxyTxv19gNuU8ZhznfM40zgANSf8xpyEbw/AFfkWK8k4EoKIM4Aziv9a2c8H7sQee1JFDAuS7SzLkBfOMRcL6MOBE4VtgJZFm7rJvsljyzFziIplLRl9U59q/mAH5HRskg+SCjAbvAiuPAMvAyReSbbIYCsHtAneMc5gHekcccG8vBgWUcIIeJSJNF8rotbQSmKTlAjEdQZ0YBSgXTMbRe1lyc55PiRoTeGJp2O+WmlqKkbWeS6PJU2exrx8TYR0kelzHT4cGyJeUD9DGQAGAdWOvVdZ6OzW8VPfvZz67GFnBOWenk29Q0HV8mohNdZljopHR4PNUh46AZLgw1JMqhHoBLBBPI0fEjY7JFSnTGiT7wznPMMJgymR0AIs2NAZHUwFrBxJ+oh/oCmFOEQcc46/fneLtkDOrwOXq03bvB0WA2cenoHE+yJURUehDX1nMc1j0bhkubOZFoMedGS9LvPBudq+eMOOY4ywwVSGTYxHOMQrKVTjgdLqNKhCspg/QO45YeSpk+zRsQz9jltj37uc6oFPVryf1MRaraMmN9cGCvOACo0lEh/bT057wn+lGUzA3rHJ+AE4N4k8gP/e5dBJLod9eTMQTc0pHeOxFwTsj0Ca5DlwNkfaaIqKJj3vtlEa04BdTDMaesvmSviAOYQ1gkU7/pGsZge39D9FeGnplEEeCmx/THq8bn6i/YM/19q5cuBBj1r3SafpjOTJTaNmIY6sc49wB/OtE+xAbQb3H4cUKz45wHhOwGfKiD3AC1sr4MnWLDuT4nMwchR7U2cDzL3HItPDEvj6g2eeMEZfedd9551Vakty8szgMOTsC/JQ5I8uIepGrHHmV3LiPOGtFoTlp2q2fY2jwyzKSp4+uUTbus3rF/OQdaeaQvvIf6dhQdo18mD8CLd2MTWgWoU/8mummTa40yR58D64A0OSZXyvWOvZY7a8E0YMODzIstpccEUNKskfSaKQUsOgm0IYqW4ZjtunPJH2V7okT4KMgQEMWIBt4GbccBnlYdD9Ci0wOEpd2/5S1v2a6iUlokQUSXIvOTmhfvs8pEMHTMiDdRh08OgGQOGNEBgBfgNsFdiGcY2BfJ1ekCWjpKJGIOhDFcdILWAXSdZwvOlCU7b3jDG6yupT5qTTYBtGWR775Cna4XyyQ6vPAxfBiGvFvukWF1Tkk7G3RFxESUHyAWlRZ1wh8GDqNauh3DmvGEdLqRAc60zL/AEcJxwSAXaaArWvJM6ClG6zbEiGsdQ9ucuxdlybR3RoTGOHyZO8Z6HtWhKXvBs1HHqXFAZhld24597p072ZatE6JnEXDEHlhHjFq6n/MT0MpwIg5HOp+ci+rG8G7ri8EtNRwpQ1cDTfbJ7gC6LDM8SDl9U9opCtunefdGu3rZNRk2po6e4gC0n36Pczflwqtsu2dOu3ZemGR7tY49TlnAM5H3nD+15MTltOVwFOEToQdEenLMdfW/yHbvJGZTBcQoM8V/+9eR+SE4E8gDcOr5yDgDntiGeC0SL2OMg922TEG/fEaVc+GS4sxWV5uVGGdE3wZ1KAcUcyZwrqhvlV1DXgB+fQ1drw79DecRIAfUszGSgdFfc2xvzwEyRwbJn765BbrBDRxiyji2DQD2/AAb75K6LW27puul/u1bPc44yhyg5+IIJkNkZ1lEOmXJE1qnI1eCaV5EE0mJAumsgBrpwDpBnTFFJtWJJ69NN9J5ZdygiT2kPGW7TSduH5o0KqC7TTvLce1IalX2jeU0BwBcoNWYNwBYmpSotIiwZ9SON5uuYXovj3kbZbXegmkdFUDdk8gEkC3qoKMFnIFkpAMmXwwRhpN0rZZ0bMbzGTqg4w1YZ/ggnvCkz7XnbbPO6OEk4GhoPdXL6vBi8XAD0ZS3d8H3hqUtMxjIr3dFtACYZvj04H1Z3Ud5v06T08GPHFrq+ABn65YUW08iPvjI2UGWIoOMRfItfTCGIlAswtEPA0mdSTujS+Jh5Mzx7ERTThfFyM31KHVyQ644KhmfdKp7GzQ4sB8cyLwBeQ/aazhGf3nfgI9kACmT9DfG66YERItmi3CLVCKOXg4x6boIkKEjZPeEfDIOAMucCwG0spXYCkh0khNURDMEXKcsI11bs50y7VLU2nvXRsbb41mP40FfivRjrmUoG5DbzgHB+c9RCCCKerq/EKerTC/207bkeckY0A8BoXiL6BAAgsHHXvPsEF0rmq+dnHbOl2moDud41spM6d5awZo/csIJaDIz1+HsNDeEYX7AMAc33Y7/MtIyPj/VSvlmO3Bk6DdluIX6Z5Zt9qVz2AFsBH1B7r/XranLRKFkCXiWmccRzhbldOEYMameduuLBu0dB5I9kucCMGefq9gmyxw724Bp53rm5LkH1G39yg0aHAgHyCF5IzPkDbCmM+kockMO6UJlLMlYdEv6vtTVL1eCaWNheFcpPN5YHZ8O0H4XMy7R5FHGGmWSJheQasvzHGq3Aaop4iVc9RIsO2+qruO8z9hoY0s9K95aHb40ax094yQp1KeLR4CK6LRo24kSSRQZz3hVIEhKXp92LlJhQhWypnMWkWQgALsMBh5onmmpc8C5qLuXYTcEwDDMREYZFevI9RlzibjjK54DQFLE7Ne5U/IiEdos3W4ZwFt3veNwXKYCnmVeBffMcQccM8JFIDjjOF4sGW2euXH0Ui1FdS4o0WpywShqI7qeFwOOQpRhw8j0vE1Gg8jaecUQ7428enCP/+hR8i9CT1YQJ5H7py8Zc3Sgd9TEOGTft8wHDQ7sNQc4uJH3q9VNgJH+gxwCNu2kXMpfVoZEoHZ8c92x4o+9QI45ugBRANi7y4kqA+WSEpUEyryjIRFnOh8ICniVGkxPA4DSdAOocw5nGcA1lWXSfyki51hy1tPTiRy3x6bWE2SgQ9gleCYdWV8E5CH3Ckzrc6XGh7Qbz9vMKl9B4ZwNsamA01VErwUEMxBt5+f54Q29qT/i0MVnDkO6R4BDqjd+MybVow5GZfsMXJ8zgq2nP1tHsg48a857qfvANL0sPZ1zAS84S8Ij9gm9j+hG+k4QwPPTn+NR268LEiDne9aZSI6NQXeyJ+yfIvqdHUGmOYf0JfobdqsMC/tbR85UHWPf9hwgV2QM9UDaPvIWOSZr7fN2fB05n2x67pvYb+vqG8ePNgcAYiAZaI6uIEO2yV9L9Cl5tNyIXvCW/5q/8k+KGl1BpcOYlyjiZInSsc0LYFscK8BiXhTjYrtfKYp1Xjq8xe7yss2L93Jebmaxb2qleLXnzm2pKL958bi2u+p6AS/zorxP2n/Yd5QHuvQWStrsvKTEnnQcf/AOrePxSSev2FEMinnplGsJz7x0RpOlyUcxjCaPLdtZOs15mfRmXiIGy4rU/Y4vu25OJCNTfMlx1yppg9ncsST3Bdjs2NdvkF/lUIl49ofnJXp/0r6juOOOT5vP/aaoRP/nJZ2zHirDPubFmKzrnkuJksyLs21ejJodz6FE+edlTOfa97gYpwu+F+U4Lx7HqSbUfZ5VUZjzokwXZegi8rsXVNIdl+pJ9dNJZSjDjjKuPaWrvDOtntyL9o06DicHVr1bp3JHBbTMS3RvUYV+XB9TUo/nxQBe7G9XvMclO6TdtXJdn63OAmYWyxIJnJd5DaqOV5/j9CydT1eg4gCel+FJi7q9J8opX4DavADOxbGs0L/KtG1XtgC6FKlLZYpTYLGvZFTVay92rFkpY8DnJStqXsZ+1/tSXB+CLwWk1bNLxkttS1+V+y5Ad/FuF2favDh05wWQL35tv+d+C6is1RTwXuv03Arwn5eoam2Da5eAxrw4KWo5+q1EYasdVqLf85LBU/nFFiiR8nnJTpuXLLB5AZVz/Tid6Rj9iJxPT9qXX6sza6Hmj71VgPu8OMnnJZOh8sFztA8VMD8vw1eaM3aukhE8YWN6NsURsSjQXrdkL9Y62TH4T6Y+VPoPz4/M4mEB5ItzrZQhYZW/7BBtIAslk6CuFyfOvDiS5vhaHCE7zhsbp84Bzynys8r2JHfKeUa7pVZOdlvHOO94cKA4B6u8sa/IHf1JB+o36L3owXCj387+Mrwkq3U52wRM7zhjbBwYB3Q0gwYHzkQO7JfBfybe62jT4MBR4ECZuXgHKC3DUeaALoDV/lpnYxnWVYHMpvdf5kWYuw6Qec4559Sla5QhDPMyvKZeT79m3Y9DivECFJVobb0MQxwQAq4ZQoAa4Foy43Y0o0w6ugCeObAOTLtP1y/p0jll42VJFV6AaSeV4UgVFJYZxOdTYJrzULvdf8kcq4YbMN2D/bYBLZjWRs7j/AQtgGMGYUmbn5dZueupnleJ3tbtkuFSAW5Jo67Lm3zHTer1gA/PssxlUZ2Z6igp+HPtsbTN2ARwlhmTaafn5HmVNPkKhAFjDoBNwHQZq1z5j3eecw+mOU08V+RZnnvuufWHj3GI4Ifz1GHJKVQi1fUcYJpc24/vjnk22siJWYYIzMukj/OXvvSltfz42xsObAqkc7WAmmyvWpJHemDQ4MC2HCA39GP0Gx1ne5kzxjFlgOyWlOfEa4M3K9O8iwIaNDgwODA4MDgwODA4cMQ4YCyvlFpDD0ziZJhEMRxOGnYj/dX4femaxgdLv96UpO8a/29Yg/GoGd6QlNoCMOvY33byL+sF6NSJM0tEus4nYH6NAoRqKmfaasyxtGlDJKR4Gs6UyVH79hVDqE5cpj6U8W+GfRh2lC8F9Odts21MsEkVC9Cr85b050pFltps7g/jwKUXm/PDGGpp7YanZNI17e1TrrWxT7svRl5NT/Tckj6tfsNhDM2Tai69VpqzOp/3/OfV63mWhphoQ+5d+rlhL9KtDX/SlnUpjtLGC8CtQwVMIOp5SPfWlgzbMywqn+gMT3yyTJq265lQFO8KSKqHzWkh3du2oV5S6IvxW8fGGxJgpnTDeTJUAU+klBuXXkByHY+eseQqNIO5lE58MGbf2H1feylR7druAtLr/ZpIzRjqzMGRto7ldhzw3MgXefOeRQ7W1VIASk3BXZauXYBQlXXl1LttSvi664/jR5sD5IYeIJeIfqXfyFUBxXW4QKtziyOxyqOyOSfryvu1sjrANO4MGhwYHBgcGBw4lhzQUeoYW9Kp2q+zZYQfFN3p6Sdf+Y17NIze+FaTOBpzakyzL2+sIgAE2NhmxmPjdc2XATwZW2yivfbb6lPXK9HiOgYW781F4Zomd/RFgJC2A20mjzQRl/HKZmzuJxEDFIEpoD3nu2djiBlLxm0D6ntFQKz5DoylNmY55P5NVOlaZIsDAMg09wPAa+6QloDCdc9D+Re/+MV1/C+nhToYjOayMYs54I53mZOiRFkqCFHGONMSPaxyz6mivDHFxrP7+samgBIg93zx3b04v52Y1H0gYB95jkC7TwA6x3ocLECX56jdIY6JElGuX2kwTp88ANc9xYliXgyfXuPUaCnvsNnTTQrXknqNU0cmO52aSLUtP9aXcyBAOiXIGLCC/6scMwE1LWhJHQHRliEyPGhwYFMOtECaE4ackjUOQ44f2y2g1jc4HnAd56t9yuVY69C5kjTva37p1Wf3ufmmzRrlDooDMfAO6vrjuoMDyzgQo3+vDP1l1xn7BwdOlQM6Qp1nOkhGWiIp6nY8xPO8KbDIOXu5zHvV1rmX7xjgI5rYTv7XXqtdFzEWtdwGbIhcApUiqL4AAtTe8IY3XExo5TkAMMu+eKB9J8rElW0EoG2TKKPnwyjKN6jb4+06w14f2kbKREHbCcLa8uvWgV2R05K+vqMopwEZwqf2k10+JZpP/u044XMbZFDkRDuBC9FdoNzzcQ3HySogHCNPnSKsIr+Ap/0lDb5GvPHMzz51AtPW1WE7gAQ/tBMY9ix8mjTvxlQ7232cBGYyb3mqfteyxIdcx3lm4naPMgQA/SkiJ3kH3VPqvqxMfneiyMI6cn4i4SZdIxccF4P2lwPeZTKK4rzw3udZkkXgIzLZtoZMOJ9sk33n2G7lNDJPNv2y3dYz1gcHeg70QJrs0E/kLJlA5E8529bJn3LRxfbbFyDtWDJecr0Kpp/5jKfNPvC/Lsi+sRwcGBwYHNiKA2XM9FblR+HBgYPgwFXLpP/XPKukb5WL/+/PfvHs/yu2X+lTZ19Qfl/0BbPZ1a7yqdlnPv2Z2ZWvUr5/Oj9r9tn/KR3oZ3wvdza76ln/M/vfn7ryrBzedwpg3m8wve83Mi6wJxwAShh2iPOgBRKJoiS6pwxQArSEnKsOYIYhGAJ+gBbgx/GDdBylTWN5+DjAcQKEILIUB4htsucHrJBboIRsktfIKBnMceco44ecoxy5beutB8ff4MAKDkwBafuA4hZMq6ItG1lTjs4kdy2Qto9cfuRj/7K4+ll3+rb/mv3MW88vO/wGnckciCI6k9s42nY8OTBl9B9PToy7PpM58NmCokvyVuk4pXBd0dLPlOxB69eYXQGkr1I6zv/8dOksy+Ev/oKSEnuWiGAxBMuZ/33lL55dAWnO5LscbTtKHFgFpN0noxBYCUBRnuHXAmqGIgp4qRvlL9FjxuIAKuHKWG7CAWCXTYrIoN+UHAEmfmSNnFqSR7/YtFn2AFqdzu3ldpP2jTLHmwNkKVHm1olI/lAvUylL3pRPlsUUkA5nr3fda2d1NsZML1gxVgYHBgd2ywGRtHSIu61jnDc4cDo4UHBGBdNXu9r/LDpURt6nPnUFILna1b6wdsLpdNMmne9Vr/p5AzL7x3JwYL84sA5Iuy7Akche0hZ7QE12e+PROQzOAaL36+kd3XoTxXOHyWaI7C276wBuxwOmyZ/16FqyGFC+rJ6xf3BgGw60QNp55A2Rs1CyewKk7acf2bR9RDrn9MsBpnuOjO3BgcGBwYHBgSPLgd7po9MEPoAN0Tykw1UuBuBBAY6kex/ZhzFurAJastZTC6TJ4VQZ55DNgBPbDEJlRVYSobbPLwTEOG7J2Bw0OLApB8haoni7lZ3euWMMK1LfMjnftH2j3OAADpCjOHpajsSJGDA9BaTpRedbRkeuk/XPD6pprzbWBwcGBwYHBgcGB44AB+KJzq0EmNivYwUqdJxtZAWo1hFn/J8y6XRTz3Fd9vzclA8mC2OYnMkkQmbCqt1QAME25+IHwGvSMDKWCJ112RIhcppj2dcuGXqt/ALYwLNnpf48M/Wa1AxQd23l+oh1W+9YHxxoOUCOWiDdOmjactusk21EB/sNGhzYLw5E1iK36dNtLwPLZDL6c1W7RmR6FXfGscGBwYHBgcGBQ8mBGH4aP+WhdjyABXhuDbl2vQU2AM3pjlJry36BUKDKJ6Ze//rXz/7oj/6ofoLo/ve/f/1ske/29mSm5G/6pm+amQX7Ix/5yMy3hXvyjeD+e8iA9IkTJ+ps0dt8WkvdPlvkXJ/vQgwi3yb2fegWQNaD5U/bfuqnfmr2uMc9bmY28SnyvJXpyfevH/zgB9d7a2WgL9duezaPfOQjZ09/+tPrp6r+3/KN5il64QtfWJ0z55133uIwefINZZ/6Mgu4b2iTrxh95NaM5ueU2bx9I9k2vvvMF9n1bWrg37Inn6m6wx3uUL/hDFDjlRnZL7jggtkll1xSQXRmXf7oRz9avzPe1oG/SBtvfvOb1284v/3tb2+LjPVjxIHoU/IOeASQtCwgkzne7l+1Tr6cc7r16qo2jWNHkwP6O0R26djIXQuk7aMvc4x8KsuJNNXfhFOnFUxr3KYdVBp4qkuMSDg/dem8UPvZihyzxLipF3vZ/vbcg1yn7E6Xl7lVgK5re0q5HiQ/9vvap5Pf+30vo/6dHPjkJz85aaDuLDW2zmQORBfqd9p+IPuXAen2ngBpel8f4n33O1NIh/+qV72qfqvXJ5fufe97188jrWuf7zj7Hu/f/M3f1HOV973gl73sZVXmAd8YHX1dz3rWs2bf8z3fUz/x5BvBfr5T7du+yGeVrn71q58Epp/ylKfUbw37/BLgPkU/+7M/O7v+9a9/0iHgFpj0KSoA+W1ve9tMfT/zMz+zo6xnA2T7fvEv//Iv109e5Vqisb55ne9Q+6wJ0l7fPg4BmwAr/kyR7xQDvCHXBPY5IrTL9449l1wn5Sx9gst9cEiEX+wMBpq+0499FLnUDttkTxnXIot3vetdZ0972tPWfu5JPeQXYAaCvQeMRp+lIjc3uMEN6nMG5EXG//7v/7421/PHh4BpcuE8oN23sn/4h3+4va2xfgQ5EJ0ZO5jsLYtIK0vW/KzTry04Wcceujlyvq7sOD44sFsOkDNyTNbIqF8vd+Q3QJo+JsfZ53z94jLZngTTPKG9B/Ie97hH7Swo3Z58e/L2t799VbYa0tK1rnWtenGdjY7oL//yL9vDG627AQBYSF79ftZ5UxkGOnTe6Ac96EGz1uuLcb5x+exnP3t261vfenEtHm5Amie5JwrB/fBQt98m/Iu/+IvZfe973+odbs9xjW3Swhga8Qa39ezFOi/0Qx7ykNmd73znRXVAwbvf/e76PN3bc5/73MWxU1n59V//9dmf/dmfVQPsDW94Q+3cXWcVeVb3uc99anTCtykROWPYfNd3fdfi1Je//OX12S52rFlxzwyPN77xjVXw1xSvh29yk5vMTpRoR0sf+9jHZm9605tmv/3bv12/u6pNT3jCE6ph0Zaz7gVznNF24xvfePbKV76yLzL7mq/5mtm97nWvk/Yftx3efe/TOgIIfv7nf74ajIxF79YmxLhlcKP3ve99sze/+c1rT/v2b//22R3veMfJcu95z3tqJGZZxMdJ3qVNrsMIToTP92LJaEve1T/4gz9ody3Wv+/7vm/mN2j3HGAM6j+ACjoCeXYhutgx73OOW9fJBkjrdEUy8+3cnHuQS6Dq7LPPrsCM3geOnvSkJ83+7u/+bi2gpnv11/rL97///VXf/eqv/ura2wFIgVjvs28bA2MPe9jDqvy6NrroootqlLWtTJvU//jHP75+O7k9lnXgkjOgB9MAtL7+T/7kT+q78LVf+7X1HXroQx96ksNbRF2kXNlExulnIEDfdOmlly5AcsC0/tgPvfe9763fjRa57R3waSfZCGkb0KwfdN1rX/vai3YCpAB5wIhzPC/2z0//9E9Xh0TbN/znf/5n1Udkk0x6NiLLF198cb0cWcR7+9k7+JysAPYNPaPNbBv3Icotkk2O6cfXve51C0Pylre85WLb/Xgu+HWjG91o9m3f9m31HH018h3rRz3qUbN3vvOd9Tn4Hvh3f/d3L77jXAuNvyPHAe+M/pd8kKsA6Th97CerygAZIWWV2ZRyjVxn0/NGucGBbTkQp00rn62eJ4M9kHYNOpR+dYzMbwWmGQ3xUqrsOc95zuzud797Vbpf93Vfd5IijRdbx/XMZz7TKQui9O9yl7sstqdWNPDFL35x7Wh4b3U2bdQYwDn33HOrQeNGgJ4v+ZIvmd3qVreaXe9615vd9KY3nelIdQYtMXYBbilKPOJxEOiMdGo6aaQzZbwjjHYt7WnB9DLDXsoVnmxKz3jGM2aPeMQjNi2+cTnP661vfWvl/5Of/OTqbecA4Bj5qq/6qgqyW4fCxhUvKdgr0SXFduxmKEkBFNlgJDDGRER49lswHaHPye7nvJIa99Vf/dWzdj3HvRBk6EUvetFJAIzR53nf9ra3TfG6FAU5UcA0hwqAQx4YNMALgwXIwb+Pf/zjO87LBnD4gQ98YHaLW9yievUBL22T4offDKwv+7IvG2C6MIwBjE8tecfOP//82dd//dcvdnunUTpYSgxxCDHGGeztej1Y/lqFCAj/1m/91iJ6wuDl+PHORYlKa73ssst2gGnOkNYo0BYGPlkN0TU/8AM/UDfJ20te8pIcqksyBJDd8IY3XOynWwKmAaBkxTB0Rcpuc5vbLJxx5PRd73pXlSEV7GYM5uLCY6VywDP3rHSUfmSKvHjWjgE7gIr96UwjT55XgHTYqUxP5FUfqI79cpT213zHO95RAZMoIyeUPpF8iije737364vv2OYYANSQ92lT4oi9293uVvtd7/MDHvCA2bd+67cuTtefchhxVIVEYYH9X/mVX6nO9Ozvl/pFvO5JfXSF94WjzLOiY73TPbmnF7zgBTW6rt/7iq/4igp2ORroZMYQxyengAg7R8Cd7nSn+ssxdU9FlemD1ohik/zET/zE7Bu+4RsWQFp72CCAO0cd24cdIfJL3vBA3wLs4pVniLznnMzaxO5xHUEIBCjf8573rM+JLvuN3/iNqmPomQQ2PvGJTyzAtHNsCy7o+7RbP0W/4Y0+1PPQf/3VX/1Vtemcg5R57GMfO7v88stnJ0rfCEjTd7EbXNP9nVOi6/pvcjfoaHIAeCCj0WvRnXSd/ZYh7y2dSW7TZ+fYuqX3Wd108bbnrqt7HB8caDlAPlsd3h5L3x9Z7MvZ77dSRstHp0uZk6mAz3kBGfOimFkPtUCJ8s6LIbooXADEvBiD89JRLPb1K8WQmRdQOy8RvnkxnOdFiddf8ZwuihaPa73Gwx/+8Hnp9Oal81wc61eKATv/lm/5lnkByfVQierMS8c+15aeCtieF+/wvHQK81e/+tXzkgI2t69EJet6AeB1WSKh9dQCxmo73G9+xcCtxwo4mn/jN35jf4ml2wWUzUtK1NLjuzmQ5zB1bnFAzEva27wAwHnpQOv9ljS++Utf+tL5j/7oj06dstW+kgpX61W3n7YUA6DW8Xu/93t1O8csn/rUp55Uf4lQzAs4rc+kRP/neKpsMSZOKvv85z9//rznPa/+lClj0k5ad7wYDCedmx1kz3PwnJdRMXzmr33ta+fuj3wWh8uiaEnbm5P5KSrgf17A4LwYOPNilNQi2lk8+nW9gLd5MZ6mTj2y+5bJp/14493Ob2qfMvQD+pd/+ZfF8y9Ouipfnne7HvkoHf6Cp8Vg3PG81eNaxVhelCGbJYVxsW1FmWIAz0sGzuSPHJSozI5z+g3v4BOf+MR+92K7GCDzMk5zXgD/vID0+m46WIzi+l4Uh968gJW67j1ZpVcXlY6VtRzw7IujbF6iKyeVxePi4JgXA7Ees55f9uUkeko9Ic+zGIN1n/1TeixlT2VJNnuit1pZSz9dAFxfdOV2iVhWHdkWojP1qy0V0F7fEXrbO0z/FWdDfV+174Mf/OD8kksuqWX0r95NpE8n085Rrv+pA6nXexHSLrYFe6Ptd70j9Dk9UYBfiu9Y6s/pEjaMPqo41+o7pi9EBSzPC3Ct6/mjr7Wt11NpdwHvKVr7WWX1SfSC++1/bJSSLVPrZHfoi+gW+73bLRXwOi9ZTPPieJiTqZaULw62eTHu6j0r57qI3tCOKdtHXcXwmxcnZC3LFlBH+qfifKn3Whzw9bg/91qcjHP2WMkirPdWnNiV/56Bn+eOp+530NHmgHczujBLOo5epEv1u6fSR5F19dKd0QNHm6Pj7s5EDpBDck0W9ec9kU0y6nhra9K9LU2meZdCNXVL5PfDH/7wrCh0uyrxfPOW8vaK9PJgTXmUU740okaVeIN5i6Uq8XiK3hh/g3hIeWZFtXk7eXN7EgHm2ZWuZJzTh4rX1Vge+6QZ9xNw8GJLdRKR5mnmtZdmLhIqYi0S6nq8tEm3Kh3HTBoTUqaApa2izn2bT9e29DWe+qR9udfckwicFJ1TJRkD7dgy0b+kgqm7dK6zAkoXlxGV7UkKL89/MQKrV78A5pqFkPTKtrzUbZO6JEOBHPG4o6yLRIsM8KJPEdmQ8me5jESiQ21KXvZNLb0D3gspdQWYVc//K17xitqu8nLVU0QfpAsOuoIDxhOK9CORq+IwmxWDu+oE+8gXXhbFZrNmlIgMk5k8d8t2XVljKNWVqLNzResS9ZFuiURSEjUUtZnSWaI+y6ItdJLnfirEqym9VrTbuEf6BonwFSCy+CyT6A99+a//+q81ulYLjb9dc4CXuRh99ef9bL3LpaOs9SYanYuQDxHcnux3jmh3ZFUZuqP3Zvfn7uU2veXnfdCn6udEjfsMnKlr6gO9ay21PLG/HSpE14t266/doz7zLW95S41GedeQd0Of490yJCz9sT4Uz+hp2TrJHiPbMlZCImDtO6xPl3LcUtLMi/N29uVf/uW1HfqJAgJrMf2CLCd9t2wj6cwZMy3aKjU871xbr/7I+12AdL2PNhtFOdeIXrctXdt1ZNUsGz/sXtgYxZFd6yUf+ghDxegZQ8mKcVbtJxFnusnwIs/BtdwfnovMX+c616kyJ4uF7jQuex2xk/BXtpTzHvjAB9YJ19wjIsPaIqNPGr5+Fn+1i80g40A7RdXJueedezUMC08GHV0OeOaJGrtLcundb9/R9u5Fq1Fvy5Fl9if57vtc77zj9vf6t617rA8O7BcHyJ+sJEuy3ffh+nlyiujwZfJfj9dSE3/SqkxAAcS245iMrQFmpX4DV1Hs0sWAo56kKzFkKWDn6eQsS6R4URRoN7OmzkO9lHxP0pJ0xjoTqUjSIYtXuLZBJ9oTI5wxJEVJmpMUSkY3o12nYaIS6dmuK/VYJ4JZjAD1AXIXXnhh3Ze6paxJp+47+Rw/iKWeaLl7AAAZQElEQVRUL2lgKGCB8gL2EDDB4Mq2TjMpZLXAhn/qblNypdC1YBqv2+NttZ6Z59pSnCaeKeNLp9/KmbKegVlLGXMmm/G823XjuJaRdN/HPOYx9bAXhONEun9vKC07f9V+KcNJC2QUMiAZRkgKsXsD4hkcxpdx+hxnYux6tygs1Haq2UdpGcfYKitOIe86g71ElU5aZxAC0z1xosWBkk4e4EjdJYo223ZG4f4au9kGOAwHoO8YsPSLdwNJsTTsga4yLKYHN7u53jjnCg6QNz+A2nvbOoDJn18vk4xJspP9KafG1jlJrumXlDvdPI+RS3fSOZzI63QcgGuYC/Je6BtbBzZAzlGY4QneS/cnJZoTyLtFbos3vzrC6WZAUV/KUW4GbUAWtZN14XscFNZb0ifHEKcLgGC6PoT/0qoB1IyH1k5DLYzpRYChZ+b6xi+35Pwp+qVf+qU6jwgbRfs5e3tHsHdS3xNKf2u8ecZb51i71Od610P0jyAEXuIhsPKp//7U7DWvfU19ZsrHueM+yKDJ3ZTXfrJmOJrrcjbEUWjOBbzTrwP6+iQOBSnanp3hapwZCEB+9KMfXa8PsLOPOH7pHuTeY09xSNLBgiAcNRwSnjnnX/sO1BPH35HhALnzfMkc/UL+7AuoSD+aG46sKkvHBhg7P0DFfvWEHIus9wAmZcZycGC/OUA+yTYZnJJDMkpWlx1v27c0Mv0P//APFRwxTFsPMjCmo9OpUbqZuMTLAlCbIVTnY4w1SqfJgC1pQnWfxrcvlrI6bx5vnmMTYvRkHDVwzwAFZkr6WJ0cShuAJG1qo4yi0V5uY5S0UcfF0DBmCLA/ceJE9b4D1Ori2UfKAd3uGcC+2c1utoj4upaO3Pgunt4zgYBU3uMYItqk80sEwLZ2ZxsfGVC7IZ9E4VBA6pRNEGLIZVIX+2QtkBGAm3HTZjc4jod4KUOBctbJR5YcRwHXrsV441Xv12Ub9AS0kCljbI1DQ9pGTkyeEyDFOADWW8qxdh85QuTBGHxjz7SZ8cYoAp4BasRZlAiNazMMjwpRKulQc0/hjWWyCHIsS+PORaUZbYgjxnvoXcs++sMY4pZEZSJTnvvUels+6yIocWC4tsgO4zK6iEEKQPRkHCiDdYqAYIYq4jjpZxK2X4aI8xm7LZFbMuN+OOPo1HPKuEN6rq3HmGuG8bo5Jtq6x/pmHIickmGGIlmIkehY+qOUU6uy5DLrlo57xvnVgwfwx4BFAFH6S2CXXu3fo755AGBAoD6RXHtHQuRVve0+x/SlxgrjHZAsus0Z6pNPQC2gaFuWkskXe5L1FR0RQ1qZS0pWBqIXkPfI+w6QsyUQR733ih6hg/QpxjyzF9gO9LH3Wn/OmPeMvfshdgmd0xPgCUhnfhQOXO1vqQxRazcX6/itLW3fm4P0BX0SuyL7OQbZOZy9ZE7Q4uWveHntq/BUW9QbPcSBoD8ni8hzU6fnn/HueO+Zcdzqcz0XGTDu2X2Zy4ZjlwPPuHLPUSYbHRiQzSbT5hAeeP7a5Dz1yXxTTtZCHPcpP5ZHgwOeb4C0d4r9Qk6982Qu/b9jyD6yGb05BaSVTflwSb05L+fk2FgODpwuDpBrfdEUkNYGzl82wCYyOmk5UtI6szblsQXUQJVO7MICbNM56nyBIcahTpAH20uZTkqnqHNBGpfOIt5bnl9ATaTVC6qDFHUy86gXjyLnUdUJiWJKQ5JW7BwRURFyhmrAEU+qNGDHgHDRWUBIZ8Lg0EHw7pqACqhCrqseE3khUWwRdAxHnAE6Mp0hsKhDSjpbLXAAfwxvUYY2GgG4coYgkQI89Eyj8PpmcnSIqIbct0ndeuKpjjL17NvItM63NRxiuDC+tCfPRZ2eoWcJgCMpc6IgIsmRJx5wit0PCAbcGU895dnY76UgM4wfS2nCAdMiDowDciGKgm+MtzgHeKjIinvMBFIMG3V51igGN+OTQ8J7wDnhXWG4iJTgCRlWFwdPrl8rOIR/rSLxLLyLkaMYeOFNgEd7m4z1GPvZz9gXrQ7gtV+WgZ9IDkcYB1Gi/Z4Ro8+EPpxbPQUYZL82eiaoXdqPvOctJcLDKO3rasslo4Nh0EacUsbQE/fVH4uMctohPDHTL6ddjNTUMZanzgE6yruaPkaN1uNlJrcB1J4Nuc67nasDSORcWT/nkh8goq035U/3khMRcI0zyvU5TLcZikDHArLSvjch74aUaH0DAO29AT5N6qUOYE6EOfqyrxOoi0M9x2SQ0ZH0aMA0hxLg7X1jNwB93hcTe4mcXlbSkL1j9Kz+Qvq58omuev4cmnG+uZa052SB5NqWnLgt0UHqb2lVJgsbgq7qid3gmj3RMecUR1rkzTbA7N7JGOc4edQ/TcmZ+2d3eBb6dPxkBzH6nOdn3czonA+29bVIBh4nh6U2BEg7xg7T95GH2Gz0nKwxjkj9s+P2JWPBeYOODgfISgukPWs6j6zShXSivtM+spmoM6DR2gn0ZY6pYwqo2OcYij1xdDg57uSwcIBsT8ln2/5NgLTyk2AaQIyBqRBjOCDKNiBqZk8ASmROJ4m8UACElGzRF9GYdPYid5lB1MuYF0knCXgBLjywPKsiS5R6Pl3lBffpG+0y/od3WtquzlunwPjW0YoUAm9unndb2pbOAPCWzqStFxYQqF06Ym2iIOJF57GlUKTBaYtOlbc9qezukcHCGNZ5G+PknIOkqY68bU9ALY+4yOoUcULgZ4ghMgWm8zkr5XT+LZjWgYsK9MTQacffkSvgn/yITIvWAe86drz2zESkA6QoZYCIo6ZPFc+1gHjnaLehB8Ca59OTGVbJJxli7Cif6EvGm5OpRBo4AHQaKZP6ZDYwZt2XduPViZLpAExzQJFp6wzLqUh36jnTl3jvfQjA9F5Zt4/h56cjxKMAj/6eOOFkkrTE2Ja+6Hn3BIxyTLQGm3Ygz2sZeVfJoEiT99KvJfW2xMEWYkg6nshz9i9bAlTRZW0Zuk5a5NSxtpx18k022tmQRak4JQftngP6Kb/IZWoiu5FR8kp2A6jbzjJlcp5tP+UZic49E4ismnNAxFbaMT1qnWMSycABsvTNfcpz2g+UcWLTVZuQuVLwDIh3LsOaDsSTONJESNuU6LZeTsr+mP6Uc1xdIrIyewyjymfr9E0I6M25+jLvmefm/trnJ7oKnHKQc5oC4uSB44q+Ad45VE8UfT1FIrGt41eZdcbWVD1T+9yj8d6c+QhIN9zMUp/DLhJEwA+6IXqVvsU7x8kg8hzoRTrP/SVS7BxOaUu60DkhhiOnMjuJA0R70tdxjgg26BvJgzbQ9Z6DseZkid0nWAJcDzpaHCBjZIp8BejSeYj+y5K89GCZXHn/2fT9sVXvTuqtlY+/wYFDzoFJy4BHk4fWxGDGTANsUda82RSyyN95JTrNWAZYdYAijV4e5XV8AAfDGehWl2gdkt6ZlwwwFnX0Ior0BewAyYn66qAZmgC3DoCCFx12nk5RpBPw1jGls2Gs6xh4YXW46pYapi4dUPsip1NxP8qrx7V17FKFdUwtAZImVKJEznRynwweBhBPPYAXD37aLovAbxUxpKTRhXjFW5Ds2TNwQsZrMRo4RVoQLJLBWcIBgpQhHwAXpw2QYzw8KjMxVy85cJwUfo4MRpdIepwgAAhDgCEkIt+2o1bU/HGqqC9GRA5pJ0dOvz/H2yV5IduipNrOScHRwIkk+mGcr+jKBRdcsJgcpz3/sKznXbLM+2JpO0A6/LIPH3oA7tmIMLWZE4kWx2AOP253u9vVZ8M49JwRUMAQ9u4mMizjhGEsgyR6JNFfkSyGYMZRJs1bu1KmT/MGxKeiVmnXfizpIU69ltwPXTpodxwgN8ADGY1cpib7Irv6GuvKBlBHl0fmHQ8xNO1vQVuOHdTSxFacvvRodKl+OVFIfTgASt9OgWlOZcBSH5d7X3UvAJ/MoGQacSKKVHJ8Aa0AGgcmHun/lQv4Tb1siX6fvtWP/k1Kt36Y7hddjVNMvZxV9A7HajJU2vlV3AseuH7uC5jWbu3jFOfcBQiTfZa2Zckx0eoq+93jMtK3TTmp6a/oG/KDx+7FPvUDH67FRpFNwL5JFJ4cc+6KvpM7ciqzjt0k0ywAmUOOnOIV/Wbds469ElnWdv01eZBBALDrr9lEnOhkSaAhRNeyE7wb7D5OG04K9fkEm+trr/MHHX4OTAFpdxW91+oHMkbWyAI9qv+N7CnXHzv83Bl3MDiwGQd2osTPnaOjEVkGFHROJsdJ1JGiFcURfaO0KWHpjSIsUl+VA4yAYgpZmiwvqHTGgGmAPOm8IoEmP+EtFgEUUUY6V79zCqhGvO6Mhj51SlsY15S7aGc6EmAaiT6LXFIMiMHekxQzk5+10TBlgM+2k2nPy3XafWfaOm+z5wK04IEoNceCmTm3JYaNjj8kOss4Cknl5r0OAQsMBrIg+iATAOAlH6IaIXUA5bzhDAhAK8MLRCUYHiLZno11xiJnR2/wMO6k3G1CfdSanJKhFvSvqicZDDz15DyRW4CMAeIevUOR3VV1HbZj3iNGnU6VU4ph5adz5WTIe2ZbGUQORHvoDs41egJ/GOEMcqmOnA8MfKSDjgwwIqUyej85QhiuFxQnBefcieJIa8m16Q/gexti+NN1B0VkmiFC5zL6OfCAgTgTD6pdh+m6AdLaDEhH9tp7wGMyQh7jHCa73tk4WJUhuy2pG51JOt/9eQ/IDv3FwRvHkraKUCdKbbsl747sCdk5vUOrLdeuA4H6aP0wBzrAy6HIeUlmvcPqxF/t4pQG8uLU0M/T832GSK7hHtIveCYcm6KxgKwxwOyIED0bZ1n2WXIucGQCy/ob9oQ+z/vEjkFsGVluIr9shlXPVH+mn6ObOO+niNwENLfH7eMAIGvkC/Bwbdk1bB9gFhh2rwIKeKqPBVA5DTxX946fZJUjUR2AsEwa6+wo9es76WRyqz+iJ1sC1pURfJBNJotLvYbZiOLrl/XTssYMqeKA8Ew5LNuhOOqki90Du8K1Bh1+DpAFskN/kKsQ2aJnWl2qj1dWOeWtO5+sDyAdzo3lseTAsu9Ml5ekUnmh6ncofb+yeJXnxbs6Lyll9XuFRTHXZVHu9btzpaOs35QsoLZ+e9c3eAvIYpnMi4JOlfMSBZ2X6FHdLp7W+u1nZfyKsp6XiXjq91gLIJsXQFW/Cavu0sks6ihApX5L2Q7XKUbBvAD2um5fmf23tlcdJXW4fptR/b5bidyP71MXT3e9vxIBq/v9FW9t/RblYkdZKZHdHd+7bI/166WTq98sLl7w/tApbWv/MsJnbSxR1/r9yBLJrd/6xLfi7Kj7Smc6L4bOsiq22l+A547vTLveMtIm7dD+YlDVdmprAVN1X/HIT57q2ThWwFct51n6FSBdvw9ejLXJ89qdrutay6gYEFVOivF20jcTp74zrU0FrNV2qLsYHXXdPRYwVJ+796Sk2tU2239YqXSOO74BSRcUA7B+k690oPW2yHr2lXT9+j3V/n4LiF68O94z7x0qhtq8gOS6Xpxk9buydaP5K4Zo1SXFQK78jBz5dnpxEO34tm9xptRnUaIoixrICLlzL37aWwzrxftNdzleIm+Lc3a7UpxyO779u6we8lGyaRaH6bXiaKzt8v1X677Pi9+D1nOgAInFdyALOFl6ApklA2QqZL048HbIdI5Zet/Jt99B0Sq9v9s2FSfz0lML0KvfPF5aoBygN/ESv9kBPZVhUjt24aNy9PnUjx3QkvdyW+qfvetET7V12Tf1vrvvEsFdFKU7Lr744qp/pupxrNU1ixPLive4gOGF7ER3biJHdBSdGSoAZl4yBassRlZzbNWyODrmJSW+Pqcy/GmyqOfoFypZOid9BzvHxvLocqDva8g7WSN7ofT19G3Ie60cubZsj6XMWA4OHEUO9P3ybBmY1jGVaE0FQYy7Mv5mXrybdZtB2/6UW0YlCliBhePFs10NRedS8i1R6CUK1e6q6wHb6VxLqlIFv26kpAMvyjOKALUyJqnuK9HLefGcVmVQvNTVyC7RnkV5nWnAmftrgdluwTRjHqgt0bNqoKfNi4ue4kr/8NrqAqa1vaRKVyOAomPgF0985Yv7XdaptnVtsr4pmC5ZB5XPHCzFwz8HWoEJP6C4pJCddDkgi0y5X7wsUZB58ZJXg9dz5qTgkHHcM1+lwMnaKjBNJjkCWoMiDZoC0465d3zUAb20OG1KOl6VH+0pHv5FB8RhY1/rBErdh2FZInK1gyRHOteAirbjzTH3UzzV1bhuwYr968C0d9VzJqshfORYwz+yAlx6Hq5NT5SsiypLjp9//vn1NHJeMklSRV3SW95vbSoZDrU+70GJiNfjJeJV5WvHSbvcWAemOfI4/LSZ0YpKGm59P0r0beGIoBvde0lH32VLjt5p5I9h511vZc525HIboNFyiGzk3B40uab6vQsHReRl0OHiABmNXLb68lTugpyqkxNj0ODAfnKAjNGJ0XtTQNr1W7tA+b2S9f28t1H34MBecKDvl68ETF/vutcu+08m43PKy1JTLqW/7YbUYSyrdC/jbcpLWSdt2m196pCeJW20GNkbN8l5UkRbKoZYTSs2Q6Y0lVDxaNcULGOvQtLGpKme/bnP42R/uyzKZDEpVzHg9zxNU7pNEYL2kot1qVwmwuonMMJvaYrusXTwK9PaFpVtsGIMnXFUZv70jAs4WHz/sz29KOXK4wJq290r1z2r4oioY7unxvvlZONhtSPfHc3+dmmyFCmGPV9SxrUcSzpi9luawIWsSVlcRqXzqOlx5FHZfhzZh8oQiAyRWFbHQe8nU94FS2mLoeJQq/ulLJIhx5O+mDLt8mtLqqKJkFIuKZTkRFqjlFLvSHFcVR1QHBizklVS08Ptk7qf5yDFEW+N729n5W2vZ93YULoE33MPU2mXyqqPPtOupK4V47S2IWnlyu2W6Aft7+ckSH3u1X1JPU0Z7460z/4epb2qK8NhUsdxXZI/P+TZ5RmSUURu6RokLTayV3ds8Ed21EWWkvJNX9qPMpRjg6r2vMgqvb/nFxsVnjIH6JkCfGs9ZKm3deggssbm2EZOi2On6tY+HfeUGzwqGBxoOKD/pkst9UF0IJlOaneKtuXIOLlGUzKfc8ZycOCocKDvl1eC6aNy00flPvqHd1Tua9zHwXOA0yWdZ4y/1ijUwlUgBfAwKztAqZ6+4z34OxwtOMwcIFPkkZwx2ujCGG8MPttx/rSAeJt77gF1rqnubUDPNtfcpOzQ+5tw6WDKkElyEvlodWYPKsgrh1DOoSMzdn+T1tPRKPK+yTmjzODAthyIEzF6lHzbR15D9gVwp6+nf+Pw7GU/543l4MBR4UDfL+8u3HxUuDHuY3BgcKByIMZgOkM7A1as6zBtJ+Jinw4VpfNVB0MPMRgHDQ7sFQcCaGUdkLPIZgssyCgDMMbfttcGbCLnDEXXtJ13Y9v6RvmjzwEOGD86MECa/JFTshgATZ78AqTJFNnalOhl9ZJJv0GDA/vFAaAYRT6jB3M9ctgD6ZQn1457JwYNDhwnDpx1nG523OvgwODANAekDsYgTAmdImIUOi4l2jrSmVr3Y+jpcM28jazn3Lqj+es76ubQWB0cWMsBshYZaoF0TiSnHD59JCXH1y0TKXQ+INQO/1l37jh+/DhA3gKoo/PIDDmNwyf7o0d345whjz2oOX7cHnd8OjggqszpM6X7yPIUkE67yDg5HTQ4cNw4MMD0cXvi434HByY4oAPUETIAgRVeaYYiw88x+y39dKi2YyzapwM2BjqUY9lmDLbRlXi9c3wsBwfWcWAdkHZ+5DURQLK5LSVC7X0YNDiwigPkja6Lg4e82bYERgIuIpcB1qvq7I+pO+epZ9DgwH5zYDdAmtzT0Wj07/v9hEb9ZxoHqmbejcFxpt3IcWnPeFbH5Umf3vtk9JlETXqijtDkbiLRjDjHTATnmG0TaZm0TQTQxEyXX355/a6rztS2ybzIKQ92oofG++U4oGPirTZl/PTe7bjaYeIARw2ZAioAXRPayYIgTz1xAJloMpHlf/7nf1455EB9Jmcsn0Sq8trXd6ZsD71/pjyJz7cDsKUXyRAQAYDQnWTP5JVJ/3YGHepb0b4HTo7pPxOKodRDDu032WnAM9knz/Sn6zg+Umgr28bfaeIA2SWb5Jfs0kXlixMLOaRzTaqpHNn3Doz+/TQ9nHGZA+XAR//p44vrVzAdxb3YO1bOSA54cMtmXj8jGzwadeg4kBljdYwMuVAMQwYd4y8TliX6ovw/f/zy2XW+6ooOl07R6Ua3WNfpDo91ODqWm3IAUPEjQ3HOrDqXwRdwwwG0jIBxch0nz7JyB71/6P2DfgLT1+cUbB2CdCEwQU7JXRvdI2Oci6F2dvj2WH+eazhvU9lP/WM5OLBXHNCHr0rtbuVX/66fHzQ4cNQ50PfLI2doH5445UIBBUhY6gzzAzwGDQ6ciRwgmwy4GHEB1GQaRXbbcsoiwASIQZF1wFsHm/PqwfE3OLAhB1ogHaOOPK1yypA550Vm+0vZ7zi5jY7uy4ztwYFVHCA7gDT5SWQ6cmm/X4AxeWuB9DKQnfLtdRMJpD/p1EGDAwfBAbJHbqeAMtlkJ3gnVunlg2j3uObgwOniwP8PIWYWRo/fumUAAAAASUVORK5CYII=;" parent="1" vertex="1">
                    <mxGeometry x="24.11" y="200" width="1241.79" height="160" as="geometry"/>
                </mxCell>
                <mxCell id="247" value="返回结果" style="html=1;verticalAlign=bottom;endArrow=open;dashed=1;endSize=8;" edge="1" parent="1">
                    <mxGeometry relative="1" as="geometry">
                        <mxPoint x="250" y="1788" as="sourcePoint"/>
                        <mxPoint x="90" y="1788" as="targetPoint"/>
                    </mxGeometry>
                </mxCell>
                <mxCell id="248" value="1. 强制更新，交互怎么体现？&amp;nbsp; —— 待文俊确认，大概思路是弹框只显示下载并更新，不要取消&lt;br&gt;2. 小红点需要吗？—— 不需要" style="text;html=1;align=center;verticalAlign=middle;resizable=0;points=[];autosize=1;strokeColor=none;fillColor=none;" vertex="1" parent="1">
                    <mxGeometry x="511" y="1313" width="520" height="30" as="geometry"/>
                </mxCell>
            </root>
        </mxGraphModel>
    </diagram>
</mxfile>